<svg width="168" height="21" viewBox="0 0 168 21" xmlns="http://www.w3.org/2000/svg">
<path d="M0 16.28V2.28H2.52V16.28H0Z" fill="currentColor"/>
<path d="M8.2925 16.44C7.51917 16.44 6.83917 16.2667 6.2525 15.92C5.67917 15.56 5.2325 15.0667 4.9125 14.44C4.5925 13.8133 4.4325 13.0933 4.4325 12.28V6.36H6.9525V12.08C6.9525 12.8267 7.1325 13.3867 7.4925 13.76C7.86583 14.1333 8.3925 14.32 9.0725 14.32C9.84583 14.32 10.4458 14.0667 10.8725 13.56C11.2992 13.04 11.5125 12.32 11.5125 11.4V6.36H14.0325V16.28H11.5525V14.98H11.1925C11.0325 15.3133 10.7325 15.64 10.2925 15.96C9.8525 16.28 9.18583 16.44 8.2925 16.44Z" fill="currentColor"/>
<path d="M20.6967 16.56C19.7367 16.56 18.8634 16.36 18.0767 15.96C17.3034 15.56 16.6901 14.98 16.2367 14.22C15.7834 13.46 15.5567 12.54 15.5567 11.46V11.18C15.5567 10.1 15.7834 9.18 16.2367 8.42C16.6901 7.66 17.3034 7.08 18.0767 6.68C18.8634 6.28 19.7367 6.08 20.6967 6.08C21.6434 6.08 22.4567 6.24667 23.1367 6.58C23.8167 6.91333 24.3634 7.37333 24.7767 7.96C25.2034 8.53333 25.4834 9.18667 25.6167 9.92L23.1767 10.44C23.1234 10.04 23.0034 9.68 22.8167 9.36C22.6301 9.04 22.3634 8.78667 22.0167 8.6C21.6834 8.41333 21.2634 8.32 20.7567 8.32C20.2501 8.32 19.7901 8.43333 19.3767 8.66C18.9767 8.87333 18.6567 9.2 18.4167 9.64C18.1901 10.0667 18.0767 10.5933 18.0767 11.22V11.42C18.0767 12.0467 18.1901 12.58 18.4167 13.02C18.6567 13.4467 18.9767 13.7733 19.3767 14C19.7901 14.2133 20.2501 14.32 20.7567 14.32C21.5167 14.32 22.0901 14.1267 22.4767 13.74C22.8767 13.34 23.1301 12.82 23.2367 12.18L25.6767 12.76C25.5034 13.4667 25.2034 14.1133 24.7767 14.7C24.3634 15.2733 23.8167 15.7267 23.1367 16.06C22.4567 16.3933 21.6434 16.56 20.6967 16.56Z" fill="currentColor"/>
<path d="M26.9555 16.28V6.36H29.4755V16.28H26.9555ZM28.2155 5.2C27.7621 5.2 27.3755 5.05333 27.0555 4.76C26.7488 4.46667 26.5955 4.08 26.5955 3.6C26.5955 3.12 26.7488 2.73333 27.0555 2.44C27.3755 2.14667 27.7621 2 28.2155 2C28.6821 2 29.0688 2.14667 29.3755 2.44C29.6821 2.73333 29.8355 3.12 29.8355 3.6C29.8355 4.08 29.6821 4.46667 29.3755 4.76C29.0688 5.05333 28.6821 5.2 28.2155 5.2Z" fill="currentColor"/>
<path d="M34.548 16.56C33.8413 16.56 33.208 16.44 32.648 16.2C32.088 15.9467 31.6413 15.5867 31.308 15.12C30.988 14.64 30.828 14.06 30.828 13.38C30.828 12.7 30.988 12.1333 31.308 11.68C31.6413 11.2133 32.0946 10.8667 32.668 10.64C33.2546 10.4 33.9213 10.28 34.668 10.28H37.388V9.72C37.388 9.25333 37.2413 8.87333 36.948 8.58C36.6546 8.27333 36.188 8.12 35.548 8.12C34.9213 8.12 34.4546 8.26667 34.148 8.56C33.8413 8.84 33.6413 9.20667 33.548 9.66L31.228 8.88C31.388 8.37333 31.6413 7.91333 31.988 7.5C32.348 7.07333 32.8213 6.73333 33.408 6.48C34.008 6.21333 34.7346 6.08 35.588 6.08C36.8946 6.08 37.928 6.40667 38.688 7.06C39.448 7.71333 39.828 8.66 39.828 9.9V13.6C39.828 14 40.0146 14.2 40.388 14.2H41.188V16.28H39.508C39.0146 16.28 38.608 16.16 38.288 15.92C37.968 15.68 37.808 15.36 37.808 14.96V14.94H37.428C37.3746 15.1 37.2546 15.3133 37.068 15.58C36.8813 15.8333 36.588 16.06 36.188 16.26C35.788 16.46 35.2413 16.56 34.548 16.56ZM34.988 14.52C35.6946 14.52 36.268 14.3267 36.708 13.94C37.1613 13.54 37.388 13.0133 37.388 12.36V12.16H34.848C34.3813 12.16 34.0146 12.26 33.748 12.46C33.4813 12.66 33.348 12.94 33.348 13.3C33.348 13.66 33.488 13.9533 33.768 14.18C34.048 14.4067 34.4546 14.52 34.988 14.52Z" fill="currentColor"/>
<path d="M42.2305 16.28V6.36H44.7105V7.66H45.0705C45.2305 7.31333 45.5305 6.98667 45.9705 6.68C46.4105 6.36 47.0771 6.2 47.9705 6.2C48.7438 6.2 49.4171 6.38 49.9905 6.74C50.5771 7.08667 51.0305 7.57333 51.3505 8.2C51.6705 8.81333 51.8305 9.53333 51.8305 10.36V16.28H49.3105V10.56C49.3105 9.81333 49.1238 9.25333 48.7505 8.88C48.3905 8.50667 47.8705 8.32 47.1905 8.32C46.4171 8.32 45.8171 8.58 45.3905 9.1C44.9638 9.60667 44.7505 10.32 44.7505 11.24V16.28H42.2305Z" fill="currentColor"/>
<path d="M58.4747 16.56C57.488 16.56 56.6014 16.36 55.8147 15.96C55.028 15.56 54.408 14.98 53.9547 14.22C53.5014 13.46 53.2747 12.5467 53.2747 11.48V11.16C53.2747 10.0933 53.5014 9.18 53.9547 8.42C54.408 7.66 55.028 7.08 55.8147 6.68C56.6014 6.28 57.488 6.08 58.4747 6.08C59.4614 6.08 60.348 6.28 61.1347 6.68C61.9214 7.08 62.5414 7.66 62.9947 8.42C63.448 9.18 63.6747 10.0933 63.6747 11.16V11.48C63.6747 12.5467 63.448 13.46 62.9947 14.22C62.5414 14.98 61.9214 15.56 61.1347 15.96C60.348 16.36 59.4614 16.56 58.4747 16.56ZM58.4747 14.32C59.248 14.32 59.888 14.0733 60.3947 13.58C60.9014 13.0733 61.1547 12.3533 61.1547 11.42V11.22C61.1547 10.2867 60.9014 9.57333 60.3947 9.08C59.9014 8.57333 59.2614 8.32 58.4747 8.32C57.7014 8.32 57.0614 8.57333 56.5547 9.08C56.048 9.57333 55.7947 10.2867 55.7947 11.22V11.42C55.7947 12.3533 56.048 13.0733 56.5547 13.58C57.0614 14.0733 57.7014 14.32 58.4747 14.32Z" fill="currentColor"/>
<path d="M68.9989 11.36V11.04C68.9989 10 69.2056 9.11333 69.6189 8.38C70.0322 7.63333 70.5789 7.06667 71.2589 6.68C71.9522 6.28 72.7056 6.08 73.5189 6.08C74.4256 6.08 75.1122 6.24 75.5789 6.56C76.0456 6.88 76.3856 7.21333 76.5989 7.56H76.9589V6.36H79.4389V18.04C79.4389 18.72 79.2389 19.26 78.8389 19.66C78.4389 20.0733 77.9056 20.28 77.2389 20.28H70.5989V18.08H76.3589C76.7322 18.08 76.9189 17.88 76.9189 17.48V14.9H76.5589C76.4256 15.1133 76.2389 15.3333 75.9989 15.56C75.7589 15.7733 75.4389 15.9533 75.0389 16.1C74.6389 16.2467 74.1322 16.32 73.5189 16.32C72.7056 16.32 71.9522 16.1267 71.2589 15.74C70.5789 15.34 70.0322 14.7733 69.6189 14.04C69.2056 13.2933 68.9989 12.4 68.9989 11.36ZM74.2389 14.12C75.0122 14.12 75.6589 13.8733 76.1789 13.38C76.6989 12.8867 76.9589 12.1933 76.9589 11.3V11.1C76.9589 10.1933 76.6989 9.5 76.1789 9.02C75.6722 8.52667 75.0256 8.28 74.2389 8.28C73.4656 8.28 72.8189 8.52667 72.2989 9.02C71.7789 9.5 71.5189 10.1933 71.5189 11.1V11.3C71.5189 12.1933 71.7789 12.8867 72.2989 13.38C72.8189 13.8733 73.4656 14.12 74.2389 14.12Z" fill="currentColor"/>
<path d="M81.4328 16.28V6.36H83.9528V16.28H81.4328ZM82.6928 5.2C82.2395 5.2 81.8528 5.05333 81.5328 4.76C81.2261 4.46667 81.0728 4.08 81.0728 3.6C81.0728 3.12 81.2261 2.73333 81.5328 2.44C81.8528 2.14667 82.2395 2 82.6928 2C83.1595 2 83.5461 2.14667 83.8528 2.44C84.1595 2.73333 84.3128 3.12 84.3128 3.6C84.3128 4.08 84.1595 4.46667 83.8528 4.76C83.5461 5.05333 83.1595 5.2 82.6928 5.2Z" fill="currentColor"/>
<path d="M89.0253 16.56C88.3186 16.56 87.6853 16.44 87.1253 16.2C86.5653 15.9467 86.1186 15.5867 85.7853 15.12C85.4653 14.64 85.3053 14.06 85.3053 13.38C85.3053 12.7 85.4653 12.1333 85.7853 11.68C86.1186 11.2133 86.572 10.8667 87.1453 10.64C87.732 10.4 88.3986 10.28 89.1453 10.28H91.8653V9.72C91.8653 9.25333 91.7186 8.87333 91.4253 8.58C91.132 8.27333 90.6653 8.12 90.0253 8.12C89.3986 8.12 88.932 8.26667 88.6253 8.56C88.3186 8.84 88.1186 9.20667 88.0253 9.66L85.7053 8.88C85.8653 8.37333 86.1186 7.91333 86.4653 7.5C86.8253 7.07333 87.2986 6.73333 87.8853 6.48C88.4853 6.21333 89.212 6.08 90.0653 6.08C91.372 6.08 92.4053 6.40667 93.1653 7.06C93.9253 7.71333 94.3053 8.66 94.3053 9.9V13.6C94.3053 14 94.492 14.2 94.8653 14.2H95.6653V16.28H93.9853C93.492 16.28 93.0853 16.16 92.7653 15.92C92.4453 15.68 92.2853 15.36 92.2853 14.96V14.94H91.9053C91.852 15.1 91.732 15.3133 91.5453 15.58C91.3586 15.8333 91.0653 16.06 90.6653 16.26C90.2653 16.46 89.7186 16.56 89.0253 16.56ZM89.4653 14.52C90.172 14.52 90.7453 14.3267 91.1853 13.94C91.6386 13.54 91.8653 13.0133 91.8653 12.36V12.16H89.3253C88.8586 12.16 88.492 12.26 88.2253 12.46C87.9586 12.66 87.8253 12.94 87.8253 13.3C87.8253 13.66 87.9653 13.9533 88.2453 14.18C88.5253 14.4067 88.932 14.52 89.4653 14.52Z" fill="currentColor"/>
<path d="M101.172 16.56C100.212 16.56 99.3392 16.36 98.5525 15.96C97.7792 15.56 97.1658 14.98 96.7125 14.22C96.2592 13.46 96.0325 12.54 96.0325 11.46V11.18C96.0325 10.1 96.2592 9.18 96.7125 8.42C97.1658 7.66 97.7792 7.08 98.5525 6.68C99.3392 6.28 100.212 6.08 101.172 6.08C102.119 6.08 102.932 6.24667 103.612 6.58C104.292 6.91333 104.839 7.37333 105.252 7.96C105.679 8.53333 105.959 9.18667 106.092 9.92L103.652 10.44C103.599 10.04 103.479 9.68 103.292 9.36C103.106 9.04 102.839 8.78667 102.492 8.6C102.159 8.41333 101.739 8.32 101.232 8.32C100.726 8.32 100.266 8.43333 99.8525 8.66C99.4525 8.87333 99.1325 9.2 98.8925 9.64C98.6658 10.0667 98.5525 10.5933 98.5525 11.22V11.42C98.5525 12.0467 98.6658 12.58 98.8925 13.02C99.1325 13.4467 99.4525 13.7733 99.8525 14C100.266 14.2133 100.726 14.32 101.232 14.32C101.992 14.32 102.566 14.1267 102.952 13.74C103.352 13.34 103.606 12.82 103.712 12.18L106.152 12.76C105.979 13.4667 105.679 14.1133 105.252 14.7C104.839 15.2733 104.292 15.7267 103.612 16.06C102.932 16.3933 102.119 16.56 101.172 16.56Z" fill="currentColor"/>
<path d="M112.151 16.56C111.165 16.56 110.278 16.36 109.491 15.96C108.705 15.56 108.085 14.98 107.631 14.22C107.178 13.46 106.951 12.5467 106.951 11.48V11.16C106.951 10.0933 107.178 9.18 107.631 8.42C108.085 7.66 108.705 7.08 109.491 6.68C110.278 6.28 111.165 6.08 112.151 6.08C113.138 6.08 114.025 6.28 114.811 6.68C115.598 7.08 116.218 7.66 116.671 8.42C117.125 9.18 117.351 10.0933 117.351 11.16V11.48C117.351 12.5467 117.125 13.46 116.671 14.22C116.218 14.98 115.598 15.56 114.811 15.96C114.025 16.36 113.138 16.56 112.151 16.56ZM112.151 14.32C112.925 14.32 113.565 14.0733 114.071 13.58C114.578 13.0733 114.831 12.3533 114.831 11.42V11.22C114.831 10.2867 114.578 9.57333 114.071 9.08C113.578 8.57333 112.938 8.32 112.151 8.32C111.378 8.32 110.738 8.57333 110.231 9.08C109.725 9.57333 109.471 10.2867 109.471 11.22V11.42C109.471 12.3533 109.725 13.0733 110.231 13.58C110.738 14.0733 111.378 14.32 112.151 14.32Z" fill="currentColor"/>
<path d="M118.877 16.28V6.36H121.357V7.44H121.717C121.891 7.10667 122.177 6.82 122.577 6.58C122.977 6.32667 123.504 6.2 124.157 6.2C124.864 6.2 125.431 6.34 125.857 6.62C126.284 6.88667 126.611 7.24 126.837 7.68H127.197C127.424 7.25333 127.744 6.9 128.157 6.62C128.571 6.34 129.157 6.2 129.917 6.2C130.531 6.2 131.084 6.33333 131.577 6.6C132.084 6.85333 132.484 7.24667 132.777 7.78C133.084 8.3 133.237 8.96 133.237 9.76V16.28H130.717V9.94C130.717 9.39333 130.577 8.98667 130.297 8.72C130.017 8.44 129.624 8.3 129.117 8.3C128.544 8.3 128.097 8.48667 127.777 8.86C127.471 9.22 127.317 9.74 127.317 10.42V16.28H124.797V9.94C124.797 9.39333 124.657 8.98667 124.377 8.72C124.097 8.44 123.704 8.3 123.197 8.3C122.624 8.3 122.177 8.48667 121.857 8.86C121.551 9.22 121.397 9.74 121.397 10.42V16.28H118.877Z" fill="currentColor"/>
<path d="M138.228 16.56C137.521 16.56 136.888 16.44 136.328 16.2C135.768 15.9467 135.321 15.5867 134.988 15.12C134.668 14.64 134.508 14.06 134.508 13.38C134.508 12.7 134.668 12.1333 134.988 11.68C135.321 11.2133 135.774 10.8667 136.348 10.64C136.934 10.4 137.601 10.28 138.348 10.28H141.068V9.72C141.068 9.25333 140.921 8.87333 140.628 8.58C140.334 8.27333 139.868 8.12 139.228 8.12C138.601 8.12 138.134 8.26667 137.828 8.56C137.521 8.84 137.321 9.20667 137.228 9.66L134.908 8.88C135.068 8.37333 135.321 7.91333 135.668 7.5C136.028 7.07333 136.501 6.73333 137.088 6.48C137.688 6.21333 138.414 6.08 139.268 6.08C140.574 6.08 141.608 6.40667 142.368 7.06C143.128 7.71333 143.508 8.66 143.508 9.9V13.6C143.508 14 143.694 14.2 144.068 14.2H144.868V16.28H143.188C142.694 16.28 142.288 16.16 141.968 15.92C141.648 15.68 141.488 15.36 141.488 14.96V14.94H141.108C141.054 15.1 140.934 15.3133 140.748 15.58C140.561 15.8333 140.268 16.06 139.868 16.26C139.468 16.46 138.921 16.56 138.228 16.56ZM138.668 14.52C139.374 14.52 139.948 14.3267 140.388 13.94C140.841 13.54 141.068 13.0133 141.068 12.36V12.16H138.528C138.061 12.16 137.694 12.26 137.428 12.46C137.161 12.66 137.028 12.94 137.028 13.3C137.028 13.66 137.168 13.9533 137.448 14.18C137.728 14.4067 138.134 14.52 138.668 14.52Z" fill="currentColor"/>
<path d="M145.55 16.28V13.28L150.99 8.76V8.44H145.75V6.36H153.75V9.36L148.31 13.88V14.2H153.91V16.28H145.55Z" fill="currentColor"/>
<path d="M155.102 16.28V13.28L160.542 8.76V8.44H155.302V6.36H163.302V9.36L157.862 13.88V14.2H163.462V16.28H155.102Z" fill="currentColor"/>
<path d="M165.013 16.28V6.36H167.533V16.28H165.013ZM166.273 5.2C165.82 5.2 165.433 5.05333 165.113 4.76C164.807 4.46667 164.653 4.08 164.653 3.6C164.653 3.12 164.807 2.73333 165.113 2.44C165.433 2.14667 165.82 2 166.273 2C166.74 2 167.127 2.14667 167.433 2.44C167.74 2.73333 167.893 3.12 167.893 3.6C167.893 4.08 167.74 4.46667 167.433 4.76C167.127 5.05333 166.74 5.2 166.273 5.2Z" fill="currentColor"/>
</svg>
