<svg width="24" height="24" viewBox="0 0 24 24" fill="none" xmlns="http://www.w3.org/2000/svg">
<path fill-rule="evenodd" clip-rule="evenodd" d="M11.997 20.071C11.7421 20.0703 11.4874 19.9727 11.2929 19.7782L4.22182 12.7071C3.83129 12.3166 3.83129 11.6834 4.22182 11.2929C4.61234 10.9023 5.24551 10.9023 5.63603 11.2929L11 16.6568L11 4.92891C11 4.37662 11.4477 3.92891 12 3.92891C12.5523 3.92891 13 4.37662 13 4.92891L13 16.6568L18.364 11.2929C18.7545 10.9023 19.3876 10.9023 19.7782 11.2929C20.1687 11.6834 20.1687 12.3166 19.7782 12.7071L12.7076 19.7777L12.705 19.7803C12.5128 19.9713 12.268 20.0719 11.997 20.071Z" fill="black"/>
</svg>
