<svg width="24" height="24" viewBox="0 0 24 24" fill="none" xmlns="http://www.w3.org/2000/svg">
<path fill-rule="evenodd" clip-rule="evenodd" d="M3.92893 11.997C3.92969 11.7421 4.02732 11.4874 4.22182 11.2929L11.2929 4.22182C11.6834 3.83129 12.3166 3.83129 12.7071 4.22182C13.0976 4.61234 13.0976 5.24551 12.7071 5.63603L7.34314 11L19.0711 11C19.6233 11 20.0711 11.4477 20.0711 12C20.0711 12.5523 19.6233 13 19.0711 13L7.34314 13L12.7071 18.364C13.0976 18.7545 13.0976 19.3876 12.7071 19.7782C12.3166 20.1687 11.6834 20.1687 11.2929 19.7782L4.22231 12.7076L4.2197 12.705C4.02864 12.5128 3.92811 12.268 3.92893 11.997Z" fill="black"/>
</svg>
