<svg width="1501" height="1501" viewBox="0 0 1501 1501" fill="none" xmlns="http://www.w3.org/2000/svg">
<path d="M574.548 529.699L602.206 550.764C616.254 561.465 636.026 548.886 632.288 531.627L624.927 497.649C620.955 479.312 645.25 469.004 655.676 484.603L674.995 513.508C684.808 528.19 707.593 522.713 709.661 505.175L713.732 470.648C715.929 452.014 742.254 450.154 747.05 468.293L755.937 501.905C760.451 518.977 783.78 521.195 791.43 505.279L806.492 473.944C814.621 457.034 840.123 463.822 838.77 482.536L836.261 517.212C834.987 534.825 856.332 544.498 868.736 531.928L893.156 507.182C906.334 493.827 928.251 508.528 920.895 525.788L907.263 557.771C900.339 574.016 917.387 590.095 933.2 582.234L964.332 566.758C981.132 558.406 997.088 579.427 984.526 593.363L961.249 619.187C949.425 632.304 960.328 653.047 977.836 650.746L1012.31 646.217C1030.91 643.773 1039.18 668.836 1022.77 677.938L992.367 694.804C976.925 703.371 980.502 726.53 997.809 730.04L1031.88 736.948C1050.27 740.677 1049.95 767.065 1031.48 770.347L997.246 776.428C979.859 779.517 975.723 802.583 990.952 811.521L1020.94 829.119C1037.12 838.616 1028.25 863.472 1009.71 860.577L975.358 855.214C957.911 852.49 946.508 872.963 958.011 886.362L980.656 912.742C992.876 926.979 976.416 947.607 959.822 938.85L929.074 922.624C913.457 914.382 896.024 930.043 902.553 946.452L915.405 978.755C922.341 996.188 900.075 1010.35 887.223 996.684L863.41 971.353C851.315 958.487 829.742 967.639 830.589 985.278L832.256 1020C833.156 1038.75 807.496 1044.91 799.78 1027.81L785.482 996.121C778.219 980.024 754.844 981.676 749.917 998.634L740.218 1032.02C734.984 1050.04 708.712 1047.54 706.967 1028.86L703.733 994.243C702.091 976.661 679.446 970.633 669.28 985.073L649.266 1013.5C638.465 1028.84 614.427 1017.95 618.843 999.714L627.024 965.924C631.18 948.76 611.718 935.707 597.415 946.063L569.255 966.452C554.058 977.456 534.86 959.348 544.957 943.534L563.666 914.231C573.17 899.347 559.002 880.682 542.11 885.833L508.856 895.974C490.909 901.446 478.631 878.086 493.316 866.407L520.526 844.767C534.348 833.776 527.008 811.521 509.359 810.908L474.613 809.702C455.862 809.051 451.835 782.969 469.515 776.692L502.278 765.06C518.92 759.151 519.204 735.719 502.71 729.409L470.239 716.986C452.715 710.282 457.374 684.306 476.136 684.109L510.9 683.746C528.559 683.561 536.436 661.49 522.885 650.167L496.206 627.874C481.809 615.843 494.65 592.787 512.459 598.693L545.458 609.637C562.219 615.196 576.836 596.879 567.696 581.769L549.701 552.021C539.991 535.968 559.622 518.33 574.548 529.699Z" stroke="#66E3FF" stroke-width="2" stroke-linecap="round" stroke-linejoin="round"><animateTransform attributeName="transform" type="rotate" begin="0s" dur="60s" from="0 750 750" to="360 750 750" repeatCount="indefinite"></animateTransform></path>
<path d="M618.981 315.336L627.541 338.632L627.071 338.805L644.191 385.397L644.66 385.225L661.779 431.818L661.31 431.99L669.869 455.287L670.338 455.114L678.898 478.411L678.429 478.583L695.548 525.176L696.017 525.003L713.136 571.596L712.667 571.769L716.947 583.417C717.015 583.604 717.1 583.776 717.2 583.933L717.622 583.666C717.802 583.949 718.034 584.161 718.294 584.307L718.048 584.743C718.75 585.138 719.597 585.146 720.301 584.847L720.105 584.387C720.66 584.15 721.114 583.673 721.251 582.996L721.741 583.095C721.778 582.913 721.796 582.722 721.793 582.522L721.634 570.114L721.134 570.12L720.815 545.303L721.315 545.297L720.677 495.663L720.177 495.669L719.539 446.035L720.039 446.029L719.72 421.212L719.22 421.218L718.901 396.401L719.401 396.394L718.763 346.76L718.263 346.767L717.626 297.133L718.125 297.126L718.078 293.414L718.551 297.096L719.047 297.033L722.208 321.65L721.712 321.713L728.034 370.947L728.53 370.884L734.852 420.118L734.356 420.181L737.517 444.798L738.013 444.735L741.174 469.352L740.678 469.415L747 518.649L747.496 518.586L753.818 567.82L753.322 567.883L754.902 580.192C754.928 580.389 754.972 580.576 755.034 580.752L755.506 580.585C755.617 580.9 755.796 581.159 756.017 581.36L755.681 581.73C756.277 582.271 757.101 582.468 757.854 582.332L757.765 581.84C758.359 581.733 758.908 581.369 759.192 580.739L759.648 580.945C759.724 580.776 759.784 580.593 759.826 580.398L762.432 568.265L761.943 568.16L767.154 543.895L767.643 544L778.066 495.468L777.577 495.363L788 446.831L788.489 446.936L793.7 422.67L793.211 422.565L798.423 398.3L798.912 398.405L809.334 349.873L808.846 349.768L819.268 301.236L819.757 301.341L820.537 297.711L820.178 301.407L820.676 301.455L818.28 326.158L817.782 326.11L812.99 375.516L813.488 375.565L808.696 424.971L808.198 424.923L805.802 449.626L806.3 449.674L803.904 474.377L803.406 474.329L798.614 523.736L799.112 523.784L794.32 573.19L793.822 573.142L792.624 585.494C792.605 585.692 792.606 585.884 792.628 586.069L793.125 586.011C793.163 586.343 793.28 586.635 793.451 586.88L793.041 587.166C793.502 587.826 794.261 588.202 795.025 588.237L795.048 587.737C795.651 587.765 796.267 587.532 796.684 586.982L797.083 587.284C797.195 587.136 797.294 586.971 797.378 586.791L802.619 575.542L802.165 575.33L812.646 552.833L813.099 553.044L834.06 508.048L833.606 507.837L854.567 462.842L855.02 463.053L865.501 440.555L865.048 440.344L875.528 417.846L875.981 418.057L896.942 373.062L896.489 372.85L917.449 327.855L917.903 328.066L919.47 324.701L918.299 328.223L918.773 328.381L910.94 351.932L910.466 351.774L894.8 398.875L895.274 399.033L879.608 446.135L879.134 445.977L871.301 469.527L871.776 469.685L863.943 493.236L863.468 493.078L847.802 540.179L848.277 540.337L832.611 587.439L832.136 587.281L828.22 599.056C828.157 599.245 828.116 599.433 828.096 599.618L828.593 599.672C828.557 600.005 828.606 600.315 828.718 600.592L828.254 600.78C828.557 601.526 829.213 602.061 829.951 602.265L830.084 601.783C830.666 601.945 831.318 601.855 831.847 601.411L832.168 601.794C832.311 601.674 832.444 601.536 832.567 601.379L840.179 591.578L839.784 591.271L855.007 571.669L855.402 571.976L885.85 532.773L885.455 532.466L915.903 493.263L916.298 493.57L931.522 473.968L931.127 473.661L946.351 454.06L946.745 454.366L977.193 415.163L976.798 414.857L1007.25 375.653L1007.64 375.96L1009.92 373.028L1007.99 376.202L1008.42 376.461L995.542 397.678L995.115 397.419L969.361 439.853L969.788 440.113L944.034 482.547L943.607 482.288L930.729 503.505L931.157 503.764L918.28 524.982L917.852 524.722L892.098 567.157L892.526 567.416L866.772 609.85L866.344 609.591L859.906 620.2C859.802 620.37 859.721 620.544 859.66 620.72L860.132 620.883C860.023 621.199 860.001 621.513 860.049 621.808L859.556 621.888C859.684 622.682 860.205 623.35 860.879 623.713L861.116 623.273C861.648 623.56 862.303 623.617 862.918 623.302L863.146 623.747C863.312 623.662 863.472 623.557 863.626 623.431L873.228 615.57L872.912 615.183L892.116 599.46L892.432 599.847L930.84 568.402L930.523 568.015L968.931 536.57L969.248 536.957L988.452 521.235L988.135 520.848L1007.34 505.125L1007.66 505.512L1046.06 474.067L1045.75 473.68L1084.15 442.235L1084.47 442.622L1087.34 440.27L1084.76 442.936L1085.12 443.284L1067.84 461.103L1067.48 460.755L1032.93 496.395L1033.29 496.743L998.742 532.383L998.383 532.035L981.107 549.855L981.466 550.203L964.191 568.022L963.832 567.674L929.281 603.314L929.64 603.662L895.089 639.302L894.73 638.954L886.092 647.864C885.953 648.007 885.835 648.158 885.736 648.316L886.161 648.58C885.984 648.865 885.893 649.166 885.874 649.463L885.375 649.432C885.324 650.235 885.683 651.002 886.259 651.506L886.588 651.13C887.043 651.527 887.669 651.729 888.338 651.559L888.462 652.043C888.555 652.02 888.648 651.99 888.741 651.955C888.828 651.923 888.914 651.885 889 651.842L900.111 646.314L899.888 645.867L922.109 634.812L922.332 635.259L966.774 613.149L966.551 612.702L1010.99 590.591L1011.22 591.039L1033.44 579.984L1033.21 579.536L1055.44 568.481L1055.66 568.929L1100.1 546.819L1099.88 546.371L1144.32 524.261L1144.54 524.709L1147.87 523.055L1144.75 525.079L1145.03 525.498L1124.22 539.027L1123.95 538.608L1082.33 565.665L1082.6 566.085L1040.99 593.142L1040.72 592.723L1019.91 606.252L1020.18 606.671L999.373 620.2L999.1 619.781L957.485 646.839L957.758 647.258L916.142 674.316L915.87 673.897L905.466 680.661C905.299 680.77 905.15 680.891 905.019 681.023L905.374 681.375C905.138 681.613 904.982 681.886 904.898 682.172L904.418 682.03C904.189 682.802 904.369 683.629 904.818 684.249L905.223 683.956C905.577 684.444 906.143 684.781 906.834 684.764L906.846 685.263C907.032 685.259 907.223 685.234 907.416 685.187L919.478 682.27L919.361 681.784L943.485 675.951L943.602 676.437L991.85 664.771L991.732 664.285L1039.98 652.618L1040.1 653.104L1064.22 647.271L1064.1 646.785L1088.23 640.952L1088.35 641.438L1136.59 629.771L1136.48 629.285L1184.72 617.619L1184.84 618.105L1188.45 617.232L1184.96 618.512L1185.14 618.982L1161.84 627.541L1161.67 627.072L1115.08 644.191L1115.25 644.66L1068.66 661.78L1068.48 661.31L1045.19 669.87L1045.36 670.339L1022.06 678.899L1021.89 678.429L975.297 695.548L975.469 696.018L928.877 713.137L928.704 712.668L917.056 716.947C916.869 717.016 916.697 717.101 916.539 717.201L916.807 717.623C916.524 717.802 916.312 718.034 916.166 718.294L915.73 718.049C915.335 718.75 915.326 719.597 915.626 720.301L916.086 720.105C916.323 720.661 916.8 721.114 917.477 721.251L917.377 721.741C917.56 721.778 917.751 721.796 917.95 721.794L930.359 721.634L930.352 721.134L955.17 720.815L955.176 721.315L1004.81 720.677L1004.8 720.177L1054.44 719.54L1054.44 720.04L1079.26 719.721L1079.25 719.221L1104.07 718.902L1104.08 719.402L1153.71 718.764L1153.71 718.264L1203.34 717.626L1203.35 718.126L1207.06 718.078L1203.38 718.551L1203.44 719.047L1178.82 722.208L1178.76 721.712L1129.53 728.034L1129.59 728.53L1080.36 734.852L1080.29 734.356L1055.67 737.517L1055.74 738.013L1031.12 741.174L1031.06 740.678L981.824 747L981.887 747.496L932.653 753.818L932.59 753.322L920.281 754.903C920.084 754.928 919.897 754.973 919.721 755.035L919.888 755.506C919.572 755.618 919.314 755.797 919.113 756.018L918.743 755.682C918.202 756.278 918.005 757.101 918.141 757.855L918.633 757.766C918.74 758.36 919.104 758.908 919.733 759.193L919.528 759.648C919.697 759.725 919.88 759.785 920.074 759.827L932.207 762.432L932.312 761.944L956.578 767.155L956.473 767.644L1005 778.067L1005.11 777.578L1053.64 788.001L1053.54 788.489L1077.8 793.701L1077.91 793.212L1102.17 798.423L1102.07 798.912L1150.6 809.335L1150.7 808.846L1199.24 819.269L1199.13 819.758L1202.76 820.537L1199.07 820.179L1199.02 820.676L1174.31 818.281L1174.36 817.783L1124.96 812.991L1124.91 813.488L1075.5 808.696L1075.55 808.199L1050.85 805.803L1050.8 806.3L1026.1 803.904L1026.14 803.407L976.737 798.615L976.689 799.112L927.283 794.32L927.331 793.822L914.979 792.624C914.781 792.605 914.589 792.607 914.404 792.629L914.462 793.125C914.129 793.164 913.837 793.281 913.593 793.452L913.307 793.042C912.647 793.502 912.271 794.261 912.236 795.026L912.735 795.049C912.708 795.652 912.94 796.267 913.491 796.685L913.189 797.083C913.337 797.196 913.502 797.295 913.682 797.379L924.931 802.619L925.142 802.166L947.64 812.646L947.429 813.099L992.425 834.06L992.636 833.607L1037.63 854.568L1037.42 855.021L1059.92 865.501L1060.13 865.048L1082.63 875.529L1082.42 875.982L1127.41 896.943L1127.62 896.489L1172.62 917.45L1172.41 917.903L1175.77 919.471L1172.25 918.299L1172.09 918.774L1148.54 910.941L1148.7 910.466L1101.6 894.8L1101.44 895.275L1054.34 879.609L1054.5 879.135L1030.95 871.302L1030.79 871.776L1007.24 863.943L1007.39 863.469L960.293 847.803L960.136 848.277L913.034 832.611L913.192 832.137L901.417 828.22C901.228 828.158 901.04 828.117 900.855 828.097L900.801 828.594C900.468 828.557 900.157 828.606 899.881 828.718L899.693 828.255C898.947 828.557 898.412 829.214 898.208 829.951L898.69 830.085C898.528 830.667 898.618 831.318 899.062 831.848L898.679 832.169C898.799 832.312 898.937 832.445 899.094 832.567L908.895 840.179L909.202 839.784L928.803 855.008L928.497 855.403L967.7 885.851L968.007 885.456L1007.21 915.903L1006.9 916.298L1026.5 931.522L1026.81 931.127L1046.41 946.351L1046.11 946.746L1085.31 977.194L1085.62 976.799L1124.82 1007.25L1124.51 1007.64L1127.45 1009.92L1124.27 1007.99L1124.01 1008.42L1102.79 995.543L1103.05 995.115L1060.62 969.361L1060.36 969.789L1017.93 944.035L1018.19 943.607L996.968 930.73L996.709 931.157L975.491 918.28L975.751 917.853L933.316 892.099L933.057 892.526L890.622 866.772L890.882 866.345L880.273 859.906C880.103 859.803 879.929 859.721 879.753 859.66L879.59 860.133C879.273 860.024 878.96 860.002 878.665 860.05L878.585 859.556C877.791 859.685 877.123 860.206 876.76 860.88L877.2 861.117C876.913 861.648 876.856 862.304 877.171 862.919L876.725 863.147C876.81 863.312 876.916 863.473 877.042 863.627L884.903 873.229L885.29 872.912L901.013 892.116L900.626 892.433L932.071 930.841L932.458 930.524L963.903 968.932L963.516 969.249L979.238 988.453L979.625 988.136L995.348 1007.34L994.961 1007.66L1026.41 1046.06L1026.79 1045.75L1058.24 1084.16L1057.85 1084.47L1060.2 1087.34L1057.54 1084.76L1057.19 1085.12L1039.37 1067.84L1039.72 1067.49L1004.08 1032.93L1003.73 1033.29L968.09 998.742L968.438 998.383L950.618 981.108L950.27 981.467L932.45 964.191L932.798 963.832L897.159 929.281L896.811 929.64L861.171 895.089L861.519 894.73L852.609 886.092C852.466 885.954 852.315 885.836 852.157 885.737L851.892 886.161C851.608 885.984 851.307 885.894 851.009 885.875L851.041 885.376C850.238 885.324 849.471 885.684 848.967 886.26L849.343 886.589C848.946 887.043 848.744 887.669 848.914 888.339L848.429 888.462C848.475 888.643 848.542 888.823 848.631 889.001L854.158 900.111L854.606 899.889L865.661 922.11L865.213 922.333L887.324 966.775L887.771 966.552L909.881 1010.99L909.434 1011.22L920.489 1033.44L920.936 1033.21L931.991 1055.44L931.544 1055.66L953.654 1100.1L954.102 1099.88L976.212 1144.32L975.764 1144.54L977.418 1147.87L975.394 1144.75L974.975 1145.03L961.446 1124.22L961.865 1123.95L934.807 1082.33L934.388 1082.6L907.33 1040.99L907.75 1040.72L894.221 1019.91L893.801 1020.18L880.273 999.373L880.692 999.101L853.634 957.486L853.215 957.758L826.157 916.143L826.576 915.87L819.812 905.466C819.762 905.391 819.711 905.319 819.656 905.25C819.591 905.168 819.522 905.091 819.45 905.019L819.098 905.374C818.86 905.138 818.587 904.983 818.301 904.898L818.443 904.419C817.671 904.19 816.843 904.37 816.224 904.819L816.517 905.224C816.028 905.578 815.692 906.144 815.709 906.834L815.209 906.847C815.214 907.033 815.239 907.223 815.286 907.417L818.203 919.479L818.688 919.361L824.522 943.485L824.036 943.603L835.702 991.85L836.188 991.733L847.855 1039.98L847.369 1040.1L853.202 1064.22L853.688 1064.1L859.521 1088.23L859.035 1088.35L870.702 1136.59L871.188 1136.48L882.854 1184.72L882.368 1184.84L883.241 1188.45L881.96 1184.97L881.491 1185.14L872.932 1161.84L873.401 1161.67L856.282 1115.08L855.812 1115.25L838.693 1068.66L839.163 1068.48L830.603 1045.19L830.134 1045.36L821.574 1022.06L822.044 1021.89L804.924 975.298L804.455 975.47L787.336 928.877L787.805 928.705L783.526 917.057C783.457 916.87 783.372 916.697 783.272 916.54L782.85 916.808C782.671 916.525 782.439 916.313 782.179 916.166L782.424 915.73C781.722 915.336 780.876 915.327 780.172 915.627L780.368 916.087C779.812 916.323 779.359 916.8 779.221 917.477L778.731 917.378C778.694 917.56 778.677 917.752 778.679 917.951L778.839 930.359L779.339 930.353L779.657 955.17L779.157 955.177L779.795 1004.81L780.295 1004.8L780.933 1054.44L780.433 1054.44L780.752 1079.26L781.252 1079.26L781.571 1104.07L781.071 1104.08L781.709 1153.71L782.209 1153.71L782.847 1203.34L782.347 1203.35L782.395 1207.06L781.922 1203.38L781.426 1203.44L778.265 1178.82L778.761 1178.76L772.439 1129.53L771.943 1129.59L765.621 1080.36L766.117 1080.29L762.956 1055.68L762.46 1055.74L759.299 1031.12L759.794 1031.06L753.472 981.824L752.977 981.888L746.655 932.654L747.15 932.59L745.57 920.282C745.545 920.084 745.5 919.897 745.438 919.722L744.967 919.889C744.855 919.573 744.676 919.314 744.455 919.114L744.791 918.744C744.195 918.203 743.371 918.006 742.618 918.141L742.707 918.633C742.113 918.741 741.565 919.104 741.28 919.734L740.825 919.528C740.748 919.698 740.688 919.88 740.646 920.075L738.04 932.208L738.529 932.313L733.318 956.579L732.829 956.474L722.406 1005.01L722.895 1005.11L712.472 1053.64L711.983 1053.54L706.772 1077.8L707.261 1077.91L702.049 1102.17L701.561 1102.07L691.138 1150.6L691.627 1150.71L681.204 1199.24L680.715 1199.13L679.936 1202.76L680.294 1199.07L679.796 1199.02L682.192 1174.32L682.69 1174.36L687.482 1124.96L686.984 1124.91L691.776 1075.5L692.274 1075.55L694.67 1050.85L694.173 1050.8L696.569 1026.1L697.066 1026.14L701.858 976.738L701.361 976.69L706.153 927.283L706.65 927.331L707.848 914.98C707.868 914.782 707.866 914.59 707.844 914.405L707.348 914.462C707.309 914.13 707.192 913.838 707.021 913.593L707.431 913.307C706.97 912.647 706.211 912.272 705.447 912.237L705.424 912.736C704.821 912.708 704.205 912.941 703.788 913.491L703.39 913.189C703.277 913.338 703.178 913.502 703.094 913.683L697.854 924.932L698.307 925.143L687.827 947.641L687.373 947.43L666.413 992.425L666.866 992.636L645.905 1037.63L645.452 1037.42L634.971 1059.92L635.425 1060.13L624.944 1082.63L624.491 1082.42L603.53 1127.41L603.984 1127.62L583.023 1172.62L582.57 1172.41L581.002 1175.77L582.174 1172.25L581.699 1172.09L589.532 1148.54L590.006 1148.7L605.672 1101.6L605.198 1101.44L620.864 1054.34L621.338 1054.5L629.171 1030.95L628.697 1030.79L636.53 1007.24L637.004 1007.4L652.67 960.294L652.196 960.136L667.861 913.035L668.336 913.193L672.252 901.417C672.315 901.228 672.356 901.041 672.376 900.855L671.879 900.801C671.915 900.469 671.867 900.158 671.754 899.881L672.218 899.694C671.916 898.948 671.259 898.413 670.522 898.208L670.388 898.69C669.806 898.529 669.154 898.619 668.625 899.063L668.304 898.68C668.161 898.799 668.028 898.938 667.906 899.095L660.294 908.896L660.689 909.202L645.465 928.804L645.07 928.497L614.622 967.7L615.017 968.007L584.569 1007.21L584.175 1006.9L568.951 1026.51L569.346 1026.81L554.122 1046.41L553.727 1046.11L523.279 1085.31L523.674 1085.62L493.226 1124.82L492.832 1124.51L490.554 1127.45L492.48 1124.27L492.053 1124.01L504.93 1102.8L505.358 1103.05L531.112 1060.62L530.684 1060.36L556.438 1017.93L556.866 1018.19L569.743 996.968L569.315 996.709L582.192 975.492L582.62 975.751L608.374 933.317L607.947 933.057L633.701 890.623L634.128 890.882L640.567 880.274C640.67 880.104 640.752 879.93 640.812 879.754L640.34 879.59C640.449 879.274 640.471 878.96 640.423 878.666L640.917 878.586C640.788 877.791 640.267 877.124 639.593 876.76L639.356 877.2C638.825 876.914 638.169 876.856 637.554 877.171L637.326 876.726C637.161 876.811 637 876.916 636.846 877.042L627.244 884.904L627.561 885.291L608.357 901.013L608.04 900.626L569.632 932.071L569.949 932.458L531.541 963.903L531.224 963.516L512.02 979.239L512.337 979.626L493.133 995.348L492.816 994.961L454.409 1026.41L454.725 1026.79L416.317 1058.24L416.001 1057.85L413.128 1060.2L415.712 1057.54L415.353 1057.19L432.629 1039.37L432.988 1039.72L467.539 1004.08L467.18 1003.73L501.731 968.091L502.09 968.439L519.365 950.619L519.006 950.271L536.282 932.451L536.641 932.799L571.192 897.159L570.833 896.811L605.384 861.172L605.743 861.52L614.38 852.61C614.519 852.467 614.637 852.315 614.736 852.157L614.311 851.893C614.488 851.609 614.579 851.308 614.598 851.01L615.097 851.042C615.148 850.239 614.789 849.472 614.213 848.968L613.884 849.344C613.43 848.946 612.803 848.744 612.134 848.915L612.011 848.43C611.83 848.476 611.65 848.543 611.472 848.631L600.361 854.159L600.584 854.607L578.363 865.662L578.14 865.214L533.698 887.324L533.921 887.772L489.479 909.882L489.256 909.434L467.035 920.489L467.258 920.937L445.037 931.992L444.814 931.544L400.372 953.655L400.595 954.102L356.153 976.212L355.93 975.765L352.606 977.418L355.719 975.395L355.446 974.975L376.254 961.446L376.526 961.866L418.141 934.808L417.869 934.389L459.484 907.331L459.757 907.75L480.564 894.221L480.292 893.802L501.099 880.273L501.372 880.692L542.987 853.635L542.715 853.215L584.33 826.158L584.603 826.577L595.006 819.812C595.173 819.704 595.322 819.583 595.454 819.45L595.099 819.098C595.335 818.861 595.49 818.587 595.575 818.301L596.054 818.443C596.283 817.672 596.103 816.844 595.654 816.224L595.249 816.518C594.895 816.029 594.329 815.693 593.638 815.71L593.626 815.21C593.44 815.215 593.25 815.24 593.056 815.286L580.994 818.203L581.112 818.689L556.988 824.522L556.87 824.036L508.622 835.703L508.74 836.189L460.492 847.855L460.375 847.369L436.251 853.203L436.368 853.689L412.244 859.522L412.127 859.036L363.879 870.702L363.997 871.188L315.749 882.855L315.631 882.369L312.023 883.241L315.508 881.961L315.335 881.492L338.632 872.932L338.804 873.401L385.397 856.282L385.224 855.813L431.817 838.694L431.99 839.163L455.286 830.604L455.114 830.134L478.41 821.575L478.582 822.044L525.175 804.925L525.003 804.456L571.596 787.337L571.768 787.806L583.416 783.526C583.603 783.457 583.775 783.372 583.933 783.273L583.665 782.85C583.948 782.671 584.16 782.439 584.307 782.179L584.742 782.424C585.137 781.723 585.146 780.876 584.846 780.172L584.386 780.368C584.149 779.813 583.673 779.359 582.996 779.222L583.095 778.732C582.912 778.695 582.721 778.677 582.522 778.68L570.113 778.839L570.12 779.339L545.303 779.658L545.296 779.158L495.662 779.796L495.669 780.296L446.035 780.934L446.028 780.434L421.211 780.753L421.217 781.253L396.4 781.572L396.394 781.072L346.76 781.709L346.766 782.209L297.132 782.847L297.126 782.347L293.413 782.395L297.096 781.922L297.032 781.426L321.649 778.265L321.713 778.761L370.947 772.439L370.883 771.943L420.117 765.621L420.181 766.117L444.798 762.956L444.734 762.46L469.351 759.299L469.415 759.795L518.649 753.473L518.585 752.977L567.819 746.655L567.883 747.151L580.191 745.571C580.389 745.545 580.576 745.501 580.751 745.438L580.584 744.967C580.9 744.855 581.158 744.677 581.359 744.456L581.729 744.792C582.27 744.196 582.467 743.372 582.331 742.619L581.839 742.707C581.732 742.113 581.368 741.565 580.739 741.281L580.945 740.825C580.775 740.748 580.592 740.688 580.398 740.647L568.265 738.041L568.16 738.53L543.894 733.318L543.999 732.83L495.467 722.407L495.362 722.896L446.831 712.473L446.936 711.984L422.67 706.773L422.565 707.261L398.299 702.05L398.404 701.561L349.872 691.138L349.767 691.627L301.236 681.205L301.341 680.716L297.711 679.936L301.406 680.295L301.455 679.797L326.158 682.193L326.109 682.691L375.516 687.483L375.564 686.985L424.97 691.777L424.922 692.275L449.625 694.671L449.674 694.173L474.377 696.569L474.329 697.067L523.735 701.859L523.783 701.361L573.19 706.153L573.141 706.651L585.493 707.849C585.691 707.868 585.883 707.866 586.068 707.845L586.01 707.348C586.343 707.309 586.635 707.193 586.879 707.022L587.166 707.432C587.826 706.971 588.201 706.212 588.236 705.447L587.737 705.424C587.765 704.821 587.532 704.206 586.981 703.789L587.283 703.39C587.135 703.278 586.97 703.179 586.79 703.094L575.541 697.854L575.33 698.308L552.832 687.827L553.043 687.374L508.048 666.413L507.837 666.866L462.841 645.906L463.052 645.452L440.554 634.972L440.343 635.425L417.845 624.945L418.057 624.492L373.061 603.531L372.85 603.984L327.854 583.023L328.065 582.57L324.7 581.002L328.223 582.174L328.381 581.7L351.931 589.533L351.774 590.007L398.875 605.673L399.033 605.198L446.134 620.864L445.976 621.339L469.527 629.172L469.685 628.697L493.235 636.53L493.078 637.005L540.179 652.671L540.337 652.196L587.438 667.862L587.28 668.336L599.056 672.253C599.244 672.316 599.432 672.357 599.617 672.377L599.671 671.88C600.004 671.916 600.315 671.867 600.591 671.755L600.779 672.218C601.525 671.916 602.06 671.26 602.264 670.522L601.783 670.388C601.944 669.807 601.854 669.155 601.41 668.626L601.793 668.304C601.674 668.162 601.535 668.028 601.378 667.906L591.577 660.294L591.271 660.689L571.669 645.465L571.976 645.07L532.772 614.623L532.466 615.018L493.262 584.57L493.569 584.175L473.968 568.951L473.661 569.346L454.059 554.122L454.366 553.727L415.163 523.28L414.856 523.675L375.653 493.227L375.959 492.832L373.027 490.555L376.201 492.481L376.461 492.054L397.678 504.931L397.418 505.358L439.853 531.112L440.112 530.685L482.547 556.439L482.287 556.866L503.504 569.743L503.764 569.316L524.981 582.193L524.722 582.62L567.156 608.375L567.415 607.947L609.85 633.701L609.59 634.129L620.199 640.567C620.369 640.671 620.543 640.752 620.719 640.813L620.882 640.34C621.199 640.45 621.513 640.471 621.807 640.424L621.887 640.917C622.682 640.788 623.349 640.267 623.713 639.594L623.273 639.356C623.559 638.825 623.617 638.17 623.302 637.555L623.747 637.327C623.662 637.161 623.557 637 623.43 636.846L615.569 627.244L615.182 627.561L599.46 608.357L599.847 608.04L568.402 569.633L568.015 569.949L536.57 531.542L536.957 531.225L521.234 512.021L520.847 512.338L505.125 493.134L505.511 492.817L474.066 454.409L473.679 454.726L442.234 416.318L442.621 416.001L440.269 413.129L442.935 415.713L443.283 415.354L461.103 432.629L460.755 432.988L496.395 467.539L496.743 467.18L532.382 501.731L532.034 502.09L549.854 519.366L550.202 519.007L568.022 536.282L567.674 536.641L603.313 571.192L603.661 570.833L639.301 605.384L638.953 605.743L647.863 614.381C648.006 614.519 648.157 614.638 648.315 614.736L648.58 614.312C648.864 614.489 649.165 614.58 649.463 614.599L649.431 615.098C650.234 615.149 651.001 614.79 651.505 614.214L651.129 613.884C651.527 613.43 651.729 612.804 651.558 612.134L652.043 612.011C651.997 611.831 651.93 611.651 651.841 611.472L646.314 600.362L645.866 600.585L634.811 578.364L635.259 578.141L613.149 533.699L612.701 533.921L590.591 489.479L591.039 489.257L579.984 467.036L579.536 467.258L568.481 445.037L568.928 444.815L546.818 400.373L546.371 400.595L524.261 356.153L524.708 355.931L523.054 352.606L525.078 355.719L525.497 355.447L539.026 376.254L538.607 376.527L565.665 418.142L566.084 417.869L593.142 459.485L592.723 459.757L606.252 480.565L606.671 480.292L620.2 501.1L619.781 501.373L646.838 542.988L647.257 542.715L674.315 584.331L673.896 584.603L680.661 595.007C680.769 595.174 680.89 595.323 681.022 595.454L681.375 595.099C681.612 595.335 681.886 595.49 682.172 595.575L682.03 596.055C682.801 596.283 683.629 596.104 684.249 595.654L683.955 595.25C684.444 594.895 684.78 594.33 684.763 593.639L685.263 593.627C685.258 593.441 685.233 593.25 685.186 593.057L682.27 580.995L681.784 581.112L675.951 556.988L676.437 556.871L664.77 508.623L664.284 508.741L652.617 460.493L653.104 460.375L647.27 436.251L646.784 436.369L640.951 412.245L641.437 412.127L629.77 363.88L629.284 363.997L617.618 315.749L618.104 315.632L617.231 312.023L618.512 315.508L618.981 315.336Z" stroke="#A4F391" stroke-dasharray="20 40 40 20"><animateTransform attributeName="transform" type="rotate" begin="0s" dur="60s" from="0 750 750" to="-360 750 750" repeatCount="indefinite"></animateTransform></path>

<path d="M616.493 901.147C623.256 891.298 611.227 879.461 601.488 886.38C592.773 892.572 582.74 880.617 590.35 873.108C598.855 864.718 589.284 850.817 578.411 855.769C568.681 860.199 561.093 846.562 569.986 840.629C579.925 833.999 573.158 818.539 561.544 821.343C551.152 823.852 546.281 809.025 556.137 804.883C567.151 800.253 563.432 783.792 551.498 784.347C540.818 784.844 538.842 769.363 549.303 767.161C560.994 764.7 560.458 747.832 548.634 746.119C538.054 744.586 539.042 729.011 549.732 728.828C561.677 728.624 564.343 711.959 553.057 708.039C542.958 704.532 546.876 689.425 557.407 691.269C569.175 693.329 574.946 677.47 564.606 671.485C555.354 666.129 562.06 652.037 572.052 655.841C583.217 660.091 591.885 645.61 582.865 637.777C574.793 630.767 584.045 618.199 593.137 623.824C603.296 630.111 614.548 617.533 607.173 608.134C600.574 599.723 612.037 589.133 619.9 596.377C628.686 604.473 642.115 594.251 636.652 583.626C631.763 574.119 645.024 565.889 651.373 574.491C658.469 584.103 673.589 576.607 670.236 565.141C667.235 554.88 681.814 549.309 686.42 558.956C691.568 569.737 707.834 565.239 706.712 553.345C705.707 542.701 721.076 539.99 723.774 550.335C726.789 561.896 743.612 560.557 744.76 548.666C745.788 538.024 761.393 538.271 762.084 548.939C762.856 560.861 779.629 562.731 783.007 551.271C786.03 541.017 801.306 544.212 799.966 554.819C798.468 566.672 814.584 571.681 820.07 561.069C824.979 551.571 839.374 557.6 836.051 567.761C832.337 579.116 847.213 587.086 854.608 577.703C861.226 569.306 874.22 577.95 869.034 587.299C863.238 597.746 876.337 608.386 885.375 600.573C893.462 593.58 904.586 604.527 897.724 612.725C890.055 621.887 900.904 634.814 911.257 628.852C920.522 623.517 929.372 636.371 921.083 643.122C911.819 650.667 920.025 665.414 931.32 661.519C941.426 658.033 947.684 672.33 938.267 677.39C927.743 683.045 933.01 699.079 944.838 697.392C955.421 695.882 958.861 711.105 948.656 714.291C937.252 717.853 939.389 734.593 951.322 735.175C962 735.695 962.497 751.294 951.873 752.492C940.001 753.83 938.932 770.673 950.539 773.502C960.926 776.034 958.461 791.445 947.803 790.61C935.892 789.678 931.655 806.014 942.517 810.989C952.237 815.441 946.9 830.106 936.592 827.27C925.073 824.101 917.821 839.339 927.545 846.28C936.247 852.491 928.231 865.881 918.646 861.146C907.935 855.853 897.93 869.444 906.165 878.1C913.534 885.845 903.128 897.477 894.613 891.013C885.097 883.789 872.701 895.241 879.149 905.298C884.919 914.298 872.5 923.75 865.362 915.792C857.386 906.898 843.046 915.796 847.474 926.892C851.437 936.822 837.454 943.753 831.951 934.587C825.801 924.344 810.036 930.368 812.285 942.102C814.297 952.602 799.254 956.761 795.586 946.72C791.486 935.498 774.866 938.43 774.853 950.377C774.841 961.068 759.284 962.306 757.582 951.751C755.68 939.956 738.805 939.69 736.532 951.418C734.497 961.914 718.986 960.185 719.313 949.499C719.677 937.558 703.158 934.102 698.706 945.189C694.721 955.109 679.818 950.476 682.161 940.045C684.779 928.389 669.212 921.869 662.742 931.913C656.953 940.9 643.196 933.531 647.47 923.731C652.247 912.781 638.195 903.434 629.941 912.071C622.555 919.8 610.442 909.96 616.493 901.147Z" stroke="#A642E0" stroke-width="2"><animateTransform attributeName="transform" type="rotate" begin="0s" dur="60s" from="0 750 750" to="-360 750 750" repeatCount="indefinite"></animateTransform></path>
<path d="M397.878 925.413L454.133 889.176C467.286 880.704 458.749 860.319 443.485 863.747L378.194 878.407C363.791 881.641 357.395 861.064 371.094 855.563L433.19 830.627C447.708 824.797 443.184 803.165 427.547 803.642L360.661 805.681C345.907 806.131 343.521 784.715 358.012 781.906L423.706 769.173C439.065 766.196 438.716 744.099 423.271 741.607L357.209 730.951C342.636 728.601 344.346 707.12 359.107 707.104L426.023 707.034C441.668 707.017 445.508 685.254 430.813 679.884L367.962 656.919C354.097 651.853 359.841 631.084 374.339 633.862L440.059 646.457C455.424 649.401 463.313 628.757 449.9 620.704L392.531 586.259C379.875 578.66 389.446 559.354 403.156 564.826L465.305 589.63C479.835 595.43 491.489 576.652 479.842 566.206L430.028 521.526C419.04 511.669 432.091 494.523 444.518 502.491L500.849 538.609C514.019 547.053 529.016 530.82 519.557 518.359L479.099 465.059C470.174 453.301 486.235 438.934 496.929 449.11L545.407 495.236C556.741 506.02 574.539 492.919 567.609 478.893L537.969 418.899C531.431 405.665 549.921 394.597 558.496 406.613L597.368 461.08C606.457 473.814 626.412 464.318 622.262 449.233L604.512 384.714C600.596 370.482 620.846 363.114 626.992 376.535L654.854 437.375C661.368 451.599 682.761 446.05 681.54 430.453L676.321 363.741C675.17 349.024 696.448 345.622 699.943 359.964L715.788 424.977C719.492 440.177 741.548 438.777 743.302 423.231L750.802 356.737C752.457 342.068 773.994 342.754 774.712 357.498L777.967 424.335C778.727 439.961 800.649 442.761 805.313 427.828L825.262 363.954C829.663 349.864 850.682 354.614 848.596 369.227L839.143 435.472C836.933 450.96 857.929 457.858 865.335 444.077L897.011 385.133C903.999 372.131 923.739 380.772 918.926 394.727L897.106 457.986C892.005 472.776 911.316 483.522 921.196 471.392L963.455 419.508C972.778 408.063 990.526 420.284 983.158 433.076L949.761 491.062C941.953 504.619 958.881 518.827 970.879 508.785L1022.19 465.837C1033.51 456.363 1048.63 471.722 1038.97 482.888L995.205 533.506C984.972 545.34 998.906 562.495 1012.59 554.905L1071.1 522.444C1084.01 515.284 1095.94 533.226 1084.35 542.363L1031.8 583.783C1019.51 593.467 1029.94 612.948 1044.81 608.085L1108.41 587.285C1122.44 582.696 1130.77 602.573 1117.65 609.351L1058.21 640.076C1044.31 647.259 1050.87 668.363 1066.39 666.402L1132.78 658.015C1147.43 656.164 1151.84 677.257 1137.68 681.43L1073.49 700.351C1058.49 704.774 1060.93 726.738 1076.54 727.75L1143.32 732.078C1158.05 733.033 1158.39 754.579 1143.7 755.997L1077.09 762.428C1061.52 763.932 1059.77 785.962 1074.9 789.91L1139.65 806.798C1153.94 810.523 1150.19 831.744 1135.5 830.356L1068.88 824.065C1053.3 822.595 1047.41 843.895 1061.53 850.637L1121.91 879.473C1135.23 885.834 1127.54 905.963 1113.37 901.819L1049.15 883.034C1034.13 878.642 1024.32 898.443 1036.9 907.735L1090.74 947.477C1102.61 956.244 1091.25 974.554 1078.12 967.803L1018.61 937.203C1004.7 930.049 991.315 947.634 1001.92 959.14L1047.26 1008.35C1057.26 1019.21 1042.64 1035.04 1031.02 1025.92L978.381 984.615C966.073 974.957 949.601 989.691 957.833 1003L993.041 1059.9C1000.81 1072.45 983.454 1085.23 973.776 1074.08L929.902 1023.56C919.644 1011.74 900.682 1023.09 906.247 1037.72L930.05 1100.25C935.3 1114.05 915.843 1123.31 908.448 1110.53L874.929 1052.62C867.093 1039.08 846.325 1046.63 849.022 1062.05L860.559 1127.96C863.104 1142.5 842.246 1147.91 837.403 1133.96L815.45 1070.75C810.318 1055.97 788.495 1059.46 788.227 1075.11L787.081 1142.01C786.829 1156.77 765.323 1158.14 763.207 1143.53L753.614 1077.3C751.371 1061.82 729.282 1061.11 726.059 1076.42L712.272 1141.9C709.231 1156.35 687.856 1153.62 688.542 1138.87L691.656 1072.03C692.384 1056.4 670.827 1051.53 664.765 1065.95L638.835 1127.64C633.115 1141.25 612.643 1134.52 616.108 1120.17L631.815 1055.13C635.487 1039.92 615.242 1031.06 606.56 1044.07L569.424 1099.74C561.232 1112.02 542.403 1101.54 548.521 1088.1L576.254 1027.21C582.739 1012.97 564.536 1000.43 553.548 1011.57L506.548 1059.2C496.18 1069.71 479.674 1055.86 488.224 1043.82L526.982 989.275C536.043 976.521 520.542 960.769 507.645 969.625L452.48 1007.5C440.311 1015.86 426.725 999.13 437.398 988.932L485.778 942.704C497.09 931.896 484.85 913.494 470.51 919.749L409.174 946.501C395.643 952.402 385.468 933.407 397.878 925.413Z" stroke="#A642E0" stroke-width="2"><animateTransform attributeName="transform" type="rotate" begin="0s" dur="200s" from="0 750 750" to="360 750 750" repeatCount="indefinite"></animateTransform></path>
</svg>
