<svg width="24" height="24" viewBox="0 0 24 24" fill="none" xmlns="http://www.w3.org/2000/svg">
<path d="M8.32481 18.9997V9.55356H5.18507V18.9997H8.32514H8.32481ZM6.75559 8.26408C7.85026 8.26408 8.53176 7.53873 8.53176 6.63224C8.51127 5.70511 7.85026 5 6.77641 5C5.70183 5 5 5.70511 5 6.63216C5 7.53864 5.68126 8.26399 6.73502 8.26399H6.75535L6.75559 8.26408ZM10.0627 18.9997H13.2022V13.7251C13.2022 13.4432 13.2227 13.1605 13.3056 12.9591C13.5325 12.3948 14.0491 11.8107 14.9166 11.8107C16.0525 11.8107 16.5071 12.6768 16.5071 13.9468V18.9997H19.6465V13.5836C19.6465 10.6822 18.0978 9.3321 16.0321 9.3321C14.3386 9.3321 13.5948 10.2787 13.1815 10.9234H13.2024V9.55389H10.0629C10.1038 10.44 10.0626 19 10.0626 19L10.0627 18.9997Z" fill="#0B1918"/>
<path d="M8.32481 18.9997V9.55356H5.18507V18.9997H8.32514H8.32481ZM6.75559 8.26408C7.85026 8.26408 8.53176 7.53873 8.53176 6.63224C8.51127 5.70511 7.85026 5 6.77641 5C5.70183 5 5 5.70511 5 6.63216C5 7.53864 5.68126 8.26399 6.73502 8.26399H6.75535L6.75559 8.26408ZM10.0627 18.9997H13.2022V13.7251C13.2022 13.4432 13.2227 13.1605 13.3056 12.9591C13.5325 12.3948 14.0491 11.8107 14.9166 11.8107C16.0525 11.8107 16.5071 12.6768 16.5071 13.9468V18.9997H19.6465V13.5836C19.6465 10.6822 18.0978 9.3321 16.0321 9.3321C14.3386 9.3321 13.5948 10.2787 13.1815 10.9234H13.2024V9.55389H10.0629C10.1038 10.44 10.0626 19 10.0626 19L10.0627 18.9997Z" fill="#09131A"/>
</svg>
