<svg width="25" height="25" viewBox="0 0 25 25" fill="none" xmlns="http://www.w3.org/2000/svg">
<path fill-rule="evenodd" clip-rule="evenodd" d="M2.85986 6.91064C2.85986 6.35836 3.30758 5.91064 3.85986 5.91064H21.8599C22.4121 5.91064 22.8599 6.35836 22.8599 6.91064C22.8599 7.46293 22.4121 7.91064 21.8599 7.91064H3.85986C3.30758 7.91064 2.85986 7.46293 2.85986 6.91064ZM2.85986 12.9106C2.85986 12.3584 3.30758 11.9106 3.85986 11.9106H21.8599C22.4121 11.9106 22.8599 12.3584 22.8599 12.9106C22.8599 13.4629 22.4121 13.9106 21.8599 13.9106H3.85986C3.30758 13.9106 2.85986 13.4629 2.85986 12.9106ZM3.85986 17.9106C3.30758 17.9106 2.85986 18.3584 2.85986 18.9106C2.85986 19.4629 3.30758 19.9106 3.85986 19.9106H21.8599C22.4121 19.9106 22.8599 19.4629 22.8599 18.9106C22.8599 18.3584 22.4121 17.9106 21.8599 17.9106H3.85986Z" fill="black"/>
</svg>
