<svg width="21" height="63" viewBox="0 0 21 63" fill="none" xmlns="http://www.w3.org/2000/svg">
<path fill-rule="evenodd" clip-rule="evenodd" d="M6.3823 1.07182C4.41025 1.18445 2.42776 1.29766 0.435738 1.29766C0.195087 1.29766 0 1.10836 0 0.874848C0 0.641332 0.195087 0.452031 0.435738 0.452031C2.40095 0.452031 4.35877 0.340252 6.33598 0.227366C6.48914 0.218622 6.64241 0.209871 6.79581 0.201165C8.92467 0.0803447 11.0759 -0.0316557 13.253 0.00820453C14.0624 0.0230231 15.6803 0.334082 17.2065 0.788222C17.9758 1.01715 18.7398 1.28762 19.383 1.58486C20.0105 1.87483 20.5811 2.2159 20.9046 2.60827C20.9433 2.66371 20.9921 2.79175 21 2.86144C20.9973 2.92154 20.9716 3.02348 20.9527 3.06472C20.912 3.14239 20.8569 3.18704 20.8423 3.19887C20.8049 3.22911 20.7697 3.2468 20.7612 3.25111L20.7606 3.25143C20.7361 3.26379 20.713 3.2728 20.7022 3.27693C20.6757 3.28714 20.6428 3.29842 20.6089 3.30962C20.5388 3.33281 20.4381 3.36424 20.3131 3.4022C20.0618 3.47848 19.7007 3.58464 19.2621 3.71096C18.3846 3.96372 17.1918 4.29869 15.9381 4.63949C13.4511 5.31554 10.6642 6.03141 9.66455 6.15266C9.05966 6.22602 8.14013 6.32241 7.15149 6.42473C7.24504 6.43108 7.33856 6.43746 7.43204 6.44382L7.46019 6.44574C9.09156 6.55688 10.7122 6.66665 12.3299 6.66665C12.7455 6.66665 13.0939 6.81905 13.3246 7.12633C13.5359 7.40781 13.61 7.76939 13.6242 8.12465C13.6526 8.83691 13.4457 9.76146 13.1826 10.6753C12.9805 11.377 12.7343 12.1075 12.5101 12.7724C12.4394 12.9822 12.3709 13.1854 12.3067 13.3792C12.1714 13.7873 12.0553 14.1523 11.9732 14.4569C11.8884 14.7719 11.8507 14.985 11.8507 15.1044C11.8507 18.4894 11.5079 21.8747 11.1666 25.2461L11.1624 25.2873C10.819 28.6794 10.4783 32.0579 10.4783 35.4499V50.3452C10.4783 52.3746 10.704 54.3827 10.9332 56.4169L10.9346 56.4296C11.1625 58.4522 11.3932 60.5007 11.3932 62.5772C11.3932 62.8107 11.1981 63 10.9575 63C10.7168 63 10.5218 62.8107 10.5218 62.5772C10.5218 60.5501 10.296 58.5431 10.0669 56.5088L10.0658 56.4994C9.83783 54.4757 9.60682 52.425 9.60682 50.3452V35.4499C9.60682 32.0097 9.95234 28.59 10.2951 25.2046L10.2972 25.1839C10.64 21.7986 10.9792 18.4479 10.9792 15.1044C10.9792 14.8668 11.0443 14.5617 11.1301 14.2431C11.2187 13.9143 11.3411 13.5304 11.4771 13.1202C11.544 12.9182 11.6144 12.7095 11.6863 12.4962C11.9092 11.8348 12.1469 11.1299 12.3433 10.4477C12.6057 9.53626 12.776 8.7248 12.7534 8.15737C12.742 7.87278 12.6835 7.70859 12.6202 7.62426C12.5763 7.56573 12.5079 7.51229 12.3299 7.51229C10.6766 7.51229 9.02565 7.40011 7.39915 7.2893L7.38623 7.28842C5.75892 7.17755 4.15655 7.06839 2.57059 7.06839C2.41954 7.06839 2.29794 7.06593 2.2068 7.06046C2.16197 7.05777 2.11639 7.05391 2.07476 7.04763C2.05405 7.04451 2.02744 7.03979 1.99885 7.03223C1.97662 7.02634 1.92253 7.01111 1.8648 6.97583C1.82055 6.94879 1.65024 6.83177 1.65608 6.60068C1.66126 6.39541 1.80642 6.2868 1.83301 6.26712C1.90597 6.21312 1.98629 6.18922 2.00872 6.18254C2.00957 6.18229 2.01034 6.18206 2.01103 6.18185C2.0808 6.16091 2.17225 6.14287 2.26489 6.12683C2.64705 6.06066 3.396 5.97183 4.27304 5.87603C5.00756 5.79579 5.83852 5.70996 6.64338 5.62682C7.78249 5.50916 8.86932 5.3969 9.55645 5.31355C10.4749 5.20215 13.1834 4.51012 15.703 3.82521C16.9526 3.48553 18.141 3.15176 19.0141 2.90028C19.2665 2.82761 19.492 2.76193 19.6848 2.70506C19.4967 2.58925 19.2704 2.46947 19.0083 2.34834C18.4162 2.07472 17.6954 1.81821 16.951 1.5967C15.4496 1.14995 13.9239 0.86627 13.2366 0.853687C11.0971 0.814517 8.97675 0.924468 6.8467 1.04536C6.69196 1.05414 6.53716 1.06298 6.3823 1.07182ZM20.3809 2.49088C20.381 2.49084 20.3808 2.49091 20.3809 2.49088ZM2.26861 6.98971C2.26949 6.98944 2.2705 6.98915 2.27163 6.98884C2.26215 6.99229 2.25988 6.99233 2.26861 6.98971Z" fill="currentColor"/>
</svg>
