<svg width="42" height="129" viewBox="0 0 42 129" fill="none" xmlns="http://www.w3.org/2000/svg">
<path fill-rule="evenodd" clip-rule="evenodd" d="M12.7646 2.19468C8.8205 2.42529 4.85551 2.65712 0.871476 2.65712C0.390173 2.65712 0 2.26951 0 1.79135C0 1.3132 0.390173 0.925587 0.871476 0.925587C4.8019 0.925587 8.71754 0.696707 12.672 0.465559C12.9783 0.447654 13.2848 0.429736 13.5916 0.411909C17.8493 0.164515 22.1518 -0.0648189 26.5061 0.0167997C28.1249 0.0471425 31.3606 0.684073 34.413 1.61398C35.9516 2.08273 37.4796 2.63656 38.766 3.2452C40.0209 3.83893 41.1621 4.53731 41.8091 5.34075C41.8866 5.45427 41.9842 5.71644 42 5.85914C41.9945 5.9822 41.9431 6.19094 41.9054 6.27539C41.824 6.43443 41.7139 6.52584 41.6846 6.55006C41.6097 6.61199 41.5395 6.64822 41.5224 6.65703L41.5211 6.65769C41.4722 6.683 41.4259 6.70145 41.4045 6.7099C41.3514 6.73082 41.2857 6.7539 41.2179 6.77684C41.0775 6.82432 40.8762 6.88867 40.6261 6.96641C40.1237 7.1226 39.4013 7.33999 38.5242 7.59862C36.7691 8.11619 34.3837 8.80209 31.8763 9.49992C26.9022 10.8842 21.3284 12.35 19.3291 12.5983C18.1193 12.7485 16.2803 12.9459 14.303 13.1554C14.4901 13.1684 14.6771 13.1815 14.8641 13.1945L14.9204 13.1984C18.1831 13.426 21.4244 13.6508 24.6598 13.6508C25.491 13.6508 26.1878 13.9628 26.6492 14.592C27.0718 15.1684 27.22 15.9088 27.2484 16.6362C27.3052 18.0946 26.8915 19.9878 26.3652 21.8589C25.9611 23.2959 25.4686 24.7915 25.0203 26.153C24.8788 26.5825 24.7418 26.9987 24.6133 27.3954C24.3427 28.2311 24.1106 28.9785 23.9465 29.6023C23.7768 30.2473 23.7014 30.6835 23.7014 30.928C23.7014 37.8592 23.0159 44.7911 22.3332 51.6944L22.3248 51.7788C21.6379 58.7244 20.9566 65.6424 20.9566 72.5878V103.088C20.9566 107.243 21.408 111.355 21.8664 115.52L21.8692 115.546C22.3249 119.688 22.7865 123.882 22.7865 128.134C22.7865 128.612 22.3963 129 21.915 129C21.4337 129 21.0435 128.612 21.0435 128.134C21.0435 123.984 20.592 119.874 20.1337 115.709L20.1316 115.689C19.6757 111.546 19.2136 107.346 19.2136 103.088V72.5878C19.2136 65.5436 19.9047 58.5415 20.5902 51.6095L20.5944 51.5671C21.2799 44.6352 21.9584 37.7742 21.9584 30.928C21.9584 30.4415 22.0886 29.8167 22.2602 29.1645C22.4373 28.4911 22.6821 27.7051 22.9541 26.8651C23.0881 26.4515 23.2288 26.0241 23.3725 25.5875C23.8185 24.2331 24.2937 22.7898 24.6866 21.3929C25.2115 19.5266 25.552 17.8651 25.5067 16.7032C25.484 16.1205 25.367 15.7843 25.2404 15.6116C25.1525 15.4917 25.0159 15.3823 24.6598 15.3823C21.3532 15.3823 18.0513 15.1526 14.7983 14.9257L14.7725 14.9239C11.5178 14.6969 8.3131 14.4734 5.14117 14.4734C4.83909 14.4734 4.59588 14.4683 4.41361 14.4571C4.32393 14.4516 4.23278 14.4437 4.14952 14.4309C4.10809 14.4245 4.05487 14.4148 3.99771 14.3993C3.95324 14.3873 3.84506 14.3561 3.7296 14.2838C3.64109 14.2285 3.30049 13.9889 3.31216 13.5157C3.32253 13.0954 3.61283 12.873 3.66602 12.8327C3.81194 12.7221 3.97259 12.6732 4.01743 12.6595C4.01915 12.659 4.02069 12.6585 4.02206 12.6581C4.16159 12.6152 4.3445 12.5782 4.52979 12.5454C5.2941 12.4099 6.792 12.228 8.54609 12.0319C10.0151 11.8676 11.677 11.6918 13.2868 11.5216C15.565 11.2807 17.7386 11.0508 19.1129 10.8801C20.9499 10.652 26.3668 9.23501 31.4061 7.83257C33.9053 7.13704 36.2821 6.4536 38.0283 5.93867C38.5329 5.78986 38.984 5.65538 39.3696 5.53893C38.9934 5.3018 38.5408 5.05653 38.0166 4.8085C36.8324 4.24823 35.3908 3.72301 33.902 3.26942C30.8993 2.35466 27.8477 1.77379 26.4732 1.74803C22.1943 1.66782 17.9535 1.89296 13.6934 2.14049C13.3839 2.15847 13.0743 2.17657 12.7646 2.19468ZM40.7618 5.10036C40.762 5.1003 40.7617 5.10043 40.7618 5.10036ZM4.53722 14.3123C4.53898 14.3117 4.54099 14.3111 4.54325 14.3105C4.5243 14.3176 4.51976 14.3176 4.53722 14.3123Z" fill="black"/>
</svg>
