<svg width="75" height="75" viewBox="0 0 75 75" fill="none" xmlns="http://www.w3.org/2000/svg">
<path fill-rule="evenodd" clip-rule="evenodd" d="M37.996 47.7614C37.6561 47.7604 37.3165 47.6302 37.0572 47.3709L27.6291 37.9428C27.1084 37.4221 27.1084 36.5779 27.6291 36.0572C28.1498 35.5365 28.994 35.5365 29.5147 36.0572L36.6667 43.2091V27.5719C36.6667 26.8355 37.2636 26.2385 38 26.2385C38.7364 26.2385 39.3333 26.8355 39.3333 27.5719V43.2091L46.4853 36.0572C47.006 35.5365 47.8502 35.5365 48.3709 36.0572C48.8916 36.5779 48.8916 37.4221 48.3709 37.9428L38.9435 47.3702L38.94 47.3737C38.6837 47.6284 38.3573 47.7625 37.996 47.7614Z" fill="black"/>
<g>
<animateTransform attributeName="transform" type="rotate" begin="0s" dur="7s" from="0 37 37" to="360 37 37" repeatCount="indefinite"></animateTransform>
<path d="M44.717 9.17897C45.108 9.64166 45.6531 9.97403 46.3525 10.1761C47.0442 10.3759 47.6371 10.3848 48.131 10.2028C48.6326 10.0229 48.9634 9.65633 49.1232 9.10296C49.2276 8.74173 49.2159 8.42192 49.0882 8.14353C48.9681 7.86735 48.7633 7.62499 48.4738 7.41645C48.1942 7.20244 47.8646 7.00312 47.4849 6.81848L47.0356 6.60122C46.6998 6.4376 46.4421 6.26321 46.2624 6.07807C46.0926 5.88746 46.0466 5.65766 46.1243 5.38866C46.2043 5.11197 46.3757 4.93666 46.6385 4.86271C46.9036 4.78107 47.2283 4.79577 47.6126 4.90679C47.9968 5.01781 48.2952 5.19561 48.5077 5.4402C48.7224 5.67709 48.8054 6.0092 48.7569 6.43652L49.6733 6.46395C49.709 5.90802 49.5681 5.43014 49.2506 5.0303C48.943 4.625 48.4703 4.33021 47.8324 4.14591C47.1868 3.95939 46.6269 3.95169 46.1528 4.12282C45.6787 4.29395 45.3683 4.63314 45.2218 5.14039C45.1241 5.47856 45.1314 5.78463 45.2438 6.05858C45.3562 6.33254 45.5434 6.57814 45.8054 6.79539C46.0673 7.01265 46.3701 7.2042 46.7135 7.37005L47.1629 7.5873C47.548 7.78184 47.8381 7.97391 48.0332 8.16349C48.2381 8.34761 48.2984 8.5857 48.214 8.87775C48.1319 9.16212 47.9434 9.35332 47.6486 9.45135C47.3538 9.54938 46.9951 9.53734 46.5723 9.41521C46.288 9.33306 46.0312 9.21307 45.802 9.05525C45.5827 8.89197 45.4185 8.68214 45.3093 8.42578C45.2024 8.16173 45.1715 7.83637 45.2166 7.44969L44.2954 7.39588C44.1932 8.12414 44.3338 8.7185 44.717 9.17897Z" fill="black"/>
<path d="M30.3585 7.78588C30.1036 7.85439 29.8524 7.85976 29.6049 7.802C29.3631 7.73443 29.1524 7.61296 28.9727 7.43757C28.793 7.26219 28.6689 7.04702 28.6004 6.79206C28.5298 6.52938 28.5283 6.27713 28.5959 6.03531C28.6635 5.79349 28.786 5.58662 28.9634 5.41468C29.1388 5.23501 29.3579 5.10989 29.6205 5.0393C29.8832 4.96872 30.1355 4.96721 30.3773 5.03477C30.6248 5.09254 30.8345 5.21015 31.0064 5.38761C31.1861 5.56299 31.3112 5.78203 31.3818 6.04471C31.4524 6.30739 31.4539 6.55964 31.3863 6.80146C31.3187 7.04328 31.1924 7.25119 31.0072 7.42521C30.8297 7.59715 30.6135 7.71737 30.3585 7.78588Z" fill="black"/>
<path d="M11.7674 14.4915L16.0402 18.5135L16.6899 17.8232L14.5404 15.7998C14.0103 15.3008 13.7319 14.7971 13.7052 14.2885C13.684 13.7742 13.8681 13.3102 14.2574 12.8966C14.5974 12.5354 14.9622 12.3405 15.3518 12.3117C15.7469 12.2771 16.1571 12.46 16.5823 12.8603L19.1163 15.2455L19.7661 14.5552L17.1797 12.1206C16.7952 11.7587 16.4006 11.5301 15.9959 11.4348C15.5912 11.3395 15.2012 11.357 14.826 11.4872C14.4562 11.6116 14.1206 11.8339 13.819 12.1543C13.4077 12.5912 13.1796 13.0028 13.1347 13.389C13.0895 13.7639 13.1249 14.0939 13.2411 14.379L13.1259 14.5013L12.4007 13.8186L11.7674 14.4915Z" fill="black"/>
<path d="M12.1626 24.5358L6.43621 22.7965L6.89028 21.9507L11.9598 23.5689L12.0392 23.4209L8.03678 19.815L8.78031 18.4299L13.9974 19.7733L14.0768 19.6253L9.92682 16.2942L10.3809 15.4484L14.9948 19.26L14.2286 20.6873L9.0058 19.3546L8.93202 19.492L12.9288 23.1085L12.1626 24.5358Z" fill="black"/>
<path fill-rule="evenodd" clip-rule="evenodd" d="M9.90977 30.5517C10.2553 30.1643 10.4955 29.6824 10.6306 29.106C10.7657 28.5296 10.7636 27.995 10.6243 27.5023C10.4869 27.0017 10.2284 26.5796 9.84877 26.2359C9.4632 25.8826 8.97054 25.6357 8.37078 25.4952L8.2189 25.4596C7.62693 25.3209 7.07976 25.3241 6.57738 25.4694C6.07683 25.6068 5.6538 25.8692 5.30831 26.2566C4.96464 26.6362 4.72528 27.1142 4.59021 27.6906C4.45515 28.267 4.45634 28.8054 4.59376 29.306C4.73301 29.7987 4.99542 30.2218 5.38099 30.5751C5.76838 30.9205 6.25806 31.1626 6.85003 31.3014L7.00192 31.337C7.60167 31.4775 8.15182 31.479 8.65238 31.3416C9.14697 31.1946 9.5661 30.9313 9.90977 30.5517ZM9.56805 27.3287C9.86576 27.7764 9.94343 28.3041 9.80107 28.9116C9.66053 29.5114 9.35654 29.9496 8.8891 30.2262C8.41386 30.501 7.84911 30.5618 7.19483 30.4085L7.08968 30.3838C6.4354 30.2305 5.96032 29.9261 5.66444 29.4706C5.36077 29.0133 5.27921 28.4847 5.41974 27.885C5.56211 27.2774 5.86999 26.8401 6.3434 26.5731C6.81084 26.2964 7.37171 26.2348 8.02598 26.3881L8.13113 26.4127C8.78541 26.566 9.26439 26.8714 9.56805 27.3287Z" fill="black"/>
<path fill-rule="evenodd" clip-rule="evenodd" d="M9.61137 36.0404C9.61821 36.5444 9.50452 37.01 9.2703 37.4372C9.03608 37.8644 8.69268 38.2051 8.24008 38.4593C7.78749 38.7134 7.24923 38.8448 6.62529 38.8532L6.4693 38.8554C5.84536 38.8638 5.30772 38.7471 4.8564 38.5052C4.39707 38.2634 4.0446 37.9362 3.79897 37.5235C3.54523 37.1029 3.41489 36.6366 3.40794 36.1247C3.4024 35.7167 3.45372 35.372 3.56191 35.0905C3.66199 34.8011 3.79483 34.5673 3.96042 34.389C4.11802 34.2109 4.28816 34.0725 4.47084 33.974L4.46855 33.8061L1.01287 33.853L1 32.9051L9.39923 32.791L9.41177 33.7149L8.43986 33.7281L8.44214 33.8961C8.74029 34.0521 9.00763 34.2965 9.24417 34.6293C9.48071 34.9621 9.60311 35.4325 9.61137 36.0404ZM8.76802 35.7999C8.75977 35.1919 8.5611 34.7026 8.17203 34.3318C7.77486 33.9532 7.2283 33.7686 6.53236 33.778L6.42437 33.7795C5.72844 33.789 5.19109 33.9883 4.81234 34.3774C4.42549 34.7587 4.23618 35.2534 4.24444 35.8613C4.25259 36.4612 4.4553 36.9545 4.85259 37.3412C5.24177 37.7199 5.78433 37.9046 6.48026 37.8951L6.58825 37.8937C7.28419 37.8842 7.82553 37.6848 8.21228 37.2956C8.59092 36.8984 8.77617 36.3998 8.76802 35.7999Z" fill="black"/>
<path d="M3.62252 50.072L11.4258 46.9625L11.0749 46.0818L3.27159 49.1913L3.62252 50.072Z" fill="black"/>
<path d="M13.2622 50.7425L6.01125 54.9832L5.53265 54.1649L12.7836 49.9242L13.2622 50.7425Z" fill="black"/>
<path fill-rule="evenodd" clip-rule="evenodd" d="M16.6221 55.6661C16.5048 55.1604 16.2496 54.6863 15.8566 54.2436C15.4635 53.8009 15.0256 53.4944 14.5427 53.324C14.0544 53.1477 13.5605 53.1155 13.0608 53.2275C12.5499 53.3389 12.0641 53.599 11.6035 54.008L11.4868 54.1116C11.0321 54.5152 10.7193 54.9642 10.5483 55.4584C10.372 55.9466 10.3424 56.4435 10.4598 56.9492C10.5718 57.4488 10.8243 57.92 11.2173 58.3627C11.6104 58.8054 12.051 59.1149 12.5392 59.2912C13.0221 59.4616 13.519 59.4911 14.03 59.3797C14.5357 59.2624 15.0158 59.0019 15.4705 58.5983L15.5871 58.4947C16.0477 58.0857 16.3662 57.6371 16.5426 57.1489C16.7076 56.66 16.7341 56.1658 16.6221 55.6661ZM13.7918 54.087C14.3293 54.1019 14.8052 54.3426 15.2195 54.8093C15.6285 55.2699 15.8112 55.7709 15.7677 56.3124C15.7182 56.8591 15.4423 57.3556 14.9397 57.8017L14.859 57.8734C14.3565 58.3196 13.8338 58.5322 13.2911 58.5113C12.7423 58.4958 12.2634 58.2576 11.8544 57.797C11.4401 57.3304 11.2604 56.8267 11.3152 56.2859C11.3587 55.7445 11.6317 55.2507 12.1342 54.8045L12.2149 54.7328C12.7174 54.2867 13.2431 54.0714 13.7918 54.087Z" fill="black"/>
<path d="M21.4589 59.6439L18.0061 64.3885L17.2589 63.8448L17.6826 63.2626L17.5468 63.1638C17.312 63.3096 17.072 63.3674 16.8268 63.3374C16.5815 63.3073 16.3166 63.1887 16.032 62.9816L15.4692 62.5721L15.9776 61.8735L16.5889 62.3183C16.9317 62.5678 17.2805 62.6732 17.6351 62.6345C17.9786 62.5975 18.2963 62.3785 18.5882 61.9775L20.6923 59.086L21.4589 59.6439Z" fill="black"/>
<path d="M26.4723 62.6287C26.1511 62.2257 25.7305 61.9101 25.2104 61.6818C24.6976 61.4568 24.2199 61.3608 23.7773 61.3938C23.3275 61.4236 22.9272 61.5493 22.5766 61.7711C22.2259 61.9929 21.9331 62.262 21.6982 62.5783L22.4734 63.1411C22.7193 62.7598 23.0462 62.4926 23.4541 62.3396C23.8546 62.1834 24.3223 62.2226 24.8571 62.4572C25.216 62.6147 25.503 62.8367 25.718 63.1233C25.9257 63.4066 26.0479 63.7354 26.0846 64.1097C26.114 64.4807 26.037 64.8751 25.8538 65.2926L25.8104 65.3915C25.6272 65.8091 25.3891 66.1327 25.0962 66.3624C24.7959 66.5888 24.4712 66.7215 24.1221 66.7606C23.7657 66.7964 23.408 66.7355 23.049 66.578C22.6974 66.4237 22.4296 66.2276 22.2457 65.9897C22.0618 65.7518 21.9521 65.494 21.9167 65.2163C21.8739 64.9355 21.8921 64.6552 21.9712 64.3754L21.0479 64.1799C20.949 64.5646 20.9367 64.9611 21.0109 65.3693C21.0778 65.7743 21.2527 66.1524 21.5354 66.5036C21.8108 66.8516 22.2049 67.138 22.7177 67.363C23.2378 67.5913 23.7565 67.6834 24.2737 67.6395C24.7804 67.5998 25.2462 67.4241 25.6712 67.1126C26.0856 66.8052 26.4198 66.3622 26.6737 65.7834L26.7268 65.6625C26.9775 65.0911 27.0772 64.5452 27.026 64.0248C26.9675 63.5011 26.7829 63.0358 26.4723 62.6287Z" fill="black"/>
<path d="M33.1142 64.6795C32.6782 64.2591 32.1019 63.984 31.3856 63.8544C30.6771 63.7261 30.0865 63.7777 29.6137 64.0092C29.133 64.2392 28.8414 64.6377 28.7387 65.2044C28.6718 65.5744 28.716 65.8914 28.8715 66.1553C29.0191 66.4178 29.2475 66.638 29.5568 66.8159C29.8567 67.0003 30.205 67.165 30.6015 67.3099L31.0706 67.4802C31.4214 67.6088 31.6955 67.756 31.8931 67.9218C32.0815 68.0941 32.1507 68.318 32.1008 68.5936C32.0495 68.877 31.8969 69.0688 31.6429 69.1692C31.3876 69.2774 31.0631 69.2959 30.6695 69.2247C30.2759 69.1534 29.9609 69.007 29.7246 68.7853C29.4869 68.5716 29.3704 68.2497 29.3751 67.8196L28.4607 67.8858C28.4818 68.4425 28.6707 68.9035 29.0273 69.2689C29.3747 69.6407 29.875 69.8857 30.5284 70.004C31.1896 70.1237 31.7474 70.0743 32.2016 69.8557C32.6558 69.6371 32.9299 69.268 33.024 68.7485C33.0867 68.4021 33.0482 68.0984 32.9084 67.8373C32.7687 67.5763 32.5574 67.351 32.2747 67.1616C31.9919 66.9722 31.6712 66.8125 31.3126 66.6826L30.8434 66.5123C30.4405 66.358 30.1323 66.1966 29.9189 66.0279C29.6963 65.8656 29.612 65.6349 29.6662 65.3358C29.7189 65.0445 29.8869 64.8351 30.1702 64.7075C30.4534 64.5799 30.8115 64.5553 31.2445 64.6337C31.5358 64.6864 31.8034 64.7796 32.0475 64.9132C32.2824 65.0533 32.4671 65.2453 32.6018 65.4892C32.7351 65.7409 32.799 66.0614 32.7936 66.4507L33.7155 66.4103C33.7429 65.6754 33.5425 65.0985 33.1142 64.6795Z" fill="black"/>
<path d="M52.274 12.967C51.7798 12.687 51.3936 12.3301 51.1152 11.8965C50.8477 11.4598 50.7116 10.978 50.7068 10.4511C50.7089 9.9282 50.8638 9.3953 51.1715 8.85243L51.2366 8.73759C51.5482 8.18776 51.9258 7.78108 52.3694 7.51756C52.8239 7.25102 53.3052 7.1238 53.8133 7.1359C54.3323 7.14499 54.8389 7.28957 55.3331 7.56964C55.8202 7.84576 56.1831 8.17094 56.4216 8.54519C56.667 8.92338 56.8023 9.31733 56.8276 9.72706C56.8598 10.1407 56.8071 10.5339 56.6695 10.9064L55.771 10.6179C55.8782 10.3476 55.9248 10.0706 55.9109 9.78684C55.904 9.50704 55.8212 9.23942 55.6625 8.98397C55.5038 8.72852 55.2575 8.50612 54.9234 8.31678C54.5824 8.12349 54.2327 8.02649 53.8745 8.02576C53.5233 8.02899 53.1867 8.12791 52.8649 8.32254C52.5501 8.52111 52.2802 8.81876 52.0554 9.21547L52.0021 9.30943C51.7773 9.70614 51.6606 10.0906 51.6519 10.4627C51.6503 10.8388 51.7383 11.1783 51.916 11.4813C52.1007 11.7883 52.3635 12.0384 52.7045 12.2317C53.2126 12.5197 53.6738 12.6064 54.0882 12.4918C54.5095 12.3811 54.862 12.1487 55.1455 11.7944L55.8592 12.4334C55.5933 12.7241 55.2746 12.9619 54.9032 13.1468C54.5317 13.3317 54.1207 13.416 53.6702 13.3997C53.2266 13.3874 52.7612 13.2431 52.274 12.967Z" fill="black"/>
<path d="M59.7168 11.0092L55.7981 15.377L56.5037 16.01L58.8918 13.3483C59.223 12.9791 59.5614 12.7936 59.9069 12.7919C60.2636 12.7896 60.5998 12.93 60.9154 13.2131L61.4782 13.718L62.0551 13.0749L61.5371 12.6101C61.2751 12.375 61.0236 12.23 60.7827 12.1751C60.5418 12.1202 60.2971 12.1532 60.0488 12.2743L59.9237 12.1622L60.4045 11.6262L59.7168 11.0092Z" fill="black"/>
<path fill-rule="evenodd" clip-rule="evenodd" d="M60.8205 21.3204C60.4746 20.8399 60.2691 20.3422 60.204 19.8272C60.1435 19.3188 60.2203 18.8298 60.4343 18.3603C60.6595 17.8926 61.0221 17.4788 61.5221 17.1189L61.6487 17.0278C62.1421 16.6726 62.6463 16.4624 63.1613 16.3973C63.681 16.3386 64.1723 16.4187 64.6353 16.6374C65.103 16.8626 65.5097 17.2154 65.8556 17.6959C66.2015 18.1763 66.4046 18.6708 66.4651 19.1793C66.5302 19.6943 66.4502 20.1856 66.225 20.6533C66.0044 21.1274 65.6474 21.5421 65.154 21.8973L65.0274 21.9885C64.5274 22.3484 64.0177 22.5576 63.498 22.6163C62.9895 22.6767 62.5014 22.5943 62.0338 22.3691C61.5708 22.1504 61.1663 21.8009 60.8205 21.3204ZM61.5119 20.8226C61.8765 21.3291 62.3253 21.6171 62.8585 21.6868C63.4028 21.7582 63.9476 21.5977 64.493 21.2051L64.5807 21.142C65.1261 20.7494 65.448 20.286 65.5465 19.7518C65.6561 19.2195 65.5287 18.7001 65.1641 18.1936C64.8042 17.6937 64.3521 17.408 63.8078 17.3365C63.27 17.2604 62.7284 17.4186 62.183 17.8112L62.0954 17.8743C61.55 18.2669 61.2248 18.7326 61.1198 19.2715C61.0214 19.8056 61.1521 20.3227 61.5119 20.8226Z" fill="black"/>
<path d="M70.6899 21.5886L63.0443 25.0678L63.4369 25.9306L71.0826 22.4515L70.6899 21.5886Z" fill="black"/>
<path d="M64.4856 29.0154L72.5653 26.7179L72.8246 27.6297L64.7449 29.9272L64.4856 29.0154Z" fill="black"/>
<path fill-rule="evenodd" clip-rule="evenodd" d="M65.6585 38.7108C65.3819 39.1119 65.2214 39.5635 65.1768 40.0655C65.123 40.6711 65.1968 41.1515 65.3982 41.5067C65.5995 41.8619 65.8405 42.1323 66.1212 42.3179L66.1064 42.4852L65.1382 42.3992L65.0564 43.3196L73.4235 44.0627L73.5074 43.1184L70.0649 42.8127L70.0798 42.6454C70.2716 42.566 70.4549 42.4458 70.6299 42.2846C70.8128 42.1242 70.9688 41.9051 71.0978 41.6274C71.2342 41.3584 71.3204 41.0207 71.3565 40.6143C71.4017 40.1043 71.3196 39.6272 71.1101 39.1829C70.9079 38.7473 70.5906 38.3858 70.1583 38.0985C69.734 37.8118 69.2111 37.6409 68.5895 37.5857L68.4341 37.5719C67.8126 37.5167 67.2637 37.5924 66.7876 37.7991C66.3114 38.0058 65.9351 38.3097 65.6585 38.7108ZM66.4344 41.912C66.0851 41.5035 65.9374 40.9964 65.9912 40.3908C66.0443 39.7932 66.2794 39.3161 66.6966 38.9596C67.121 38.6118 67.6799 38.4687 68.3731 38.5303L68.4807 38.5398C69.174 38.6014 69.6949 38.8404 70.0434 39.2569C70.3992 39.682 70.5505 40.1934 70.4975 40.791C70.4437 41.3967 70.2049 41.8694 69.7812 42.2092C69.3647 42.5578 68.8099 42.7012 68.1166 42.6397L68.009 42.6301C67.3157 42.5685 66.7909 42.3292 66.4344 41.912Z" fill="black"/>
<path fill-rule="evenodd" clip-rule="evenodd" d="M63.4557 46.8599C63.6488 46.3003 63.937 45.8454 64.3202 45.4953C64.7008 45.1527 65.1446 44.9335 65.6516 44.8376C66.1635 44.752 66.7106 44.8096 67.2929 45.0106L67.4404 45.0615C68.0151 45.2599 68.4776 45.5506 68.8277 45.9338C69.1752 46.3246 69.3932 46.7722 69.4814 47.2766C69.5671 47.7885 69.5134 48.3243 69.3202 48.8839C69.1271 49.4435 68.8402 49.8946 68.4596 50.2372C68.0764 50.5873 67.6288 50.8052 67.1169 50.8909C66.6023 50.9841 66.0577 50.9316 65.4829 50.7332L65.3355 50.6823C64.7532 50.4813 64.2883 50.1855 63.9407 49.7947C63.5982 49.4141 63.384 48.9679 63.2984 48.4559C63.2101 47.9515 63.2625 47.4195 63.4557 46.8599ZM64.2611 47.1379C64.0575 47.7277 64.0809 48.2605 64.3314 48.7363C64.5869 49.2222 65.0322 49.5748 65.6674 49.794L65.7695 49.8293C66.4048 50.0485 66.969 50.0443 67.4622 49.8168C67.9604 49.5994 68.3112 49.1958 68.5148 48.606C68.7158 48.0237 68.6886 47.4896 68.4331 47.0036C68.1852 46.5203 67.7437 46.169 67.1084 45.9498L67.0063 45.9146C66.3711 45.6953 65.8031 45.6982 65.3023 45.9231C64.8091 46.1506 64.462 46.5556 64.2611 47.1379Z" fill="black"/>
<path d="M66.9847 53.5642L61.4656 51.25L60.5578 52.5917L64.165 56.597L64.0775 56.7262L59.0179 54.8678L58.1101 56.2095L62.3113 60.4718L62.8492 59.6766L59.0605 55.9398L59.1547 55.8006L64.2076 57.669L65.0885 56.367L61.4746 52.3717L61.5687 52.2325L66.4468 54.3593L66.9847 53.5642Z" fill="black"/>
<path d="M56.9941 56.8455L60.8345 61.2823L60.1358 61.887L59.484 61.1339L59.357 61.2439C59.4434 61.5393 59.445 61.8713 59.3618 62.2396C59.2777 62.6192 59.0089 63.0053 58.5552 63.398C58.2225 63.686 57.8659 63.8729 57.4854 63.959C57.0988 64.0502 56.7091 64.0278 56.3162 63.8917C55.9234 63.7557 55.5542 63.488 55.2086 63.0888L52.884 60.4031L53.6007 59.7827L55.8783 62.4139C56.2605 62.8555 56.6499 63.0792 57.0464 63.0851C57.437 63.0962 57.8197 62.9395 58.1948 62.6149C58.6242 62.2431 58.8546 61.8004 58.886 61.2865C58.9113 60.7779 58.6857 60.2484 58.2093 59.6979L56.2773 57.4659L56.9941 56.8455Z" fill="black"/>
<path d="M42.4077 66.1178C42.1674 66.0351 41.917 66.0148 41.6563 66.057C41.3957 66.0991 41.1684 66.1967 40.9743 66.3496C40.7724 66.5039 40.6254 66.6978 40.5336 66.9315C40.4417 67.1651 40.4175 67.4162 40.4609 67.6847C40.5043 67.9532 40.6065 68.1839 40.7673 68.3767C40.9202 68.5708 41.1169 68.7091 41.3571 68.7918C41.5908 68.8837 41.8419 68.9079 42.1104 68.8645C42.3789 68.8211 42.6096 68.7189 42.8024 68.5581C42.9964 68.4052 43.1394 68.2119 43.2313 67.9782C43.3232 67.7445 43.3474 67.4934 43.304 67.2249C43.2618 66.9643 43.1603 66.7376 42.9995 66.5448C42.8386 66.352 42.6414 66.2097 42.4077 66.1178Z" fill="black"/>
</g>
</svg>
