<svg width="1200" height="630" viewBox="0 0 1200 630" fill="none" xmlns="http://www.w3.org/2000/svg">
<rect width="1200" height="630" fill="white"/>
<g>
<path fill-rule="evenodd" clip-rule="evenodd" d="M605.607 309.337L642.236 345.965C643.792 347.522 643.792 350.044 642.236 351.601C640.68 353.157 638.157 353.157 636.601 351.601L599.972 314.972L605.607 309.337Z" fill="#00B07B"/>
<path fill-rule="evenodd" clip-rule="evenodd" d="M605.607 320.607L568.978 357.236C567.422 358.792 564.899 358.792 563.343 357.236C561.787 355.68 561.787 353.157 563.343 351.601L599.972 314.972L605.607 320.607Z" fill="#00B07B"/>
<path fill-rule="evenodd" clip-rule="evenodd" d="M594.337 320.607L557.708 283.978C556.152 282.422 556.152 279.899 557.708 278.343C559.264 276.787 561.787 276.787 563.343 278.343L599.972 314.972L594.337 320.607Z" fill="#00B07B"/>
<path fill-rule="evenodd" clip-rule="evenodd" d="M594.337 309.337L630.965 272.708C632.522 271.152 635.044 271.152 636.601 272.708C638.157 274.264 638.157 276.787 636.601 278.343L599.972 314.972L594.337 309.337Z" fill="#00B07B"/>
<path fill-rule="evenodd" clip-rule="evenodd" d="M616.877 298.066L653.506 334.695C655.062 336.251 655.062 338.774 653.506 340.33C651.95 341.886 649.427 341.886 647.871 340.33L611.242 303.701L616.877 298.066Z" fill="#00B07B"/>
<path fill-rule="evenodd" clip-rule="evenodd" d="M616.877 331.877L580.249 368.506C578.693 370.062 576.17 370.062 574.613 368.506C573.057 366.95 573.057 364.427 574.613 362.871L611.242 326.242L616.877 331.877Z" fill="#00B07B"/>
<path fill-rule="evenodd" clip-rule="evenodd" d="M583.066 331.877L546.437 295.249C544.881 293.693 544.881 291.17 546.437 289.613C547.994 288.057 550.517 288.057 552.073 289.613L588.701 326.242L583.066 331.877Z" fill="#00B07B"/>
<path fill-rule="evenodd" clip-rule="evenodd" d="M583.066 298.066L619.695 261.437C621.251 259.881 623.774 259.881 625.33 261.437C626.886 262.994 626.886 265.517 625.33 267.073L588.701 303.701L583.066 298.066Z" fill="#00B07B"/>
<path fill-rule="evenodd" clip-rule="evenodd" d="M628.148 286.796L664.777 323.425C666.333 324.981 666.333 327.504 664.777 329.06C663.22 330.616 660.697 330.616 659.141 329.06L622.513 292.431L628.148 286.796Z" fill="#00B07B"/>
<path fill-rule="evenodd" clip-rule="evenodd" d="M628.148 343.148L591.519 379.777C589.963 381.333 587.44 381.333 585.884 379.777C584.328 378.22 584.328 375.697 585.884 374.141L622.513 337.513L628.148 343.148Z" fill="#00B07B"/>
<path fill-rule="evenodd" clip-rule="evenodd" d="M571.796 343.148L535.167 306.519C533.611 304.963 533.611 302.44 535.167 300.884C536.723 299.328 539.246 299.328 540.802 300.884L577.431 337.513L571.796 343.148Z" fill="#00B07B"/>
<path fill-rule="evenodd" clip-rule="evenodd" d="M571.796 286.796L608.425 250.167C609.981 248.611 612.504 248.611 614.06 250.167C615.616 251.723 615.616 254.246 614.06 255.802L577.431 292.431L571.796 286.796Z" fill="#00B07B"/>
<path fill-rule="evenodd" clip-rule="evenodd" d="M605.607 309.337L642.236 345.965C643.792 347.522 643.792 350.044 642.236 351.601C640.68 353.157 638.157 353.157 636.601 351.601L599.972 314.972L605.607 309.337Z" fill="#001A12"/>
<path fill-rule="evenodd" clip-rule="evenodd" d="M605.607 320.607L568.978 357.236C567.422 358.792 564.899 358.792 563.343 357.236C561.787 355.68 561.787 353.157 563.343 351.601L599.972 314.972L605.607 320.607Z" fill="#001A12"/>
<path fill-rule="evenodd" clip-rule="evenodd" d="M594.337 320.607L557.708 283.978C556.152 282.422 556.152 279.899 557.708 278.343C559.264 276.787 561.787 276.787 563.343 278.343L599.972 314.972L594.337 320.607Z" fill="#001A12"/>
<path fill-rule="evenodd" clip-rule="evenodd" d="M616.877 298.066L653.506 334.695C655.062 336.251 655.062 338.774 653.506 340.33C651.95 341.886 649.427 341.886 647.871 340.33L611.242 303.701L616.877 298.066Z" fill="#001A12"/>
<path fill-rule="evenodd" clip-rule="evenodd" d="M616.877 331.877L580.249 368.506C578.693 370.062 576.17 370.062 574.613 368.506C573.057 366.95 573.057 364.427 574.613 362.871L611.242 326.242L616.877 331.877Z" fill="#001A12"/>
<path fill-rule="evenodd" clip-rule="evenodd" d="M583.066 331.877L546.437 295.249C544.881 293.693 544.881 291.17 546.437 289.613C547.994 288.057 550.517 288.057 552.073 289.613L588.701 326.242L583.066 331.877Z" fill="#001A12"/>
<path fill-rule="evenodd" clip-rule="evenodd" d="M628.148 286.796L664.777 323.425C666.333 324.981 666.333 327.504 664.777 329.06C663.22 330.616 660.697 330.616 659.141 329.06L622.513 292.431L628.148 286.796Z" fill="#001A12"/>
<path fill-rule="evenodd" clip-rule="evenodd" d="M628.148 343.148L591.519 379.777C589.963 381.333 587.44 381.333 585.884 379.777C584.328 378.22 584.328 375.697 585.884 374.141L622.513 337.513L628.148 343.148Z" fill="#001A12"/>
<path fill-rule="evenodd" clip-rule="evenodd" d="M571.796 343.148L535.167 306.519C533.611 304.963 533.611 302.44 535.167 300.884C536.723 299.328 539.246 299.328 540.802 300.884L577.431 337.513L571.796 343.148Z" fill="#001A12"/>
<path fill-rule="evenodd" clip-rule="evenodd" d="M605.607 309.337L642.236 345.965C643.792 347.522 643.792 350.044 642.236 351.601C640.68 353.157 638.157 353.157 636.601 351.601L599.972 314.972L605.607 309.337Z" fill="#00B07B"/>
<path fill-rule="evenodd" clip-rule="evenodd" d="M605.607 320.607L568.978 357.236C567.422 358.792 564.899 358.792 563.343 357.236C561.787 355.68 561.787 353.157 563.343 351.601L599.972 314.972L605.607 320.607Z" fill="#00B07B"/>
<path fill-rule="evenodd" clip-rule="evenodd" d="M616.877 298.066L653.506 334.695C655.062 336.251 655.062 338.774 653.506 340.33C651.95 341.886 649.427 341.886 647.871 340.33L611.242 303.701L616.877 298.066Z" fill="#00B07B"/>
<path fill-rule="evenodd" clip-rule="evenodd" d="M616.877 331.877L580.249 368.506C578.693 370.062 576.17 370.062 574.613 368.506C573.057 366.95 573.057 364.427 574.613 362.871L611.242 326.242L616.877 331.877Z" fill="#00B07B"/>
<path fill-rule="evenodd" clip-rule="evenodd" d="M628.148 286.796L664.777 323.425C666.333 324.981 666.333 327.504 664.777 329.06C663.22 330.616 660.697 330.616 659.141 329.06L622.513 292.431L628.148 286.796Z" fill="#00B07B"/>
<path fill-rule="evenodd" clip-rule="evenodd" d="M628.148 343.148L591.519 379.777C589.963 381.333 587.44 381.333 585.884 379.777C584.328 378.22 584.328 375.697 585.884 374.141L622.513 337.513L628.148 343.148Z" fill="#00B07B"/>
<path fill-rule="evenodd" clip-rule="evenodd" d="M605.607 309.337L642.236 345.965C643.792 347.522 643.792 350.044 642.236 351.601C640.68 353.157 638.157 353.157 636.601 351.601L599.972 314.972L605.607 309.337Z" fill="#001A12"/>
<path fill-rule="evenodd" clip-rule="evenodd" d="M616.877 298.066L653.506 334.695C655.062 336.251 655.062 338.774 653.506 340.33C651.95 341.886 649.427 341.886 647.871 340.33L611.242 303.701L616.877 298.066Z" fill="#001A12"/>
<path fill-rule="evenodd" clip-rule="evenodd" d="M628.148 286.796L664.777 323.425C666.333 324.981 666.333 327.504 664.777 329.06C663.22 330.616 660.697 330.616 659.141 329.06L622.513 292.431L628.148 286.796Z" fill="#001A12"/>
<animateTransform 
    attributeName="transform" 
    type="rotate" 
    begin="0s" 
    dur="5s" 
    from="0 600 315" 
    to="360 600 315" 
    values="0 600 315; -20 600 315; 360 600 315; 360 600 315" 
    keytimes="0; 10; 50; 10" 
    repeatCount="indefinite">
</animateTransform>
</g>
</svg>
