<svg width="24" height="24" viewBox="0 0 24 24" fill="none" xmlns="http://www.w3.org/2000/svg">
<g opacity="0.2">
<path d="M12 20.9998C16.9706 20.9998 21 16.9703 21 11.9998C21 7.02919 16.9706 2.99976 12 2.99976C7.02944 2.99976 3 7.02919 3 11.9998C3 16.9703 7.02944 20.9998 12 20.9998Z" fill="#0B1918"/>
<path d="M12 20.9998C16.9706 20.9998 21 16.9703 21 11.9998C21 7.02919 16.9706 2.99976 12 2.99976C7.02944 2.99976 3 7.02919 3 11.9998C3 16.9703 7.02944 20.9998 12 20.9998Z" fill="#09131A"/>
</g>
<path fill-rule="evenodd" clip-rule="evenodd" d="M11.9998 8.99976C10.3429 8.99976 8.99976 10.3429 8.99976 11.9998C8.99976 13.6566 10.3429 14.9998 11.9998 14.9998C13.6566 14.9998 14.9998 13.6566 14.9998 11.9998C14.9998 10.3429 13.6566 8.99976 11.9998 8.99976ZM7.49976 11.9998C7.49976 9.51447 9.51447 7.49976 11.9998 7.49976C14.485 7.49976 16.4998 9.51447 16.4998 11.9998C16.4998 14.485 14.485 16.4998 11.9998 16.4998C9.51447 16.4998 7.49976 14.485 7.49976 11.9998Z" fill="#0B1918"/>
<path fill-rule="evenodd" clip-rule="evenodd" d="M11.9998 8.99976C10.3429 8.99976 8.99976 10.3429 8.99976 11.9998C8.99976 13.6566 10.3429 14.9998 11.9998 14.9998C13.6566 14.9998 14.9998 13.6566 14.9998 11.9998C14.9998 10.3429 13.6566 8.99976 11.9998 8.99976ZM7.49976 11.9998C7.49976 9.51447 9.51447 7.49976 11.9998 7.49976C14.485 7.49976 16.4998 9.51447 16.4998 11.9998C16.4998 14.485 14.485 16.4998 11.9998 16.4998C9.51447 16.4998 7.49976 14.485 7.49976 11.9998Z" fill="#09131A"/>
<path d="M8.66347 4.45386C10.3449 3.7108 12.2262 3.55053 14.0091 3.99847C15.7919 4.44641 17.3741 5.47691 18.5046 6.92645C19.6351 8.37598 20.2492 10.1616 20.2493 11.9998C20.2493 12.9638 20.0717 13.7428 19.753 14.2554C19.4623 14.7231 19.0419 14.9998 18.3743 14.9998C17.7067 14.9998 17.2864 14.7231 16.9957 14.2554C16.677 13.7428 16.4993 12.9638 16.4993 11.9998V8.24976C16.4993 7.83555 16.1635 7.49976 15.7493 7.49976C15.3351 7.49976 14.9993 7.83555 14.9993 8.24976V11.9998C14.9993 13.1068 15.1967 14.2028 15.7218 15.0474C16.2748 15.937 17.1669 16.4998 18.3743 16.4998C19.5817 16.4998 20.4739 15.937 21.0269 15.0474C21.552 14.2028 21.7493 13.1067 21.7493 11.9997C21.7491 9.82724 21.0235 7.71706 19.6875 6.00398C18.3514 4.29091 16.4816 3.07306 14.3746 2.54368C12.2676 2.01431 10.0442 2.20372 8.05714 3.08187C6.07007 3.96001 4.43317 5.4766 3.40617 7.39098C2.37917 9.30536 2.02089 11.5079 2.38819 13.6491C2.75548 15.7903 3.82731 17.7475 5.43361 19.2101C7.0399 20.6728 9.08866 21.5572 11.2548 21.7229C13.4209 21.8886 15.5804 21.3262 17.3905 20.1249C17.7356 19.8958 17.8297 19.4304 17.6006 19.0852C17.3716 18.7401 16.9061 18.646 16.561 18.8751C15.0294 19.8916 13.2021 20.3675 11.3692 20.2272C9.5363 20.087 7.80272 19.3387 6.44352 18.101C5.08433 16.8634 4.17739 15.2073 3.86659 13.3955C3.5558 11.5837 3.85896 9.71997 4.72798 8.10008C5.59699 6.4802 6.98208 5.19692 8.66347 4.45386Z" fill="#0B1918"/>
<path d="M8.66347 4.45386C10.3449 3.7108 12.2262 3.55053 14.0091 3.99847C15.7919 4.44641 17.3741 5.47691 18.5046 6.92645C19.6351 8.37598 20.2492 10.1616 20.2493 11.9998C20.2493 12.9638 20.0717 13.7428 19.753 14.2554C19.4623 14.7231 19.0419 14.9998 18.3743 14.9998C17.7067 14.9998 17.2864 14.7231 16.9957 14.2554C16.677 13.7428 16.4993 12.9638 16.4993 11.9998V8.24976C16.4993 7.83555 16.1635 7.49976 15.7493 7.49976C15.3351 7.49976 14.9993 7.83555 14.9993 8.24976V11.9998C14.9993 13.1068 15.1967 14.2028 15.7218 15.0474C16.2748 15.937 17.1669 16.4998 18.3743 16.4998C19.5817 16.4998 20.4739 15.937 21.0269 15.0474C21.552 14.2028 21.7493 13.1067 21.7493 11.9997C21.7491 9.82724 21.0235 7.71706 19.6875 6.00398C18.3514 4.29091 16.4816 3.07306 14.3746 2.54368C12.2676 2.01431 10.0442 2.20372 8.05714 3.08187C6.07007 3.96001 4.43317 5.4766 3.40617 7.39098C2.37917 9.30536 2.02089 11.5079 2.38819 13.6491C2.75548 15.7903 3.82731 17.7475 5.43361 19.2101C7.0399 20.6728 9.08866 21.5572 11.2548 21.7229C13.4209 21.8886 15.5804 21.3262 17.3905 20.1249C17.7356 19.8958 17.8297 19.4304 17.6006 19.0852C17.3716 18.7401 16.9061 18.646 16.561 18.8751C15.0294 19.8916 13.2021 20.3675 11.3692 20.2272C9.5363 20.087 7.80272 19.3387 6.44352 18.101C5.08433 16.8634 4.17739 15.2073 3.86659 13.3955C3.5558 11.5837 3.85896 9.71997 4.72798 8.10008C5.59699 6.4802 6.98208 5.19692 8.66347 4.45386Z" fill="#09131A"/>
</svg>
