<svg width="24" height="24" viewBox="0 0 24 24" fill="none" xmlns="http://www.w3.org/2000/svg">
<g opacity="0.2">
<path d="M17.25 3.75H12L7.39771 9.75L12 21L22.5 9.75L17.25 3.75Z" fill="#0B1918"/>
<path d="M17.25 3.75H12L7.39771 9.75L12 21L22.5 9.75L17.25 3.75Z" fill="#09131A"/>
</g>
<path fill-rule="evenodd" clip-rule="evenodd" d="M6.18557 3.25612C6.32798 3.09336 6.53373 3 6.75 3H17.25C17.4663 3 17.672 3.09336 17.8144 3.25612L23.0644 9.25612C23.3179 9.5458 23.3109 9.98034 23.0483 10.2617L12.5483 21.5117C12.4064 21.6637 12.2079 21.75 12 21.75C11.7921 21.75 11.5936 21.6637 11.4517 21.5117L0.951709 10.2617C0.689071 9.98034 0.682096 9.5458 0.935568 9.25612L6.18557 3.25612ZM7.09033 4.5L2.51077 9.73378L12 19.9008L21.4892 9.73378L16.9097 4.5H7.09033Z" fill="#0B1918"/>
<path fill-rule="evenodd" clip-rule="evenodd" d="M6.18557 3.25612C6.32798 3.09336 6.53373 3 6.75 3H17.25C17.4663 3 17.672 3.09336 17.8144 3.25612L23.0644 9.25612C23.3179 9.5458 23.3109 9.98034 23.0483 10.2617L12.5483 21.5117C12.4064 21.6637 12.2079 21.75 12 21.75C11.7921 21.75 11.5936 21.6637 11.4517 21.5117L0.951709 10.2617C0.689071 9.98034 0.682096 9.5458 0.935568 9.25612L6.18557 3.25612ZM7.09033 4.5L2.51077 9.73378L12 19.9008L21.4892 9.73378L16.9097 4.5H7.09033Z" fill="#09131A"/>
<path fill-rule="evenodd" clip-rule="evenodd" d="M12 3C12.2332 3 12.4532 3.10849 12.5951 3.29353L17.1974 9.29353C17.3597 9.50517 17.3974 9.78711 17.2964 10.034L12.6942 21.284C12.5789 21.5658 12.3045 21.75 12 21.75C11.6955 21.75 11.4211 21.5658 11.3058 21.284L6.70355 10.034C6.60256 9.78711 6.64028 9.50517 6.80262 9.29353L11.4049 3.29353C11.5468 3.10849 11.7668 3 12 3ZM8.25497 9.86469L12 19.0192L15.745 9.86469L12 4.98229L8.25497 9.86469Z" fill="#0B1918"/>
<path fill-rule="evenodd" clip-rule="evenodd" d="M12 3C12.2332 3 12.4532 3.10849 12.5951 3.29353L17.1974 9.29353C17.3597 9.50517 17.3974 9.78711 17.2964 10.034L12.6942 21.284C12.5789 21.5658 12.3045 21.75 12 21.75C11.6955 21.75 11.4211 21.5658 11.3058 21.284L6.70355 10.034C6.60256 9.78711 6.64028 9.50517 6.80262 9.29353L11.4049 3.29353C11.5468 3.10849 11.7668 3 12 3ZM8.25497 9.86469L12 19.0192L15.745 9.86469L12 4.98229L8.25497 9.86469Z" fill="#09131A"/>
<path fill-rule="evenodd" clip-rule="evenodd" d="M0.75 9.75C0.75 9.33579 1.08579 9 1.5 9H22.5C22.9142 9 23.25 9.33579 23.25 9.75C23.25 10.1642 22.9142 10.5 22.5 10.5H1.5C1.08579 10.5 0.75 10.1642 0.75 9.75Z" fill="#0B1918"/>
<path fill-rule="evenodd" clip-rule="evenodd" d="M0.75 9.75C0.75 9.33579 1.08579 9 1.5 9H22.5C22.9142 9 23.25 9.33579 23.25 9.75C23.25 10.1642 22.9142 10.5 22.5 10.5H1.5C1.08579 10.5 0.75 10.1642 0.75 9.75Z" fill="#09131A"/>
</svg>
