<svg width="24" height="24" viewBox="0 0 24 24" fill="none" xmlns="http://www.w3.org/2000/svg">
<path fill-rule="evenodd" clip-rule="evenodd" d="M20.7803 6.22017C21.0732 6.51307 21.0732 6.98794 20.7803 7.28083L10.2803 17.7804C9.98743 18.0732 9.51259 18.0732 9.21969 17.7804L3.96969 12.5308C3.67679 12.238 3.67677 11.7631 3.96965 11.4702C4.26253 11.1773 4.7374 11.1773 5.03031 11.4701L9.74999 16.1894L19.7197 6.22015C20.0126 5.92726 20.4875 5.92727 20.7803 6.22017Z" fill="#0B1918"/>
<path fill-rule="evenodd" clip-rule="evenodd" d="M20.7803 6.22017C21.0732 6.51307 21.0732 6.98794 20.7803 7.28083L10.2803 17.7804C9.98743 18.0732 9.51259 18.0732 9.21969 17.7804L3.96969 12.5308C3.67679 12.238 3.67677 11.7631 3.96965 11.4702C4.26253 11.1773 4.7374 11.1773 5.03031 11.4701L9.74999 16.1894L19.7197 6.22015C20.0126 5.92726 20.4875 5.92727 20.7803 6.22017Z" fill="#09131A"/>
</svg>
