<svg width="24" height="24" viewBox="0 0 24 24" fill="none" xmlns="http://www.w3.org/2000/svg">
<g opacity="0.2">
<path d="M12 21C16.9706 21 21 16.9706 21 12C21 7.02944 16.9706 3 12 3C7.02944 3 3 7.02944 3 12C3 16.9706 7.02944 21 12 21Z" fill="#0B1918"/>
<path d="M12 21C16.9706 21 21 16.9706 21 12C21 7.02944 16.9706 3 12 3C7.02944 3 3 7.02944 3 12C3 16.9706 7.02944 21 12 21Z" fill="#09131A"/>
</g>
<path fill-rule="evenodd" clip-rule="evenodd" d="M12 3.75C7.44365 3.75 3.75 7.44365 3.75 12C3.75 16.5563 7.44365 20.25 12 20.25C16.5563 20.25 20.25 16.5563 20.25 12C20.25 7.44365 16.5563 3.75 12 3.75ZM2.25 12C2.25 6.61522 6.61522 2.25 12 2.25C17.3848 2.25 21.75 6.61522 21.75 12C21.75 17.3848 17.3848 21.75 12 21.75C6.61522 21.75 2.25 17.3848 2.25 12Z" fill="#0B1918"/>
<path fill-rule="evenodd" clip-rule="evenodd" d="M12 3.75C7.44365 3.75 3.75 7.44365 3.75 12C3.75 16.5563 7.44365 20.25 12 20.25C16.5563 20.25 20.25 16.5563 20.25 12C20.25 7.44365 16.5563 3.75 12 3.75ZM2.25 12C2.25 6.61522 6.61522 2.25 12 2.25C17.3848 2.25 21.75 6.61522 21.75 12C21.75 17.3848 17.3848 21.75 12 21.75C6.61522 21.75 2.25 17.3848 2.25 12Z" fill="#09131A"/>
<path fill-rule="evenodd" clip-rule="evenodd" d="M14.0575 8.12328C14.3346 8.43117 14.3096 8.90538 14.0017 9.18248L10.8711 12L14.0017 14.8175C14.3096 15.0946 14.3346 15.5688 14.0575 15.8767C13.7804 16.1846 13.3062 16.2096 12.9983 15.9325L9.24828 12.5575C9.09024 12.4152 9 12.2126 9 12C9 11.7874 9.09024 11.5848 9.24828 11.4425L12.9983 8.06754C13.3062 7.79044 13.7804 7.8154 14.0575 8.12328Z" fill="#0B1918"/>
<path fill-rule="evenodd" clip-rule="evenodd" d="M14.0575 8.12328C14.3346 8.43117 14.3096 8.90538 14.0017 9.18248L10.8711 12L14.0017 14.8175C14.3096 15.0946 14.3346 15.5688 14.0575 15.8767C13.7804 16.1846 13.3062 16.2096 12.9983 15.9325L9.24828 12.5575C9.09024 12.4152 9 12.2126 9 12C9 11.7874 9.09024 11.5848 9.24828 11.4425L12.9983 8.06754C13.3062 7.79044 13.7804 7.8154 14.0575 8.12328Z" fill="#09131A"/>
</svg>
