<svg width="24" height="24" viewBox="0 0 24 24" fill="none" xmlns="http://www.w3.org/2000/svg">
<path fill-rule="evenodd" clip-rule="evenodd" d="M6.57617 7.76988C6.84134 8.08809 6.79835 8.56101 6.48014 8.82618L2.67154 12L6.48014 15.1738C6.79835 15.439 6.84134 15.9119 6.57617 16.2302C6.31099 16.5484 5.83807 16.5914 5.51986 16.3262L1.01986 12.5762C0.848867 12.4337 0.75 12.2226 0.75 12C0.75 11.7774 0.848867 11.5663 1.01986 11.4239L5.51986 7.67385C5.83807 7.40868 6.31099 7.45167 6.57617 7.76988Z" fill="#0B1918"/>
<path fill-rule="evenodd" clip-rule="evenodd" d="M6.57617 7.76988C6.84134 8.08809 6.79835 8.56101 6.48014 8.82618L2.67154 12L6.48014 15.1738C6.79835 15.439 6.84134 15.9119 6.57617 16.2302C6.31099 16.5484 5.83807 16.5914 5.51986 16.3262L1.01986 12.5762C0.848867 12.4337 0.75 12.2226 0.75 12C0.75 11.7774 0.848867 11.5663 1.01986 11.4239L5.51986 7.67385C5.83807 7.40868 6.31099 7.45167 6.57617 7.76988Z" fill="#09131A"/>
<path fill-rule="evenodd" clip-rule="evenodd" d="M17.4239 7.76988C17.689 7.45167 18.1619 7.40868 18.4802 7.67385L22.9802 11.4239C23.1511 11.5663 23.25 11.7774 23.25 12C23.25 12.2226 23.1511 12.4337 22.9802 12.5762L18.4802 16.3262C18.1619 16.5914 17.689 16.5484 17.4239 16.2302C17.1587 15.9119 17.2017 15.439 17.5199 15.1738L21.3285 12L17.5199 8.82618C17.2017 8.56101 17.1587 8.08809 17.4239 7.76988Z" fill="#0B1918"/>
<path fill-rule="evenodd" clip-rule="evenodd" d="M17.4239 7.76988C17.689 7.45167 18.1619 7.40868 18.4802 7.67385L22.9802 11.4239C23.1511 11.5663 23.25 11.7774 23.25 12C23.25 12.2226 23.1511 12.4337 22.9802 12.5762L18.4802 16.3262C18.1619 16.5914 17.689 16.5484 17.4239 16.2302C17.1587 15.9119 17.2017 15.439 17.5199 15.1738L21.3285 12L17.5199 8.82618C17.2017 8.56101 17.1587 8.08809 17.4239 7.76988Z" fill="#09131A"/>
<path fill-rule="evenodd" clip-rule="evenodd" d="M15.2563 3.04511C15.6455 3.18667 15.8464 3.61699 15.7048 4.00627L9.70481 20.5063C9.56325 20.8955 9.13293 21.0964 8.74365 20.9548C8.35438 20.8132 8.15356 20.3829 8.29511 19.9937L14.2951 3.49365C14.4367 3.10438 14.867 2.90356 15.2563 3.04511Z" fill="#0B1918"/>
<path fill-rule="evenodd" clip-rule="evenodd" d="M15.2563 3.04511C15.6455 3.18667 15.8464 3.61699 15.7048 4.00627L9.70481 20.5063C9.56325 20.8955 9.13293 21.0964 8.74365 20.9548C8.35438 20.8132 8.15356 20.3829 8.29511 19.9937L14.2951 3.49365C14.4367 3.10438 14.867 2.90356 15.2563 3.04511Z" fill="#09131A"/>
</svg>
