<svg width="24" height="24" viewBox="0 0 24 24" fill="none" xmlns="http://www.w3.org/2000/svg">
<g opacity="0.2">
<path d="M21 12H3C2.58579 12 2.25 12.3358 2.25 12.75V18.75C2.25 19.1642 2.58579 19.5 3 19.5H21C21.4142 19.5 21.75 19.1642 21.75 18.75V12.75C21.75 12.3358 21.4142 12 21 12Z" fill="#0B1918"/>
<path d="M21 12H3C2.58579 12 2.25 12.3358 2.25 12.75V18.75C2.25 19.1642 2.58579 19.5 3 19.5H21C21.4142 19.5 21.75 19.1642 21.75 18.75V12.75C21.75 12.3358 21.4142 12 21 12Z" fill="#09131A"/>
</g>
<path fill-rule="evenodd" clip-rule="evenodd" d="M1.93934 11.6893C2.22065 11.408 2.60218 11.25 3 11.25H7.5C7.91421 11.25 8.25 11.5858 8.25 12C8.25 12.4142 7.91421 12.75 7.5 12.75L3 12.75V18.75H21V12.75H16.5C16.0858 12.75 15.75 12.4142 15.75 12C15.75 11.5858 16.0858 11.25 16.5 11.25H21C21.3978 11.25 21.7794 11.408 22.0607 11.6893C22.342 11.9706 22.5 12.3522 22.5 12.75V18.75C22.5 19.1478 22.342 19.5294 22.0607 19.8107C21.7794 20.092 21.3978 20.25 21 20.25H3C2.60218 20.25 2.22065 20.092 1.93934 19.8107C1.65803 19.5294 1.5 19.1478 1.5 18.75V12.75C1.5 12.3522 1.65803 11.9706 1.93934 11.6893Z" fill="#0B1918"/>
<path fill-rule="evenodd" clip-rule="evenodd" d="M1.93934 11.6893C2.22065 11.408 2.60218 11.25 3 11.25H7.5C7.91421 11.25 8.25 11.5858 8.25 12C8.25 12.4142 7.91421 12.75 7.5 12.75L3 12.75V18.75H21V12.75H16.5C16.0858 12.75 15.75 12.4142 15.75 12C15.75 11.5858 16.0858 11.25 16.5 11.25H21C21.3978 11.25 21.7794 11.408 22.0607 11.6893C22.342 11.9706 22.5 12.3522 22.5 12.75V18.75C22.5 19.1478 22.342 19.5294 22.0607 19.8107C21.7794 20.092 21.3978 20.25 21 20.25H3C2.60218 20.25 2.22065 20.092 1.93934 19.8107C1.65803 19.5294 1.5 19.1478 1.5 18.75V12.75C1.5 12.3522 1.65803 11.9706 1.93934 11.6893Z" fill="#09131A"/>
<path fill-rule="evenodd" clip-rule="evenodd" d="M12 1.5C12.4142 1.5 12.75 1.83579 12.75 2.25V12C12.75 12.4142 12.4142 12.75 12 12.75C11.5858 12.75 11.25 12.4142 11.25 12V2.25C11.25 1.83579 11.5858 1.5 12 1.5Z" fill="#0B1918"/>
<path fill-rule="evenodd" clip-rule="evenodd" d="M12 1.5C12.4142 1.5 12.75 1.83579 12.75 2.25V12C12.75 12.4142 12.4142 12.75 12 12.75C11.5858 12.75 11.25 12.4142 11.25 12V2.25C11.25 1.83579 11.5858 1.5 12 1.5Z" fill="#09131A"/>
<path fill-rule="evenodd" clip-rule="evenodd" d="M6.96967 6.96967C7.26256 6.67678 7.73744 6.67678 8.03033 6.96967L12 10.9393L15.9697 6.96967C16.2626 6.67678 16.7374 6.67678 17.0303 6.96967C17.3232 7.26256 17.3232 7.73744 17.0303 8.03033L12.5303 12.5303C12.2374 12.8232 11.7626 12.8232 11.4697 12.5303L6.96967 8.03033C6.67678 7.73744 6.67678 7.26256 6.96967 6.96967Z" fill="#0B1918"/>
<path fill-rule="evenodd" clip-rule="evenodd" d="M6.96967 6.96967C7.26256 6.67678 7.73744 6.67678 8.03033 6.96967L12 10.9393L15.9697 6.96967C16.2626 6.67678 16.7374 6.67678 17.0303 6.96967C17.3232 7.26256 17.3232 7.73744 17.0303 8.03033L12.5303 12.5303C12.2374 12.8232 11.7626 12.8232 11.4697 12.5303L6.96967 8.03033C6.67678 7.73744 6.67678 7.26256 6.96967 6.96967Z" fill="#09131A"/>
<path d="M17.625 16.875C18.2463 16.875 18.75 16.3713 18.75 15.75C18.75 15.1287 18.2463 14.625 17.625 14.625C17.0037 14.625 16.5 15.1287 16.5 15.75C16.5 16.3713 17.0037 16.875 17.625 16.875Z" fill="#0B1918"/>
<path d="M17.625 16.875C18.2463 16.875 18.75 16.3713 18.75 15.75C18.75 15.1287 18.2463 14.625 17.625 14.625C17.0037 14.625 16.5 15.1287 16.5 15.75C16.5 16.3713 17.0037 16.875 17.625 16.875Z" fill="#09131A"/>
</svg>
