<svg width="24" height="24" viewBox="0 0 24 24" fill="none" xmlns="http://www.w3.org/2000/svg">
<g opacity="0.2">
<path d="M18.3639 5.63599C20.0513 7.32391 20.9991 9.61294 20.9989 11.9996C20.9986 14.3863 20.0505 16.6752 18.3628 18.3628C16.6752 20.0505 14.3863 20.9986 11.9996 20.9989C9.61294 20.9991 7.32391 20.0513 5.63599 18.3639" fill="#0B1918"/>
<path d="M18.3639 5.63599C20.0513 7.32391 20.9991 9.61294 20.9989 11.9996C20.9986 14.3863 20.0505 16.6752 18.3628 18.3628C16.6752 20.0505 14.3863 20.9986 11.9996 20.9989C9.61294 20.9991 7.32391 20.0513 5.63599 18.3639" fill="#09131A"/>
</g>
<path fill-rule="evenodd" clip-rule="evenodd" d="M12 3.75C7.44365 3.75 3.75 7.44365 3.75 12C3.75 16.5563 7.44365 20.25 12 20.25C16.5563 20.25 20.25 16.5563 20.25 12C20.25 7.44365 16.5563 3.75 12 3.75ZM2.25 12C2.25 6.61522 6.61522 2.25 12 2.25C17.3848 2.25 21.75 6.61522 21.75 12C21.75 17.3848 17.3848 21.75 12 21.75C6.61522 21.75 2.25 17.3848 2.25 12Z" fill="#0B1918"/>
<path fill-rule="evenodd" clip-rule="evenodd" d="M12 3.75C7.44365 3.75 3.75 7.44365 3.75 12C3.75 16.5563 7.44365 20.25 12 20.25C16.5563 20.25 20.25 16.5563 20.25 12C20.25 7.44365 16.5563 3.75 12 3.75ZM2.25 12C2.25 6.61522 6.61522 2.25 12 2.25C17.3848 2.25 21.75 6.61522 21.75 12C21.75 17.3848 17.3848 21.75 12 21.75C6.61522 21.75 2.25 17.3848 2.25 12Z" fill="#09131A"/>
<path fill-rule="evenodd" clip-rule="evenodd" d="M18.8942 5.10566C19.1871 5.39855 19.1871 5.87342 18.8942 6.16632L6.16632 18.8942C5.87342 19.1871 5.39855 19.1871 5.10566 18.8942C4.81276 18.6013 4.81276 18.1265 5.10566 17.8336L17.8336 5.10566C18.1265 4.81276 18.6013 4.81276 18.8942 5.10566Z" fill="#0B1918"/>
<path fill-rule="evenodd" clip-rule="evenodd" d="M18.8942 5.10566C19.1871 5.39855 19.1871 5.87342 18.8942 6.16632L6.16632 18.8942C5.87342 19.1871 5.39855 19.1871 5.10566 18.8942C4.81276 18.6013 4.81276 18.1265 5.10566 17.8336L17.8336 5.10566C18.1265 4.81276 18.6013 4.81276 18.8942 5.10566Z" fill="#09131A"/>
</svg>
