<svg width="24" height="24" viewBox="0 0 24 24" fill="none" xmlns="http://www.w3.org/2000/svg">
<g opacity="0.2">
<path d="M3 19.5L5.82906 11.0128C5.87884 10.8635 5.97434 10.7336 6.10204 10.6416C6.22974 10.5495 6.38316 10.5 6.54057 10.5H19.5V8.25C19.5 8.05109 19.421 7.86032 19.2803 7.71967C19.1397 7.57902 18.9489 7.5 18.75 7.5H12.25C12.0877 7.5 11.9298 7.44737 11.8 7.35L9.2 5.4C9.07018 5.30263 8.91228 5.25 8.75 5.25H3.75C3.55109 5.25 3.36032 5.32902 3.21967 5.46967C3.07902 5.61032 3 5.80109 3 6V19.5Z" fill="#0B1918"/>
<path d="M3 19.5L5.82906 11.0128C5.87884 10.8635 5.97434 10.7336 6.10204 10.6416C6.22974 10.5495 6.38316 10.5 6.54057 10.5H19.5V8.25C19.5 8.05109 19.421 7.86032 19.2803 7.71967C19.1397 7.57902 18.9489 7.5 18.75 7.5H12.25C12.0877 7.5 11.9298 7.44737 11.8 7.35L9.2 5.4C9.07018 5.30263 8.91228 5.25 8.75 5.25H3.75C3.55109 5.25 3.36032 5.32902 3.21967 5.46967C3.07902 5.61032 3 5.80109 3 6V19.5Z" fill="#09131A"/>
</g>
<path fill-rule="evenodd" clip-rule="evenodd" d="M2.68934 4.93934C2.97064 4.65804 3.35217 4.5 3.75 4.5H8.75C9.07455 4.5 9.39036 4.60527 9.65 4.8L12.25 6.75H18.75C19.1478 6.75 19.5294 6.90804 19.8107 7.18934C20.092 7.47065 20.25 7.85218 20.25 8.25V10.5C20.25 10.9142 19.9142 11.25 19.5 11.25C19.0858 11.25 18.75 10.9142 18.75 10.5V8.25H12.25C11.9254 8.25 11.6096 8.14473 11.35 7.95L8.75 6L3.75 6L3.75 19.5C3.75 19.9142 3.41421 20.25 3 20.25C2.58579 20.25 2.25 19.9142 2.25 19.5V6C2.25 5.60217 2.40804 5.22064 2.68934 4.93934Z" fill="#0B1918"/>
<path fill-rule="evenodd" clip-rule="evenodd" d="M2.68934 4.93934C2.97064 4.65804 3.35217 4.5 3.75 4.5H8.75C9.07455 4.5 9.39036 4.60527 9.65 4.8L12.25 6.75H18.75C19.1478 6.75 19.5294 6.90804 19.8107 7.18934C20.092 7.47065 20.25 7.85218 20.25 8.25V10.5C20.25 10.9142 19.9142 11.25 19.5 11.25C19.0858 11.25 18.75 10.9142 18.75 10.5V8.25H12.25C11.9254 8.25 11.6096 8.14473 11.35 7.95L8.75 6L3.75 6L3.75 19.5C3.75 19.9142 3.41421 20.25 3 20.25C2.58579 20.25 2.25 19.9142 2.25 19.5V6C2.25 5.60217 2.40804 5.22064 2.68934 4.93934Z" fill="#09131A"/>
<path fill-rule="evenodd" clip-rule="evenodd" d="M5.66351 10.0331C5.91891 9.84906 6.22575 9.75 6.54057 9.75H21.4594C21.6971 9.75 21.9314 9.80648 22.143 9.91478C22.3545 10.0231 22.5373 10.1801 22.6763 10.3729C22.8153 10.5657 22.9064 10.7888 22.9423 11.0238C22.9781 11.2587 22.9576 11.4989 22.8825 11.7243L20.2115 19.7372C20.1094 20.0434 19.8228 20.25 19.5 20.25H3.00001C2.75892 20.25 2.53254 20.1341 2.39157 19.9385C2.25061 19.743 2.21226 19.4915 2.28849 19.2628L5.11755 10.7757C5.21711 10.477 5.40811 10.2172 5.66351 10.0331ZM21.4594 11.25L6.54058 11.25L4.04058 18.75H18.9594L21.4594 11.25Z" fill="#0B1918"/>
<path fill-rule="evenodd" clip-rule="evenodd" d="M5.66351 10.0331C5.91891 9.84906 6.22575 9.75 6.54057 9.75H21.4594C21.6971 9.75 21.9314 9.80648 22.143 9.91478C22.3545 10.0231 22.5373 10.1801 22.6763 10.3729C22.8153 10.5657 22.9064 10.7888 22.9423 11.0238C22.9781 11.2587 22.9576 11.4989 22.8825 11.7243L20.2115 19.7372C20.1094 20.0434 19.8228 20.25 19.5 20.25H3.00001C2.75892 20.25 2.53254 20.1341 2.39157 19.9385C2.25061 19.743 2.21226 19.4915 2.28849 19.2628L5.11755 10.7757C5.21711 10.477 5.40811 10.2172 5.66351 10.0331ZM21.4594 11.25L6.54058 11.25L4.04058 18.75H18.9594L21.4594 11.25Z" fill="#09131A"/>
</svg>
