<svg width="24" height="24" viewBox="0 0 24 24" fill="none" xmlns="http://www.w3.org/2000/svg">
<g opacity="0.2">
<path d="M6.04797 7.19098C5.78571 6.5124 5.67894 5.78364 5.73554 5.05835C5.79214 4.33306 6.01065 3.62968 6.37501 3C7.19373 2.99953 7.99937 3.20543 8.71748 3.59868C9.43558 3.99192 10.043 4.55981 10.4836 5.24989V5.25H13.5164V5.24989C13.957 4.55981 14.5644 3.99192 15.2825 3.59868C16.0006 3.20543 16.8063 2.99953 17.625 3C17.9894 3.62968 18.2079 4.33306 18.2645 5.05835C18.3211 5.78364 18.2143 6.5124 17.952 7.19098V7.19098C18.473 7.94253 18.7515 8.83554 18.75 9.75V10.5C18.75 11.6935 18.2759 12.8381 17.432 13.682C16.5881 14.5259 15.4435 15 14.25 15H9.75001C8.55653 15 7.41194 14.5259 6.56803 13.682C5.72411 12.8381 5.25001 11.6935 5.25001 10.5V9.75C5.24854 8.83554 5.527 7.94253 6.04797 7.19098L6.04797 7.19098Z" fill="#0B1918"/>
<path d="M6.04797 7.19098C5.78571 6.5124 5.67894 5.78364 5.73554 5.05835C5.79214 4.33306 6.01065 3.62968 6.37501 3C7.19373 2.99953 7.99937 3.20543 8.71748 3.59868C9.43558 3.99192 10.043 4.55981 10.4836 5.24989V5.25H13.5164V5.24989C13.957 4.55981 14.5644 3.99192 15.2825 3.59868C16.0006 3.20543 16.8063 2.99953 17.625 3C17.9894 3.62968 18.2079 4.33306 18.2645 5.05835C18.3211 5.78364 18.2143 6.5124 17.952 7.19098V7.19098C18.473 7.94253 18.7515 8.83554 18.75 9.75V10.5C18.75 11.6935 18.2759 12.8381 17.432 13.682C16.5881 14.5259 15.4435 15 14.25 15H9.75001C8.55653 15 7.41194 14.5259 6.56803 13.682C5.72411 12.8381 5.25001 11.6935 5.25001 10.5V9.75C5.24854 8.83554 5.527 7.94253 6.04797 7.19098L6.04797 7.19098Z" fill="#09131A"/>
</g>
<path fill-rule="evenodd" clip-rule="evenodd" d="M10.125 14.25C10.5392 14.25 10.875 14.5858 10.875 15V19.5C10.875 20.2956 10.5589 21.0587 9.99632 21.6213C9.43371 22.1839 8.67065 22.5 7.875 22.5C7.46079 22.5 7.125 22.1642 7.125 21.75C7.125 21.3358 7.46079 21 7.875 21C8.27283 21 8.65436 20.842 8.93566 20.5607C9.21696 20.2794 9.375 19.8978 9.375 19.5V15C9.375 14.5858 9.71079 14.25 10.125 14.25Z" fill="#0B1918"/>
<path fill-rule="evenodd" clip-rule="evenodd" d="M10.125 14.25C10.5392 14.25 10.875 14.5858 10.875 15V19.5C10.875 20.2956 10.5589 21.0587 9.99632 21.6213C9.43371 22.1839 8.67065 22.5 7.875 22.5C7.46079 22.5 7.125 22.1642 7.125 21.75C7.125 21.3358 7.46079 21 7.875 21C8.27283 21 8.65436 20.842 8.93566 20.5607C9.21696 20.2794 9.375 19.8978 9.375 19.5V15C9.375 14.5858 9.71079 14.25 10.125 14.25Z" fill="#09131A"/>
<path fill-rule="evenodd" clip-rule="evenodd" d="M13.875 14.25C14.2892 14.25 14.625 14.5858 14.625 15V19.5C14.625 19.8978 14.783 20.2794 15.0643 20.5607C15.3456 20.842 15.7272 21 16.125 21C16.5392 21 16.875 21.3358 16.875 21.75C16.875 22.1642 16.5392 22.5 16.125 22.5C15.3294 22.5 14.5663 22.1839 14.0037 21.6213C13.4411 21.0587 13.125 20.2956 13.125 19.5V15C13.125 14.5858 13.4608 14.25 13.875 14.25Z" fill="#0B1918"/>
<path fill-rule="evenodd" clip-rule="evenodd" d="M13.875 14.25C14.2892 14.25 14.625 14.5858 14.625 15V19.5C14.625 19.8978 14.783 20.2794 15.0643 20.5607C15.3456 20.842 15.7272 21 16.125 21C16.5392 21 16.875 21.3358 16.875 21.75C16.875 22.1642 16.5392 22.5 16.125 22.5C15.3294 22.5 14.5663 22.1839 14.0037 21.6213C13.4411 21.0587 13.125 20.2956 13.125 19.5V15C13.125 14.5858 13.4608 14.25 13.875 14.25Z" fill="#09131A"/>
<path fill-rule="evenodd" clip-rule="evenodd" d="M13.5 15C13.5 14.5858 13.8358 14.25 14.25 14.25H15.75C16.5456 14.25 17.3087 14.5661 17.8713 15.1287C18.4339 15.6913 18.75 16.4544 18.75 17.25V18C18.75 18.3978 18.908 18.7794 19.1893 19.0607C19.4706 19.342 19.8522 19.5 20.25 19.5C20.6642 19.5 21 19.8358 21 20.25C21 20.6642 20.6642 21 20.25 21C19.4544 21 18.6913 20.6839 18.1287 20.1213C17.5661 19.5587 17.25 18.7956 17.25 18V17.25C17.25 16.8522 17.092 16.4706 16.8107 16.1893C16.5294 15.908 16.1478 15.75 15.75 15.75H14.25C13.8358 15.75 13.5 15.4142 13.5 15Z" fill="#0B1918"/>
<path fill-rule="evenodd" clip-rule="evenodd" d="M13.5 15C13.5 14.5858 13.8358 14.25 14.25 14.25H15.75C16.5456 14.25 17.3087 14.5661 17.8713 15.1287C18.4339 15.6913 18.75 16.4544 18.75 17.25V18C18.75 18.3978 18.908 18.7794 19.1893 19.0607C19.4706 19.342 19.8522 19.5 20.25 19.5C20.6642 19.5 21 19.8358 21 20.25C21 20.6642 20.6642 21 20.25 21C19.4544 21 18.6913 20.6839 18.1287 20.1213C17.5661 19.5587 17.25 18.7956 17.25 18V17.25C17.25 16.8522 17.092 16.4706 16.8107 16.1893C16.5294 15.908 16.1478 15.75 15.75 15.75H14.25C13.8358 15.75 13.5 15.4142 13.5 15Z" fill="#09131A"/>
<path fill-rule="evenodd" clip-rule="evenodd" d="M6.12868 15.1287C6.69129 14.5661 7.45435 14.25 8.25 14.25H9.75C10.1642 14.25 10.5 14.5858 10.5 15C10.5 15.4142 10.1642 15.75 9.75 15.75H8.25C7.85217 15.75 7.47064 15.908 7.18934 16.1893C6.90804 16.4706 6.75 16.8522 6.75 17.25V18C6.75 18.7956 6.43393 19.5587 5.87132 20.1213C5.30871 20.6839 4.54565 21 3.75 21C3.33579 21 3 20.6642 3 20.25C3 19.8358 3.33579 19.5 3.75 19.5C4.14782 19.5 4.52936 19.342 4.81066 19.0607C5.09196 18.7794 5.25 18.3978 5.25 18V17.25C5.25 16.4544 5.56607 15.6913 6.12868 15.1287Z" fill="#0B1918"/>
<path fill-rule="evenodd" clip-rule="evenodd" d="M6.12868 15.1287C6.69129 14.5661 7.45435 14.25 8.25 14.25H9.75C10.1642 14.25 10.5 14.5858 10.5 15C10.5 15.4142 10.1642 15.75 9.75 15.75H8.25C7.85217 15.75 7.47064 15.908 7.18934 16.1893C6.90804 16.4706 6.75 16.8522 6.75 17.25V18C6.75 18.7956 6.43393 19.5587 5.87132 20.1213C5.30871 20.6839 4.54565 21 3.75 21C3.33579 21 3 20.6642 3 20.25C3 19.8358 3.33579 19.5 3.75 19.5C4.14782 19.5 4.52936 19.342 4.81066 19.0607C5.09196 18.7794 5.25 18.3978 5.25 18V17.25C5.25 16.4544 5.56607 15.6913 6.12868 15.1287Z" fill="#09131A"/>
<path fill-rule="evenodd" clip-rule="evenodd" d="M6.82169 3.77398C6.63429 4.19824 6.51952 4.65216 6.48327 5.1167C6.43539 5.73019 6.5257 6.34662 6.74754 6.9206C6.84133 7.16327 6.80069 7.42751 6.65824 7.6271C6.22844 8.25097 5.99879 8.99104 6 9.7488L6.00001 9.75L6.00001 10.5C6.00001 11.4946 6.39509 12.4484 7.09836 13.1517C7.80162 13.8549 8.75544 14.25 9.75001 14.25H14.25C15.2446 14.25 16.1984 13.8549 16.9017 13.1517C17.6049 12.4484 18 11.4946 18 10.5L18 9.7488C18.0012 8.98745 17.7694 8.24397 17.3356 7.61826L17.952 7.19098L17.2525 6.9206C17.4743 6.34662 17.5646 5.73019 17.5167 5.1167C17.4805 4.65215 17.3657 4.19824 17.1783 3.77398C16.6412 3.83217 16.1192 3.9956 15.6428 4.2565C15.0395 4.58687 14.5285 5.06295 14.1564 5.64127C14.0246 5.85645 13.7873 6 13.5164 6H10.4836C10.2127 6 9.97543 5.85644 9.8436 5.64127C9.4715 5.06296 8.96055 4.58687 8.35725 4.2565C7.88081 3.9956 7.35884 3.83217 6.82169 3.77398ZM18.7793 7.0936C19.2513 7.89692 19.5014 8.81411 19.5 9.75059C19.5 9.75079 19.5 9.751 19.5 9.7512L19.5 10.5C19.5 11.8924 18.9469 13.2277 17.9623 14.2123C16.9778 15.1969 15.6424 15.75 14.25 15.75H9.75001C8.35762 15.75 7.02226 15.1969 6.0377 14.2123C5.05313 13.2277 4.50001 11.8924 4.50001 10.5V9.75059C4.49861 8.81411 4.74868 7.89692 5.22073 7.09359C5.01207 6.41779 4.93261 5.70747 4.98781 5C5.05313 4.16291 5.30533 3.35112 5.72585 2.62438C5.85984 2.39281 6.10704 2.25015 6.37458 2.25C7.31936 2.24946 8.24904 2.48706 9.07771 2.94085C9.78293 3.32704 10.3956 3.8592 10.8759 4.5H13.1241C13.6044 3.8592 14.2171 3.32704 14.9223 2.94085C15.751 2.48706 16.6807 2.24946 17.6254 2.25C17.893 2.25015 18.1402 2.39281 18.2742 2.62438C18.6947 3.35112 18.9469 4.16291 19.0122 5C19.0674 5.70747 18.9879 6.41779 18.7793 7.0936Z" fill="#0B1918"/>
<path fill-rule="evenodd" clip-rule="evenodd" d="M6.82169 3.77398C6.63429 4.19824 6.51952 4.65216 6.48327 5.1167C6.43539 5.73019 6.5257 6.34662 6.74754 6.9206C6.84133 7.16327 6.80069 7.42751 6.65824 7.6271C6.22844 8.25097 5.99879 8.99104 6 9.7488L6.00001 9.75L6.00001 10.5C6.00001 11.4946 6.39509 12.4484 7.09836 13.1517C7.80162 13.8549 8.75544 14.25 9.75001 14.25H14.25C15.2446 14.25 16.1984 13.8549 16.9017 13.1517C17.6049 12.4484 18 11.4946 18 10.5L18 9.7488C18.0012 8.98745 17.7694 8.24397 17.3356 7.61826L17.952 7.19098L17.2525 6.9206C17.4743 6.34662 17.5646 5.73019 17.5167 5.1167C17.4805 4.65215 17.3657 4.19824 17.1783 3.77398C16.6412 3.83217 16.1192 3.9956 15.6428 4.2565C15.0395 4.58687 14.5285 5.06295 14.1564 5.64127C14.0246 5.85645 13.7873 6 13.5164 6H10.4836C10.2127 6 9.97543 5.85644 9.8436 5.64127C9.4715 5.06296 8.96055 4.58687 8.35725 4.2565C7.88081 3.9956 7.35884 3.83217 6.82169 3.77398ZM18.7793 7.0936C19.2513 7.89692 19.5014 8.81411 19.5 9.75059C19.5 9.75079 19.5 9.751 19.5 9.7512L19.5 10.5C19.5 11.8924 18.9469 13.2277 17.9623 14.2123C16.9778 15.1969 15.6424 15.75 14.25 15.75H9.75001C8.35762 15.75 7.02226 15.1969 6.0377 14.2123C5.05313 13.2277 4.50001 11.8924 4.50001 10.5V9.75059C4.49861 8.81411 4.74868 7.89692 5.22073 7.09359C5.01207 6.41779 4.93261 5.70747 4.98781 5C5.05313 4.16291 5.30533 3.35112 5.72585 2.62438C5.85984 2.39281 6.10704 2.25015 6.37458 2.25C7.31936 2.24946 8.24904 2.48706 9.07771 2.94085C9.78293 3.32704 10.3956 3.8592 10.8759 4.5H13.1241C13.6044 3.8592 14.2171 3.32704 14.9223 2.94085C15.751 2.48706 16.6807 2.24946 17.6254 2.25C17.893 2.25015 18.1402 2.39281 18.2742 2.62438C18.6947 3.35112 18.9469 4.16291 19.0122 5C19.0674 5.70747 18.9879 6.41779 18.7793 7.0936Z" fill="#09131A"/>
</svg>
