<svg width="24" height="24" viewBox="0 0 24 24" fill="none" xmlns="http://www.w3.org/2000/svg">
<g opacity="0.2">
<path d="M16.125 3.375H7.875C7.28405 3.375 6.69889 3.49139 6.15292 3.71754C5.60696 3.94368 5.11088 4.27515 4.69302 4.69302C4.27515 5.11088 3.94368 5.60696 3.71754 6.15292C3.49139 6.69889 3.375 7.28405 3.375 7.875V16.125C3.375 16.7159 3.49139 17.3011 3.71754 17.8471C3.94368 18.393 4.27515 18.8891 4.69302 19.307C5.11088 19.7248 5.60696 20.0563 6.15292 20.2825C6.69889 20.5086 7.28405 20.625 7.875 20.625H16.125C16.7159 20.625 17.3011 20.5086 17.8471 20.2825C18.393 20.0563 18.8891 19.7248 19.307 19.307C19.7248 18.8891 20.0563 18.393 20.2825 17.8471C20.5086 17.3011 20.625 16.7159 20.625 16.125V7.875C20.625 7.28405 20.5086 6.69889 20.2825 6.15292C20.0563 5.60696 19.7248 5.11088 19.307 4.69302C18.8891 4.27515 18.393 3.94368 17.8471 3.71754C17.3011 3.49139 16.7159 3.375 16.125 3.375ZM12 15.75C11.2583 15.75 10.5333 15.5301 9.91661 15.118C9.29993 14.706 8.81928 14.1203 8.53545 13.4351C8.25162 12.7498 8.17736 11.9958 8.32205 11.2684C8.46675 10.541 8.8239 9.8728 9.34835 9.34835C9.8728 8.8239 10.541 8.46675 11.2684 8.32205C11.9958 8.17736 12.7498 8.25162 13.4351 8.53545C14.1203 8.81928 14.706 9.29993 15.118 9.91661C15.5301 10.5333 15.75 11.2583 15.75 12C15.75 12.9946 15.3549 13.9484 14.6516 14.6516C13.9484 15.3549 12.9946 15.75 12 15.75V15.75Z" fill="#0B1918"/>
<path d="M16.125 3.375H7.875C7.28405 3.375 6.69889 3.49139 6.15292 3.71754C5.60696 3.94368 5.11088 4.27515 4.69302 4.69302C4.27515 5.11088 3.94368 5.60696 3.71754 6.15292C3.49139 6.69889 3.375 7.28405 3.375 7.875V16.125C3.375 16.7159 3.49139 17.3011 3.71754 17.8471C3.94368 18.393 4.27515 18.8891 4.69302 19.307C5.11088 19.7248 5.60696 20.0563 6.15292 20.2825C6.69889 20.5086 7.28405 20.625 7.875 20.625H16.125C16.7159 20.625 17.3011 20.5086 17.8471 20.2825C18.393 20.0563 18.8891 19.7248 19.307 19.307C19.7248 18.8891 20.0563 18.393 20.2825 17.8471C20.5086 17.3011 20.625 16.7159 20.625 16.125V7.875C20.625 7.28405 20.5086 6.69889 20.2825 6.15292C20.0563 5.60696 19.7248 5.11088 19.307 4.69302C18.8891 4.27515 18.393 3.94368 17.8471 3.71754C17.3011 3.49139 16.7159 3.375 16.125 3.375ZM12 15.75C11.2583 15.75 10.5333 15.5301 9.91661 15.118C9.29993 14.706 8.81928 14.1203 8.53545 13.4351C8.25162 12.7498 8.17736 11.9958 8.32205 11.2684C8.46675 10.541 8.8239 9.8728 9.34835 9.34835C9.8728 8.8239 10.541 8.46675 11.2684 8.32205C11.9958 8.17736 12.7498 8.25162 13.4351 8.53545C14.1203 8.81928 14.706 9.29993 15.118 9.91661C15.5301 10.5333 15.75 11.2583 15.75 12C15.75 12.9946 15.3549 13.9484 14.6516 14.6516C13.9484 15.3549 12.9946 15.75 12 15.75V15.75Z" fill="#09131A"/>
</g>
<path fill-rule="evenodd" clip-rule="evenodd" d="M12 9C10.3431 9 9 10.3431 9 12C9 13.6569 10.3431 15 12 15C13.6569 15 15 13.6569 15 12C15 10.3431 13.6569 9 12 9ZM7.5 12C7.5 9.51472 9.51472 7.5 12 7.5C14.4853 7.5 16.5 9.51472 16.5 12C16.5 14.4853 14.4853 16.5 12 16.5C9.51472 16.5 7.5 14.4853 7.5 12Z" fill="#0B1918"/>
<path fill-rule="evenodd" clip-rule="evenodd" d="M12 9C10.3431 9 9 10.3431 9 12C9 13.6569 10.3431 15 12 15C13.6569 15 15 13.6569 15 12C15 10.3431 13.6569 9 12 9ZM7.5 12C7.5 9.51472 9.51472 7.5 12 7.5C14.4853 7.5 16.5 9.51472 16.5 12C16.5 14.4853 14.4853 16.5 12 16.5C9.51472 16.5 7.5 14.4853 7.5 12Z" fill="#09131A"/>
<path fill-rule="evenodd" clip-rule="evenodd" d="M7.875 4.125C5.80393 4.125 4.125 5.80393 4.125 7.875V16.125C4.125 18.1961 5.80393 19.875 7.875 19.875H16.125C18.1961 19.875 19.875 18.1961 19.875 16.125V7.875C19.875 5.80393 18.1961 4.125 16.125 4.125H7.875ZM2.625 7.875C2.625 4.9755 4.9755 2.625 7.875 2.625H16.125C19.0245 2.625 21.375 4.9755 21.375 7.875V16.125C21.375 19.0245 19.0245 21.375 16.125 21.375H7.875C4.9755 21.375 2.625 19.0245 2.625 16.125V7.875Z" fill="#0B1918"/>
<path fill-rule="evenodd" clip-rule="evenodd" d="M7.875 4.125C5.80393 4.125 4.125 5.80393 4.125 7.875V16.125C4.125 18.1961 5.80393 19.875 7.875 19.875H16.125C18.1961 19.875 19.875 18.1961 19.875 16.125V7.875C19.875 5.80393 18.1961 4.125 16.125 4.125H7.875ZM2.625 7.875C2.625 4.9755 4.9755 2.625 7.875 2.625H16.125C19.0245 2.625 21.375 4.9755 21.375 7.875V16.125C21.375 19.0245 19.0245 21.375 16.125 21.375H7.875C4.9755 21.375 2.625 19.0245 2.625 16.125V7.875Z" fill="#09131A"/>
<path d="M16.875 8.25C17.4963 8.25 18 7.74632 18 7.125C18 6.50368 17.4963 6 16.875 6C16.2537 6 15.75 6.50368 15.75 7.125C15.75 7.74632 16.2537 8.25 16.875 8.25Z" fill="#0B1918"/>
<path d="M16.875 8.25C17.4963 8.25 18 7.74632 18 7.125C18 6.50368 17.4963 6 16.875 6C16.2537 6 15.75 6.50368 15.75 7.125C15.75 7.74632 16.2537 8.25 16.875 8.25Z" fill="#09131A"/>
</svg>
