<svg width="24" height="24" viewBox="0 0 24 24" fill="none" xmlns="http://www.w3.org/2000/svg">
<g opacity="0.2">
<path d="M19.5 3.75H4.5C4.08579 3.75 3.75 4.08579 3.75 4.5V19.5C3.75 19.9142 4.08579 20.25 4.5 20.25H19.5C19.9142 20.25 20.25 19.9142 20.25 19.5V4.5C20.25 4.08579 19.9142 3.75 19.5 3.75Z" fill="#0B1918"/>
<path d="M19.5 3.75H4.5C4.08579 3.75 3.75 4.08579 3.75 4.5V19.5C3.75 19.9142 4.08579 20.25 4.5 20.25H19.5C19.9142 20.25 20.25 19.9142 20.25 19.5V4.5C20.25 4.08579 19.9142 3.75 19.5 3.75Z" fill="#09131A"/>
</g>
<path fill-rule="evenodd" clip-rule="evenodd" d="M3 4.5C3 3.67157 3.67157 3 4.5 3H19.5C20.3284 3 21 3.67157 21 4.5V19.5C21 20.3284 20.3284 21 19.5 21H4.5C3.67157 21 3 20.3284 3 19.5V4.5ZM19.5 4.5H4.5V19.5H19.5V4.5Z" fill="#0B1918"/>
<path fill-rule="evenodd" clip-rule="evenodd" d="M3 4.5C3 3.67157 3.67157 3 4.5 3H19.5C20.3284 3 21 3.67157 21 4.5V19.5C21 20.3284 20.3284 21 19.5 21H4.5C3.67157 21 3 20.3284 3 19.5V4.5ZM19.5 4.5H4.5V19.5H19.5V4.5Z" fill="#09131A"/>
<path fill-rule="evenodd" clip-rule="evenodd" d="M11.25 9.74976C11.6642 9.74976 12 10.0855 12 10.4998V16.4998C12 16.914 11.6642 17.2498 11.25 17.2498C10.8358 17.2498 10.5 16.914 10.5 16.4998V10.4998C10.5 10.0855 10.8358 9.74976 11.25 9.74976Z" fill="#0B1918"/>
<path fill-rule="evenodd" clip-rule="evenodd" d="M11.25 9.74976C11.6642 9.74976 12 10.0855 12 10.4998V16.4998C12 16.914 11.6642 17.2498 11.25 17.2498C10.8358 17.2498 10.5 16.914 10.5 16.4998V10.4998C10.5 10.0855 10.8358 9.74976 11.25 9.74976Z" fill="#09131A"/>
<path fill-rule="evenodd" clip-rule="evenodd" d="M8.25 9.74976C8.66421 9.74976 9 10.0855 9 10.4998V16.4998C9 16.914 8.66421 17.2498 8.25 17.2498C7.83579 17.2498 7.5 16.914 7.5 16.4998V10.4998C7.5 10.0855 7.83579 9.74976 8.25 9.74976Z" fill="#0B1918"/>
<path fill-rule="evenodd" clip-rule="evenodd" d="M8.25 9.74976C8.66421 9.74976 9 10.0855 9 10.4998V16.4998C9 16.914 8.66421 17.2498 8.25 17.2498C7.83579 17.2498 7.5 16.914 7.5 16.4998V10.4998C7.5 10.0855 7.83579 9.74976 8.25 9.74976Z" fill="#09131A"/>
<path fill-rule="evenodd" clip-rule="evenodd" d="M13.875 11.2498C13.3777 11.2498 12.9008 11.4473 12.5492 11.7989C12.1975 12.1506 12 12.6275 12 13.1248C12 13.539 11.6642 13.8748 11.25 13.8748C10.8358 13.8748 10.5 13.539 10.5 13.1248C10.5 12.2297 10.8556 11.3712 11.4885 10.7383C12.1214 10.1053 12.9799 9.74976 13.875 9.74976C14.7701 9.74976 15.6286 10.1053 16.2615 10.7383C16.8944 11.3712 17.25 12.2297 17.25 13.1248V16.4998C17.25 16.914 16.9142 17.2498 16.5 17.2498C16.0858 17.2498 15.75 16.914 15.75 16.4998V13.1248C15.75 12.6275 15.5525 12.1506 15.2008 11.7989C14.8492 11.4473 14.3723 11.2498 13.875 11.2498Z" fill="#0B1918"/>
<path fill-rule="evenodd" clip-rule="evenodd" d="M13.875 11.2498C13.3777 11.2498 12.9008 11.4473 12.5492 11.7989C12.1975 12.1506 12 12.6275 12 13.1248C12 13.539 11.6642 13.8748 11.25 13.8748C10.8358 13.8748 10.5 13.539 10.5 13.1248C10.5 12.2297 10.8556 11.3712 11.4885 10.7383C12.1214 10.1053 12.9799 9.74976 13.875 9.74976C14.7701 9.74976 15.6286 10.1053 16.2615 10.7383C16.8944 11.3712 17.25 12.2297 17.25 13.1248V16.4998C17.25 16.914 16.9142 17.2498 16.5 17.2498C16.0858 17.2498 15.75 16.914 15.75 16.4998V13.1248C15.75 12.6275 15.5525 12.1506 15.2008 11.7989C14.8492 11.4473 14.3723 11.2498 13.875 11.2498Z" fill="#09131A"/>
<path d="M8.25 8.625C8.87132 8.625 9.375 8.12132 9.375 7.5C9.375 6.87868 8.87132 6.375 8.25 6.375C7.62868 6.375 7.125 6.87868 7.125 7.5C7.125 8.12132 7.62868 8.625 8.25 8.625Z" fill="#0B1918"/>
<path d="M8.25 8.625C8.87132 8.625 9.375 8.12132 9.375 7.5C9.375 6.87868 8.87132 6.375 8.25 6.375C7.62868 6.375 7.125 6.87868 7.125 7.5C7.125 8.12132 7.62868 8.625 8.25 8.625Z" fill="#09131A"/>
</svg>
