<svg width="24" height="24" viewBox="0 0 24 24" fill="none" xmlns="http://www.w3.org/2000/svg">
<path fill-rule="evenodd" clip-rule="evenodd" d="M15.7117 8.28681C16.0046 8.5797 16.0046 9.05458 15.7117 9.34747L9.34771 15.7114C9.05482 16.0043 8.57995 16.0043 8.28705 15.7114C7.99416 15.4185 7.99416 14.9437 8.28705 14.6508L14.651 8.28681C14.9439 7.99392 15.4188 7.99392 15.7117 8.28681Z" fill="#0B1918"/>
<path fill-rule="evenodd" clip-rule="evenodd" d="M15.7117 8.28681C16.0046 8.5797 16.0046 9.05458 15.7117 9.34747L9.34771 15.7114C9.05482 16.0043 8.57995 16.0043 8.28705 15.7114C7.99416 15.4185 7.99416 14.9437 8.28705 14.6508L14.651 8.28681C14.9439 7.99392 15.4188 7.99392 15.7117 8.28681Z" fill="#09131A"/>
<path fill-rule="evenodd" clip-rule="evenodd" d="M7.75659 9.87861C8.04948 10.1715 8.04948 10.6464 7.75659 10.9393L5.10494 13.5909C4.40168 14.2942 4.00659 15.248 4.00659 16.2426C4.00659 17.2371 4.40168 18.191 5.10494 18.8942C5.8082 19.5975 6.76203 19.9926 7.75659 19.9926C8.75115 19.9926 9.70498 19.5975 10.4082 18.8942L13.0599 16.2426C13.3528 15.9497 13.8277 15.9497 14.1206 16.2426C14.4134 16.5355 14.4134 17.0103 14.1205 17.3032L11.4689 19.9549C10.4843 20.9394 9.14897 21.4926 7.75659 21.4926C6.3642 21.4926 5.02885 20.9394 4.04428 19.9549C3.05972 18.9703 2.50659 17.6349 2.50659 16.2426C2.50659 14.8502 3.05971 13.5148 4.04428 12.5303L4.57461 13.0606L4.04428 12.5303L6.69593 9.87861C6.98882 9.58571 7.4637 9.58571 7.75659 9.87861Z" fill="#0B1918"/>
<path fill-rule="evenodd" clip-rule="evenodd" d="M7.75659 9.87861C8.04948 10.1715 8.04948 10.6464 7.75659 10.9393L5.10494 13.5909C4.40168 14.2942 4.00659 15.248 4.00659 16.2426C4.00659 17.2371 4.40168 18.191 5.10494 18.8942C5.8082 19.5975 6.76203 19.9926 7.75659 19.9926C8.75115 19.9926 9.70498 19.5975 10.4082 18.8942L13.0599 16.2426C13.3528 15.9497 13.8277 15.9497 14.1206 16.2426C14.4134 16.5355 14.4134 17.0103 14.1205 17.3032L11.4689 19.9549C10.4843 20.9394 9.14897 21.4926 7.75659 21.4926C6.3642 21.4926 5.02885 20.9394 4.04428 19.9549C3.05972 18.9703 2.50659 17.6349 2.50659 16.2426C2.50659 14.8502 3.05971 13.5148 4.04428 12.5303L4.57461 13.0606L4.04428 12.5303L6.69593 9.87861C6.98882 9.58571 7.4637 9.58571 7.75659 9.87861Z" fill="#09131A"/>
<path fill-rule="evenodd" clip-rule="evenodd" d="M12.5301 4.04438C13.5147 3.06009 14.85 2.50721 16.2422 2.50732C17.6345 2.50744 18.9696 3.06056 19.9541 4.04501C20.9385 5.02947 21.4917 6.36465 21.4918 7.75688C21.4919 9.14911 20.939 10.4844 19.9547 11.469L17.303 14.1207C17.0101 14.4136 16.5352 14.4136 16.2423 14.1207C15.9494 13.8279 15.9494 13.353 16.2423 13.0601L18.8939 10.4085C18.8939 10.4085 18.8939 10.4085 18.894 10.4084C19.597 9.70514 19.9919 8.75141 19.9918 7.75701C19.9917 6.76256 19.5966 5.80886 18.8934 5.10568C18.1902 4.40249 17.2365 4.00741 16.2421 4.00733C15.2477 4.00724 14.294 4.40212 13.5907 5.10513C13.5906 5.10516 13.5906 5.10519 13.5906 5.10522L10.939 7.75678C10.6461 8.04967 10.1713 8.04967 9.87836 7.75678C9.58547 7.46389 9.58547 6.98901 9.87836 6.69612L12.5301 4.04438Z" fill="#0B1918"/>
<path fill-rule="evenodd" clip-rule="evenodd" d="M12.5301 4.04438C13.5147 3.06009 14.85 2.50721 16.2422 2.50732C17.6345 2.50744 18.9696 3.06056 19.9541 4.04501C20.9385 5.02947 21.4917 6.36465 21.4918 7.75688C21.4919 9.14911 20.939 10.4844 19.9547 11.469L17.303 14.1207C17.0101 14.4136 16.5352 14.4136 16.2423 14.1207C15.9494 13.8279 15.9494 13.353 16.2423 13.0601L18.8939 10.4085C18.8939 10.4085 18.8939 10.4085 18.894 10.4084C19.597 9.70514 19.9919 8.75141 19.9918 7.75701C19.9917 6.76256 19.5966 5.80886 18.8934 5.10568C18.1902 4.40249 17.2365 4.00741 16.2421 4.00733C15.2477 4.00724 14.294 4.40212 13.5907 5.10513C13.5906 5.10516 13.5906 5.10519 13.5906 5.10522L10.939 7.75678C10.6461 8.04967 10.1713 8.04967 9.87836 7.75678C9.58547 7.46389 9.58547 6.98901 9.87836 6.69612L12.5301 4.04438Z" fill="#09131A"/>
</svg>
