<svg width="24" height="24" viewBox="0 0 24 24" fill="none" xmlns="http://www.w3.org/2000/svg">
<g opacity="0.2">
<path d="M18 20.25V3.75C18 2.92157 17.3284 2.25 16.5 2.25L7.5 2.25C6.67157 2.25 6 2.92157 6 3.75L6 20.25C6 21.0784 6.67157 21.75 7.5 21.75H16.5C17.3284 21.75 18 21.0784 18 20.25Z" fill="#0B1918"/>
<path d="M18 20.25V3.75C18 2.92157 17.3284 2.25 16.5 2.25L7.5 2.25C6.67157 2.25 6 2.92157 6 3.75L6 20.25C6 21.0784 6.67157 21.75 7.5 21.75H16.5C17.3284 21.75 18 21.0784 18 20.25Z" fill="#09131A"/>
</g>
<path fill-rule="evenodd" clip-rule="evenodd" d="M17.25 3.75C17.25 3.33579 16.9142 3 16.5 3L7.5 3C7.08579 3 6.75 3.33579 6.75 3.75L6.75 20.25C6.75 20.6642 7.08579 21 7.5 21H16.5C16.9142 21 17.25 20.6642 17.25 20.25V3.75ZM16.5 1.5C17.7426 1.5 18.75 2.50736 18.75 3.75V20.25C18.75 21.4926 17.7426 22.5 16.5 22.5H7.5C6.25736 22.5 5.25 21.4926 5.25 20.25L5.25 3.75C5.25 2.50736 6.25736 1.5 7.5 1.5L16.5 1.5Z" fill="#0B1918"/>
<path fill-rule="evenodd" clip-rule="evenodd" d="M17.25 3.75C17.25 3.33579 16.9142 3 16.5 3L7.5 3C7.08579 3 6.75 3.33579 6.75 3.75L6.75 20.25C6.75 20.6642 7.08579 21 7.5 21H16.5C16.9142 21 17.25 20.6642 17.25 20.25V3.75ZM16.5 1.5C17.7426 1.5 18.75 2.50736 18.75 3.75V20.25C18.75 21.4926 17.7426 22.5 16.5 22.5H7.5C6.25736 22.5 5.25 21.4926 5.25 20.25L5.25 3.75C5.25 2.50736 6.25736 1.5 7.5 1.5L16.5 1.5Z" fill="#09131A"/>
<path fill-rule="evenodd" clip-rule="evenodd" d="M8.25 3.1499C8.25 2.73569 8.58579 2.3999 9 2.3999H15C15.4142 2.3999 15.75 2.73569 15.75 3.1499C15.75 3.56412 15.4142 3.8999 15 3.8999H9C8.58579 3.8999 8.25 3.56412 8.25 3.1499Z" fill="#0B1918"/>
<path fill-rule="evenodd" clip-rule="evenodd" d="M8.25 3.1499C8.25 2.73569 8.58579 2.3999 9 2.3999H15C15.4142 2.3999 15.75 2.73569 15.75 3.1499C15.75 3.56412 15.4142 3.8999 15 3.8999H9C8.58579 3.8999 8.25 3.56412 8.25 3.1499Z" fill="#09131A"/>
</svg>
