<svg width="24" height="24" viewBox="0 0 24 24" fill="none" xmlns="http://www.w3.org/2000/svg">
<g opacity="0.2">
<path d="M12 21C16.9706 21 21 16.9706 21 12C21 7.02944 16.9706 3 12 3C7.02944 3 3 7.02944 3 12C3 16.9706 7.02944 21 12 21Z" fill="#0B1918"/>
<path d="M12 21C16.9706 21 21 16.9706 21 12C21 7.02944 16.9706 3 12 3C7.02944 3 3 7.02944 3 12C3 16.9706 7.02944 21 12 21Z" fill="#09131A"/>
</g>
<path fill-rule="evenodd" clip-rule="evenodd" d="M12 3.75C7.44365 3.75 3.75 7.44365 3.75 12C3.75 16.5563 7.44365 20.25 12 20.25C16.5563 20.25 20.25 16.5563 20.25 12C20.25 7.44365 16.5563 3.75 12 3.75ZM2.25 12C2.25 6.61522 6.61522 2.25 12 2.25C17.3848 2.25 21.75 6.61522 21.75 12C21.75 17.3848 17.3848 21.75 12 21.75C6.61522 21.75 2.25 17.3848 2.25 12Z" fill="#0B1918"/>
<path fill-rule="evenodd" clip-rule="evenodd" d="M12 3.75C7.44365 3.75 3.75 7.44365 3.75 12C3.75 16.5563 7.44365 20.25 12 20.25C16.5563 20.25 20.25 16.5563 20.25 12C20.25 7.44365 16.5563 3.75 12 3.75ZM2.25 12C2.25 6.61522 6.61522 2.25 12 2.25C17.3848 2.25 21.75 6.61522 21.75 12C21.75 17.3848 17.3848 21.75 12 21.75C6.61522 21.75 2.25 17.3848 2.25 12Z" fill="#09131A"/>
<path fill-rule="evenodd" clip-rule="evenodd" d="M9.37502 14.2039C10.1732 13.7434 11.0784 13.501 11.9999 13.501C12.9214 13.501 13.8266 13.7434 14.6248 14.2039C15.4229 14.6644 16.0859 15.3268 16.5471 16.1245C16.7544 16.4831 16.6318 16.9419 16.2732 17.1492C15.9146 17.3565 15.4559 17.2339 15.2485 16.8753C14.919 16.3054 14.4454 15.8322 13.8752 15.5032C13.3049 15.1742 12.6582 15.001 11.9999 15.001C11.3416 15.001 10.6948 15.1742 10.1246 15.5031C9.55438 15.8321 9.08073 16.3053 8.75122 16.8752C8.54389 17.2338 8.08512 17.3564 7.72653 17.1491C7.36794 16.9418 7.24532 16.483 7.45265 16.1244C7.91388 15.3267 8.57686 14.6643 9.37502 14.2039Z" fill="#0B1918"/>
<path fill-rule="evenodd" clip-rule="evenodd" d="M9.37502 14.2039C10.1732 13.7434 11.0784 13.501 11.9999 13.501C12.9214 13.501 13.8266 13.7434 14.6248 14.2039C15.4229 14.6644 16.0859 15.3268 16.5471 16.1245C16.7544 16.4831 16.6318 16.9419 16.2732 17.1492C15.9146 17.3565 15.4559 17.2339 15.2485 16.8753C14.919 16.3054 14.4454 15.8322 13.8752 15.5032C13.3049 15.1742 12.6582 15.001 11.9999 15.001C11.3416 15.001 10.6948 15.1742 10.1246 15.5031C9.55438 15.8321 9.08073 16.3053 8.75122 16.8752C8.54389 17.2338 8.08512 17.3564 7.72653 17.1491C7.36794 16.9418 7.24532 16.483 7.45265 16.1244C7.91388 15.3267 8.57686 14.6643 9.37502 14.2039Z" fill="#09131A"/>
<path d="M8.625 11.25C9.24632 11.25 9.75 10.7463 9.75 10.125C9.75 9.50368 9.24632 9 8.625 9C8.00368 9 7.5 9.50368 7.5 10.125C7.5 10.7463 8.00368 11.25 8.625 11.25Z" fill="#0B1918"/>
<path d="M8.625 11.25C9.24632 11.25 9.75 10.7463 9.75 10.125C9.75 9.50368 9.24632 9 8.625 9C8.00368 9 7.5 9.50368 7.5 10.125C7.5 10.7463 8.00368 11.25 8.625 11.25Z" fill="#09131A"/>
<path d="M15.375 11.25C15.9963 11.25 16.5 10.7463 16.5 10.125C16.5 9.50368 15.9963 9 15.375 9C14.7537 9 14.25 9.50368 14.25 10.125C14.25 10.7463 14.7537 11.25 15.375 11.25Z" fill="#0B1918"/>
<path d="M15.375 11.25C15.9963 11.25 16.5 10.7463 16.5 10.125C16.5 9.50368 15.9963 9 15.375 9C14.7537 9 14.25 9.50368 14.25 10.125C14.25 10.7463 14.7537 11.25 15.375 11.25Z" fill="#09131A"/>
<path d="M8.625 11.25C9.24632 11.25 9.75 10.7463 9.75 10.125C9.75 9.50368 9.24632 9 8.625 9C8.00368 9 7.5 9.50368 7.5 10.125C7.5 10.7463 8.00368 11.25 8.625 11.25Z" fill="#0B1918"/>
<path d="M8.625 11.25C9.24632 11.25 9.75 10.7463 9.75 10.125C9.75 9.50368 9.24632 9 8.625 9C8.00368 9 7.5 9.50368 7.5 10.125C7.5 10.7463 8.00368 11.25 8.625 11.25Z" fill="#09131A"/>
<path d="M15.375 11.25C15.9963 11.25 16.5 10.7463 16.5 10.125C16.5 9.50368 15.9963 9 15.375 9C14.7537 9 14.25 9.50368 14.25 10.125C14.25 10.7463 14.7537 11.25 15.375 11.25Z" fill="#0B1918"/>
<path d="M15.375 11.25C15.9963 11.25 16.5 10.7463 16.5 10.125C16.5 9.50368 15.9963 9 15.375 9C14.7537 9 14.25 9.50368 14.25 10.125C14.25 10.7463 14.7537 11.25 15.375 11.25Z" fill="#09131A"/>
</svg>
