<svg width="24" height="24" viewBox="0 0 24 24" fill="none" xmlns="http://www.w3.org/2000/svg">
<g opacity="0.2">
<path d="M10.8745 18.75C15.2238 18.75 18.7495 15.2242 18.7495 10.875C18.7495 6.52576 15.2238 3 10.8745 3C6.52527 3 2.99951 6.52576 2.99951 10.875C2.99951 15.2242 6.52527 18.75 10.8745 18.75Z" fill="#0B1918"/>
<path d="M10.8745 18.75C15.2238 18.75 18.7495 15.2242 18.7495 10.875C18.7495 6.52576 15.2238 3 10.8745 3C6.52527 3 2.99951 6.52576 2.99951 10.875C2.99951 15.2242 6.52527 18.75 10.8745 18.75Z" fill="#09131A"/>
</g>
<path fill-rule="evenodd" clip-rule="evenodd" d="M10.8745 3.75C6.93948 3.75 3.74951 6.93997 3.74951 10.875C3.74951 14.81 6.93948 18 10.8745 18C14.8095 18 17.9995 14.81 17.9995 10.875C17.9995 6.93997 14.8095 3.75 10.8745 3.75ZM2.24951 10.875C2.24951 6.11154 6.11106 2.25 10.8745 2.25C15.638 2.25 19.4995 6.11154 19.4995 10.875C19.4995 15.6385 15.638 19.5 10.8745 19.5C6.11106 19.5 2.24951 15.6385 2.24951 10.875Z" fill="#0B1918"/>
<path fill-rule="evenodd" clip-rule="evenodd" d="M10.8745 3.75C6.93948 3.75 3.74951 6.93997 3.74951 10.875C3.74951 14.81 6.93948 18 10.8745 18C14.8095 18 17.9995 14.81 17.9995 10.875C17.9995 6.93997 14.8095 3.75 10.8745 3.75ZM2.24951 10.875C2.24951 6.11154 6.11106 2.25 10.8745 2.25C15.638 2.25 19.4995 6.11154 19.4995 10.875C19.4995 15.6385 15.638 19.5 10.8745 19.5C6.11106 19.5 2.24951 15.6385 2.24951 10.875Z" fill="#09131A"/>
<path fill-rule="evenodd" clip-rule="evenodd" d="M15.9123 15.9135C16.2052 15.6206 16.6801 15.6206 16.973 15.9135L21.5293 20.4698C21.8222 20.7627 21.8222 21.2376 21.5293 21.5305C21.2364 21.8234 20.7615 21.8234 20.4686 21.5305L15.9123 16.9742C15.6194 16.6813 15.6194 16.2064 15.9123 15.9135Z" fill="#0B1918"/>
<path fill-rule="evenodd" clip-rule="evenodd" d="M15.9123 15.9135C16.2052 15.6206 16.6801 15.6206 16.973 15.9135L21.5293 20.4698C21.8222 20.7627 21.8222 21.2376 21.5293 21.5305C21.2364 21.8234 20.7615 21.8234 20.4686 21.5305L15.9123 16.9742C15.6194 16.6813 15.6194 16.2064 15.9123 15.9135Z" fill="#09131A"/>
</svg>
