<svg width="24" height="24" viewBox="0 0 24 24" fill="none" xmlns="http://www.w3.org/2000/svg">
<g opacity="0.2">
<path d="M12 21C16.9706 21 21 16.9706 21 12C21 7.02944 16.9706 3 12 3C7.02944 3 3 7.02944 3 12C3 16.9706 7.02944 21 12 21Z" fill="#0B1918"/>
<path d="M12 21C16.9706 21 21 16.9706 21 12C21 7.02944 16.9706 3 12 3C7.02944 3 3 7.02944 3 12C3 16.9706 7.02944 21 12 21Z" fill="#09131A"/>
</g>
<path fill-rule="evenodd" clip-rule="evenodd" d="M12 3.75C7.44365 3.75 3.75 7.44365 3.75 12C3.75 16.5563 7.44365 20.25 12 20.25C16.5563 20.25 20.25 16.5563 20.25 12C20.25 7.44365 16.5563 3.75 12 3.75ZM2.25 12C2.25 6.61522 6.61522 2.25 12 2.25C17.3848 2.25 21.75 6.61522 21.75 12C21.75 17.3848 17.3848 21.75 12 21.75C6.61522 21.75 2.25 17.3848 2.25 12Z" fill="#0B1918"/>
<path fill-rule="evenodd" clip-rule="evenodd" d="M12 3.75C7.44365 3.75 3.75 7.44365 3.75 12C3.75 16.5563 7.44365 20.25 12 20.25C16.5563 20.25 20.25 16.5563 20.25 12C20.25 7.44365 16.5563 3.75 12 3.75ZM2.25 12C2.25 6.61522 6.61522 2.25 12 2.25C17.3848 2.25 21.75 6.61522 21.75 12C21.75 17.3848 17.3848 21.75 12 21.75C6.61522 21.75 2.25 17.3848 2.25 12Z" fill="#09131A"/>
<path fill-rule="evenodd" clip-rule="evenodd" d="M11.9948 8.25C13.7824 8.24915 15.5445 8.6736 17.1356 9.4883C17.5043 9.67708 17.6501 10.129 17.4613 10.4977C17.2726 10.8664 16.8206 11.0122 16.4519 10.8234C15.0727 10.1172 13.5451 9.74926 11.9955 9.75C10.4459 9.75073 8.91875 10.1201 7.54012 10.8277C7.17161 11.0168 6.71955 10.8714 6.53041 10.5029C6.34128 10.1344 6.4867 9.68231 6.85522 9.49318C8.44555 8.67697 10.2073 8.25085 11.9948 8.25Z" fill="#0B1918"/>
<path fill-rule="evenodd" clip-rule="evenodd" d="M11.9948 8.25C13.7824 8.24915 15.5445 8.6736 17.1356 9.4883C17.5043 9.67708 17.6501 10.129 17.4613 10.4977C17.2726 10.8664 16.8206 11.0122 16.4519 10.8234C15.0727 10.1172 13.5451 9.74926 11.9955 9.75C10.4459 9.75073 8.91875 10.1201 7.54012 10.8277C7.17161 11.0168 6.71955 10.8714 6.53041 10.5029C6.34128 10.1344 6.4867 9.68231 6.85522 9.49318C8.44555 8.67697 10.2073 8.25085 11.9948 8.25Z" fill="#09131A"/>
<path fill-rule="evenodd" clip-rule="evenodd" d="M11.9946 11.25C13.2976 11.2492 14.5822 11.5572 15.7431 12.1488C16.1122 12.3368 16.2589 12.7885 16.0709 13.1575C15.8828 13.5266 15.4312 13.6733 15.0621 13.4852C14.1124 13.0013 13.0615 12.7493 11.9955 12.75C10.9296 12.7507 9.87903 13.004 8.92993 13.4892C8.56112 13.6778 8.10929 13.5316 7.92074 13.1628C7.7322 12.794 7.87833 12.3422 8.24714 12.1536C9.40732 11.5605 10.6916 11.2509 11.9946 11.25Z" fill="#0B1918"/>
<path fill-rule="evenodd" clip-rule="evenodd" d="M11.9946 11.25C13.2976 11.2492 14.5822 11.5572 15.7431 12.1488C16.1122 12.3368 16.2589 12.7885 16.0709 13.1575C15.8828 13.5266 15.4312 13.6733 15.0621 13.4852C14.1124 13.0013 13.0615 12.7493 11.9955 12.75C10.9296 12.7507 9.87903 13.004 8.92993 13.4892C8.56112 13.6778 8.10929 13.5316 7.92074 13.1628C7.7322 12.794 7.87833 12.3422 8.24714 12.1536C9.40732 11.5605 10.6916 11.2509 11.9946 11.25Z" fill="#09131A"/>
<path fill-rule="evenodd" clip-rule="evenodd" d="M11.9944 14.25C12.8117 14.2491 13.6179 14.4391 14.3488 14.8048C14.7192 14.9902 14.8692 15.4408 14.6838 15.8112C14.4985 16.1816 14.0479 16.3316 13.6775 16.1462C13.1555 15.885 12.5798 15.7494 11.9961 15.75C11.4124 15.7506 10.8369 15.8876 10.3155 16.1499C9.94554 16.3361 9.49465 16.1871 9.30847 15.8171C9.12229 15.4471 9.27131 14.9962 9.64132 14.81C10.3714 14.4427 11.1772 14.2509 11.9944 14.25Z" fill="#0B1918"/>
<path fill-rule="evenodd" clip-rule="evenodd" d="M11.9944 14.25C12.8117 14.2491 13.6179 14.4391 14.3488 14.8048C14.7192 14.9902 14.8692 15.4408 14.6838 15.8112C14.4985 16.1816 14.0479 16.3316 13.6775 16.1462C13.1555 15.885 12.5798 15.7494 11.9961 15.75C11.4124 15.7506 10.8369 15.8876 10.3155 16.1499C9.94554 16.3361 9.49465 16.1871 9.30847 15.8171C9.12229 15.4471 9.27131 14.9962 9.64132 14.81C10.3714 14.4427 11.1772 14.2509 11.9944 14.25Z" fill="#09131A"/>
</svg>
