<svg width="24" height="24" viewBox="0 0 24 24" fill="none" xmlns="http://www.w3.org/2000/svg">
<path fill-rule="evenodd" clip-rule="evenodd" d="M17.1279 5.58453C16.5154 5.26824 15.8127 5.17247 15.138 5.31331C14.4632 5.45415 13.8575 5.82302 13.4227 6.35789C12.9879 6.89275 12.7505 7.56099 12.7504 8.25027C12.7504 8.2503 12.7504 8.25025 12.7504 8.25027V9.75C12.7504 9.97047 12.6534 10.1798 12.4852 10.3223C12.317 10.4648 12.0946 10.526 11.8771 10.4898C9.45865 10.0867 7.46836 8.88397 6.09957 7.80849C5.69465 7.49034 5.34071 7.18065 5.04248 6.90162C4.82083 9.93246 5.75667 11.8903 6.76689 13.117C7.36196 13.8396 7.99973 14.3283 8.48635 14.6351C8.72917 14.7882 8.93249 14.8948 9.0711 14.9615C9.14033 14.9949 9.19316 15.0182 9.22641 15.0323C9.24302 15.0394 9.25472 15.0441 9.26109 15.0466C9.26299 15.0474 9.26442 15.048 9.26536 15.0483L9.2646 15.0481C9.26524 15.0483 9.26587 15.0485 9.26651 15.0488C9.26674 15.0489 9.26671 15.0489 9.26624 15.0487L9.26651 15.0488C9.64246 15.1914 9.83921 15.6054 9.71195 15.9872C9.23163 17.4281 7.84551 18.292 6.77954 18.7765C6.6139 18.8518 6.45085 18.9203 6.29332 18.9822C6.17396 18.9318 6.06315 18.8803 5.96085 18.8292C5.63048 18.664 5.38734 18.5011 5.23169 18.3844C5.15391 18.326 5.09821 18.2794 5.06463 18.25C5.04785 18.2353 5.03663 18.225 5.03097 18.2197C5.02815 18.217 5.02672 18.2157 5.02668 18.2156C5.02666 18.2156 5.02699 18.2159 5.02768 18.2166L5.02896 18.2179L5.0298 18.2187L5.03027 18.2192C5.03052 18.2194 5.03077 18.2197 4.50044 18.75L4.35335 18.0146L4.35778 18.0136C4.36273 18.0126 4.37107 18.0108 4.38261 18.0083C4.40569 18.0033 4.44149 17.9952 4.4884 17.984C4.5823 17.9615 4.72012 17.9264 4.88899 17.8774C5.22837 17.7789 5.6848 17.6264 6.15884 17.411C6.90788 17.0705 7.58198 16.6265 7.98512 16.0835C8.15426 16.1801 8.30168 16.2559 8.42001 16.3129C8.51191 16.3572 8.58652 16.3902 8.64044 16.4131C8.6674 16.4246 8.68922 16.4335 8.70546 16.4399C8.71358 16.4432 8.72031 16.4458 8.7256 16.4479L8.73245 16.4505L8.73505 16.4515L8.73614 16.4519C8.73663 16.4521 8.7371 16.4523 9.00044 15.75C9.26378 15.0478 9.2642 15.0479 9.2646 15.0481C9.26433 15.048 9.26405 15.0479 9.26378 15.0478L9.00044 15.75L8.28893 15.5128C8.22195 15.7138 8.11833 15.904 7.98512 16.0835C7.89176 16.0301 7.79177 15.9704 7.6864 15.904C7.0949 15.5311 6.32642 14.9417 5.60899 14.0705C4.15374 12.3034 2.97376 9.45411 3.76254 5.11584C3.81512 4.82666 4.03177 4.59484 4.31674 4.52285C4.60143 4.45093 4.90186 4.55176 5.08553 4.78078C5.08572 4.78102 5.0859 4.78125 5.08609 4.78148L4.50044 5.25C5.08609 4.78148 5.08596 4.78132 5.08583 4.78116L5.08565 4.78093C5.08572 4.78102 5.08579 4.78111 5.08593 4.78128L5.09007 4.78637C5.09425 4.79149 5.10127 4.80003 5.11108 4.81179C5.13071 4.83531 5.16149 4.87169 5.20306 4.91929C5.28622 5.01453 5.41234 5.15444 5.57845 5.32609C5.91114 5.66987 6.40165 6.13821 7.0263 6.62902C8.10275 7.4748 9.54891 8.3648 11.2504 8.82048V9.75H12.0004L12.1237 9.01021C11.8259 8.96056 11.5346 8.89658 11.2504 8.82048V8.25027C11.2505 7.21638 11.6066 6.21398 12.2588 5.41172C12.9109 4.60946 13.8194 4.0562 14.8315 3.84495C15.8436 3.63371 16.8975 3.77736 17.8162 4.25175C18.5848 4.64868 19.2194 5.2569 19.6485 5.99997L22.5005 6C22.8038 6.00001 23.0773 6.18274 23.1934 6.463C23.3094 6.74325 23.2453 7.06584 23.0308 7.28033L20.2462 10.0649C20.0985 15.5522 16.0977 21 9.00044 21C7.37087 21 6.13174 20.5917 5.29003 20.1708C4.8704 19.961 4.55104 19.7489 4.33169 19.5844C4.22196 19.5021 4.13704 19.4315 4.07687 19.3789C4.04678 19.3526 4.02284 19.3307 4.00506 19.314C3.99617 19.3057 3.98881 19.2986 3.98299 19.293C3.98007 19.2902 3.97755 19.2877 3.9754 19.2856L3.97247 19.2827L3.97064 19.2809C3.97037 19.2806 3.97011 19.2803 4.50044 18.75C4.64753 19.4854 4.64773 19.4854 4.64796 19.4854L4.64977 19.485L4.65338 19.4843L4.66466 19.4819C4.67395 19.48 4.68675 19.4773 4.70286 19.4737C4.73508 19.4667 4.78058 19.4564 4.83768 19.4428C4.95178 19.4154 5.11279 19.3744 5.3072 19.3179C5.57929 19.2389 5.92089 19.1287 6.29332 18.9822C6.942 19.2563 7.84298 19.5 9.00044 19.5C15.2674 19.5 18.7504 14.6582 18.7504 9.75C18.7504 9.55109 18.8295 9.36033 18.9701 9.21967L20.6898 7.49998L22.5004 7.5L22.5004 6.75L21.9701 6.21967L20.6898 7.49998L19.1884 7.49997C18.8902 7.49996 18.6203 7.32332 18.501 7.05005C18.2252 6.41832 17.7403 5.90081 17.1279 5.58453ZM4.35301 18.0146C4.35318 18.0146 4.35443 18.0199 4.50044 18.75L3.97011 19.2803C3.77453 19.0848 3.70247 18.7974 3.78262 18.5327C3.86269 18.2682 4.08169 18.0692 4.35254 18.0147C4.35259 18.0147 4.35264 18.0147 4.35269 18.0147C4.3528 18.0147 4.35291 18.0147 4.35301 18.0146ZM4.35301 18.0146C4.35301 18.0146 4.35301 18.0146 4.35301 18.0146Z" fill="#0B1918"/>
<path fill-rule="evenodd" clip-rule="evenodd" d="M17.1279 5.58453C16.5154 5.26824 15.8127 5.17247 15.138 5.31331C14.4632 5.45415 13.8575 5.82302 13.4227 6.35789C12.9879 6.89275 12.7505 7.56099 12.7504 8.25027C12.7504 8.2503 12.7504 8.25025 12.7504 8.25027V9.75C12.7504 9.97047 12.6534 10.1798 12.4852 10.3223C12.317 10.4648 12.0946 10.526 11.8771 10.4898C9.45865 10.0867 7.46836 8.88397 6.09957 7.80849C5.69465 7.49034 5.34071 7.18065 5.04248 6.90162C4.82083 9.93246 5.75667 11.8903 6.76689 13.117C7.36196 13.8396 7.99973 14.3283 8.48635 14.6351C8.72917 14.7882 8.93249 14.8948 9.0711 14.9615C9.14033 14.9949 9.19316 15.0182 9.22641 15.0323C9.24302 15.0394 9.25472 15.0441 9.26109 15.0466C9.26299 15.0474 9.26442 15.048 9.26536 15.0483L9.2646 15.0481C9.26524 15.0483 9.26587 15.0485 9.26651 15.0488C9.26674 15.0489 9.26671 15.0489 9.26624 15.0487L9.26651 15.0488C9.64246 15.1914 9.83921 15.6054 9.71195 15.9872C9.23163 17.4281 7.84551 18.292 6.77954 18.7765C6.6139 18.8518 6.45085 18.9203 6.29332 18.9822C6.17396 18.9318 6.06315 18.8803 5.96085 18.8292C5.63048 18.664 5.38734 18.5011 5.23169 18.3844C5.15391 18.326 5.09821 18.2794 5.06463 18.25C5.04785 18.2353 5.03663 18.225 5.03097 18.2197C5.02815 18.217 5.02672 18.2157 5.02668 18.2156C5.02666 18.2156 5.02699 18.2159 5.02768 18.2166L5.02896 18.2179L5.0298 18.2187L5.03027 18.2192C5.03052 18.2194 5.03077 18.2197 4.50044 18.75L4.35335 18.0146L4.35778 18.0136C4.36273 18.0126 4.37107 18.0108 4.38261 18.0083C4.40569 18.0033 4.44149 17.9952 4.4884 17.984C4.5823 17.9615 4.72012 17.9264 4.88899 17.8774C5.22837 17.7789 5.6848 17.6264 6.15884 17.411C6.90788 17.0705 7.58198 16.6265 7.98512 16.0835C8.15426 16.1801 8.30168 16.2559 8.42001 16.3129C8.51191 16.3572 8.58652 16.3902 8.64044 16.4131C8.6674 16.4246 8.68922 16.4335 8.70546 16.4399C8.71358 16.4432 8.72031 16.4458 8.7256 16.4479L8.73245 16.4505L8.73505 16.4515L8.73614 16.4519C8.73663 16.4521 8.7371 16.4523 9.00044 15.75C9.26378 15.0478 9.2642 15.0479 9.2646 15.0481C9.26433 15.048 9.26405 15.0479 9.26378 15.0478L9.00044 15.75L8.28893 15.5128C8.22195 15.7138 8.11833 15.904 7.98512 16.0835C7.89176 16.0301 7.79177 15.9704 7.6864 15.904C7.0949 15.5311 6.32642 14.9417 5.60899 14.0705C4.15374 12.3034 2.97376 9.45411 3.76254 5.11584C3.81512 4.82666 4.03177 4.59484 4.31674 4.52285C4.60143 4.45093 4.90186 4.55176 5.08553 4.78078C5.08572 4.78102 5.0859 4.78125 5.08609 4.78148L4.50044 5.25C5.08609 4.78148 5.08596 4.78132 5.08583 4.78116L5.08565 4.78093C5.08572 4.78102 5.08579 4.78111 5.08593 4.78128L5.09007 4.78637C5.09425 4.79149 5.10127 4.80003 5.11108 4.81179C5.13071 4.83531 5.16149 4.87169 5.20306 4.91929C5.28622 5.01453 5.41234 5.15444 5.57845 5.32609C5.91114 5.66987 6.40165 6.13821 7.0263 6.62902C8.10275 7.4748 9.54891 8.3648 11.2504 8.82048V9.75H12.0004L12.1237 9.01021C11.8259 8.96056 11.5346 8.89658 11.2504 8.82048V8.25027C11.2505 7.21638 11.6066 6.21398 12.2588 5.41172C12.9109 4.60946 13.8194 4.0562 14.8315 3.84495C15.8436 3.63371 16.8975 3.77736 17.8162 4.25175C18.5848 4.64868 19.2194 5.2569 19.6485 5.99997L22.5005 6C22.8038 6.00001 23.0773 6.18274 23.1934 6.463C23.3094 6.74325 23.2453 7.06584 23.0308 7.28033L20.2462 10.0649C20.0985 15.5522 16.0977 21 9.00044 21C7.37087 21 6.13174 20.5917 5.29003 20.1708C4.8704 19.961 4.55104 19.7489 4.33169 19.5844C4.22196 19.5021 4.13704 19.4315 4.07687 19.3789C4.04678 19.3526 4.02284 19.3307 4.00506 19.314C3.99617 19.3057 3.98881 19.2986 3.98299 19.293C3.98007 19.2902 3.97755 19.2877 3.9754 19.2856L3.97247 19.2827L3.97064 19.2809C3.97037 19.2806 3.97011 19.2803 4.50044 18.75C4.64753 19.4854 4.64773 19.4854 4.64796 19.4854L4.64977 19.485L4.65338 19.4843L4.66466 19.4819C4.67395 19.48 4.68675 19.4773 4.70286 19.4737C4.73508 19.4667 4.78058 19.4564 4.83768 19.4428C4.95178 19.4154 5.11279 19.3744 5.3072 19.3179C5.57929 19.2389 5.92089 19.1287 6.29332 18.9822C6.942 19.2563 7.84298 19.5 9.00044 19.5C15.2674 19.5 18.7504 14.6582 18.7504 9.75C18.7504 9.55109 18.8295 9.36033 18.9701 9.21967L20.6898 7.49998L22.5004 7.5L22.5004 6.75L21.9701 6.21967L20.6898 7.49998L19.1884 7.49997C18.8902 7.49996 18.6203 7.32332 18.501 7.05005C18.2252 6.41832 17.7403 5.90081 17.1279 5.58453ZM4.35301 18.0146C4.35318 18.0146 4.35443 18.0199 4.50044 18.75L3.97011 19.2803C3.77453 19.0848 3.70247 18.7974 3.78262 18.5327C3.86269 18.2682 4.08169 18.0692 4.35254 18.0147C4.35259 18.0147 4.35264 18.0147 4.35269 18.0147C4.3528 18.0147 4.35291 18.0147 4.35301 18.0146ZM4.35301 18.0146C4.35301 18.0146 4.35301 18.0146 4.35301 18.0146Z" fill="#09131A"/>
<path d="M20.6898 7.49998L22.5004 7.5L22.5004 6.75L21.9701 6.21967L20.6898 7.49998Z" fill="#0B1918"/>
<path d="M20.6898 7.49998L22.5004 7.5L22.5004 6.75L21.9701 6.21967L20.6898 7.49998Z" fill="#09131A"/>
<path d="M11.2504 8.82048V9.75H12.0004L12.1237 9.01021C11.8259 8.96056 11.5346 8.89658 11.2504 8.82048Z" fill="#0B1918"/>
<path d="M11.2504 8.82048V9.75H12.0004L12.1237 9.01021C11.8259 8.96056 11.5346 8.89658 11.2504 8.82048Z" fill="#09131A"/>
<path d="M7.98512 16.0835C8.15426 16.1801 8.30168 16.2559 8.42001 16.3129C8.51191 16.3572 8.58652 16.3902 8.64044 16.4131C8.6674 16.4246 8.68922 16.4335 8.70546 16.4399C8.71358 16.4432 8.72031 16.4458 8.7256 16.4479L8.73245 16.4505L8.73505 16.4515L8.73614 16.4519C8.73663 16.4521 8.7371 16.4523 9.00044 15.75L8.28893 15.5128C8.22195 15.7138 8.11833 15.904 7.98512 16.0835Z" fill="#0B1918"/>
<path d="M7.98512 16.0835C8.15426 16.1801 8.30168 16.2559 8.42001 16.3129C8.51191 16.3572 8.58652 16.3902 8.64044 16.4131C8.6674 16.4246 8.68922 16.4335 8.70546 16.4399C8.71358 16.4432 8.72031 16.4458 8.7256 16.4479L8.73245 16.4505L8.73505 16.4515L8.73614 16.4519C8.73663 16.4521 8.7371 16.4523 9.00044 15.75L8.28893 15.5128C8.22195 15.7138 8.11833 15.904 7.98512 16.0835Z" fill="#09131A"/>
<path d="M6.29332 18.9822C6.17396 18.9318 6.06315 18.8803 5.96085 18.8292C5.63048 18.664 5.38734 18.5011 5.23169 18.3844C5.15391 18.326 5.09821 18.2794 5.06463 18.25C5.04785 18.2353 5.03663 18.225 5.03097 18.2197C5.02815 18.217 5.02672 18.2157 5.02668 18.2156C5.02666 18.2156 5.02699 18.2159 5.02768 18.2166L5.02896 18.2179L5.0298 18.2187L5.03027 18.2192C5.03052 18.2194 5.03077 18.2197 4.50044 18.75C4.64753 19.4854 4.64773 19.4854 4.64796 19.4854L4.64977 19.485L4.65338 19.4843L4.66466 19.4819C4.67395 19.48 4.68675 19.4773 4.70286 19.4737C4.73508 19.4667 4.78058 19.4564 4.83768 19.4428C4.95178 19.4154 5.11279 19.3744 5.3072 19.3179C5.57929 19.2389 5.92089 19.1287 6.29332 18.9822Z" fill="#0B1918"/>
<path d="M6.29332 18.9822C6.17396 18.9318 6.06315 18.8803 5.96085 18.8292C5.63048 18.664 5.38734 18.5011 5.23169 18.3844C5.15391 18.326 5.09821 18.2794 5.06463 18.25C5.04785 18.2353 5.03663 18.225 5.03097 18.2197C5.02815 18.217 5.02672 18.2157 5.02668 18.2156C5.02666 18.2156 5.02699 18.2159 5.02768 18.2166L5.02896 18.2179L5.0298 18.2187L5.03027 18.2192C5.03052 18.2194 5.03077 18.2197 4.50044 18.75C4.64753 19.4854 4.64773 19.4854 4.64796 19.4854L4.64977 19.485L4.65338 19.4843L4.66466 19.4819C4.67395 19.48 4.68675 19.4773 4.70286 19.4737C4.73508 19.4667 4.78058 19.4564 4.83768 19.4428C4.95178 19.4154 5.11279 19.3744 5.3072 19.3179C5.57929 19.2389 5.92089 19.1287 6.29332 18.9822Z" fill="#09131A"/>
</svg>
