<svg width="24" height="24" viewBox="0 0 24 24" fill="none" xmlns="http://www.w3.org/2000/svg">
<g opacity="0.2">
<path d="M7.5 15.75H3C2.80109 15.75 2.61032 15.671 2.46967 15.5303C2.32902 15.3897 2.25 15.1989 2.25 15V9C2.25 8.80109 2.32902 8.61032 2.46967 8.46967C2.61032 8.32902 2.80109 8.25 3 8.25H7.5V15.75Z" fill="#0B1918"/>
<path d="M7.5 15.75H3C2.80109 15.75 2.61032 15.671 2.46967 15.5303C2.32902 15.3897 2.25 15.1989 2.25 15V9C2.25 8.80109 2.32902 8.61032 2.46967 8.46967C2.61032 8.32902 2.80109 8.25 3 8.25H7.5V15.75Z" fill="#09131A"/>
</g>
<path fill-rule="evenodd" clip-rule="evenodd" d="M19.9926 6.69672C20.2855 6.40383 20.7604 6.40383 21.0533 6.69672C21.7497 7.39316 22.3022 8.21995 22.6791 9.1299C23.056 10.0398 23.25 11.0151 23.25 12C23.25 12.9849 23.056 13.9602 22.6791 14.8701C22.3022 15.7801 21.7497 16.6069 21.0533 17.3033C20.7604 17.5962 20.2855 17.5962 19.9926 17.3033C19.6997 17.0104 19.6997 16.5356 19.9926 16.2427C20.5498 15.6855 20.9917 15.0241 21.2933 14.2961C21.5948 13.5682 21.75 12.788 21.75 12C21.75 11.2121 21.5948 10.4319 21.2933 9.70392C20.9917 8.97597 20.5498 8.31453 19.9926 7.75738C19.6997 7.46449 19.6997 6.98961 19.9926 6.69672Z" fill="#0B1918"/>
<path fill-rule="evenodd" clip-rule="evenodd" d="M19.9926 6.69672C20.2855 6.40383 20.7604 6.40383 21.0533 6.69672C21.7497 7.39316 22.3022 8.21995 22.6791 9.1299C23.056 10.0398 23.25 11.0151 23.25 12C23.25 12.9849 23.056 13.9602 22.6791 14.8701C22.3022 15.7801 21.7497 16.6069 21.0533 17.3033C20.7604 17.5962 20.2855 17.5962 19.9926 17.3033C19.6997 17.0104 19.6997 16.5356 19.9926 16.2427C20.5498 15.6855 20.9917 15.0241 21.2933 14.2961C21.5948 13.5682 21.75 12.788 21.75 12C21.75 11.2121 21.5948 10.4319 21.2933 9.70392C20.9917 8.97597 20.5498 8.31453 19.9926 7.75738C19.6997 7.46449 19.6997 6.98961 19.9926 6.69672Z" fill="#09131A"/>
<path fill-rule="evenodd" clip-rule="evenodd" d="M14.5795 2.32627C14.8368 2.45212 15 2.71356 15 3.00001V21C15 21.2865 14.8368 21.5479 14.5795 21.6737C14.3222 21.7996 14.0157 21.7679 13.7895 21.592L7.24267 16.5H3C2.60218 16.5 2.22065 16.342 1.93934 16.0607C1.65803 15.7794 1.5 15.3978 1.5 15V9.00001C1.5 8.60218 1.65804 8.22065 1.93934 7.93935C2.22064 7.65804 2.60217 7.50001 3 7.50001H7.24267L13.7895 2.40799C14.0157 2.23213 14.3222 2.20042 14.5795 2.32627ZM13.5 4.53349L7.96046 8.84202C7.82881 8.94441 7.66678 9.00001 7.5 9.00001H3V15H7.5C7.66678 15 7.82881 15.0556 7.96046 15.158L13.5 19.4665V4.53349Z" fill="#0B1918"/>
<path fill-rule="evenodd" clip-rule="evenodd" d="M14.5795 2.32627C14.8368 2.45212 15 2.71356 15 3.00001V21C15 21.2865 14.8368 21.5479 14.5795 21.6737C14.3222 21.7996 14.0157 21.7679 13.7895 21.592L7.24267 16.5H3C2.60218 16.5 2.22065 16.342 1.93934 16.0607C1.65803 15.7794 1.5 15.3978 1.5 15V9.00001C1.5 8.60218 1.65804 8.22065 1.93934 7.93935C2.22064 7.65804 2.60217 7.50001 3 7.50001H7.24267L13.7895 2.40799C14.0157 2.23213 14.3222 2.20042 14.5795 2.32627ZM13.5 4.53349L7.96046 8.84202C7.82881 8.94441 7.66678 9.00001 7.5 9.00001H3V15H7.5C7.66678 15 7.82881 15.0556 7.96046 15.158L13.5 19.4665V4.53349Z" fill="#09131A"/>
<path fill-rule="evenodd" clip-rule="evenodd" d="M7.49731 7.5C7.91153 7.5 8.24731 7.83579 8.24731 8.25V15.75C8.24731 16.1642 7.91153 16.5 7.49731 16.5C7.0831 16.5 6.74731 16.1642 6.74731 15.75V8.25C6.74731 7.83579 7.0831 7.5 7.49731 7.5Z" fill="#0B1918"/>
<path fill-rule="evenodd" clip-rule="evenodd" d="M7.49731 7.5C7.91153 7.5 8.24731 7.83579 8.24731 8.25V15.75C8.24731 16.1642 7.91153 16.5 7.49731 16.5C7.0831 16.5 6.74731 16.1642 6.74731 15.75V8.25C6.74731 7.83579 7.0831 7.5 7.49731 7.5Z" fill="#09131A"/>
<path fill-rule="evenodd" clip-rule="evenodd" d="M17.341 9.34833C17.6339 9.05544 18.1088 9.05544 18.4017 9.34833C18.7499 9.69655 19.0261 10.1099 19.2146 10.5649C19.403 11.0199 19.5 11.5075 19.5 12C19.5 12.4924 19.403 12.9801 19.2146 13.435C19.0261 13.89 18.7499 14.3034 18.4017 14.6516C18.1088 14.9445 17.6339 14.9445 17.341 14.6516C17.0481 14.3587 17.0481 13.8839 17.341 13.591C17.5499 13.382 17.7157 13.134 17.8287 12.861C17.9418 12.588 18 12.2955 18 12C18 11.7045 17.9418 11.4119 17.8287 11.1389C17.7157 10.866 17.5499 10.6179 17.341 10.409C17.0481 10.1161 17.0481 9.64123 17.341 9.34833Z" fill="#0B1918"/>
<path fill-rule="evenodd" clip-rule="evenodd" d="M17.341 9.34833C17.6339 9.05544 18.1088 9.05544 18.4017 9.34833C18.7499 9.69655 19.0261 10.1099 19.2146 10.5649C19.403 11.0199 19.5 11.5075 19.5 12C19.5 12.4924 19.403 12.9801 19.2146 13.435C19.0261 13.89 18.7499 14.3034 18.4017 14.6516C18.1088 14.9445 17.6339 14.9445 17.341 14.6516C17.0481 14.3587 17.0481 13.8839 17.341 13.591C17.5499 13.382 17.7157 13.134 17.8287 12.861C17.9418 12.588 18 12.2955 18 12C18 11.7045 17.9418 11.4119 17.8287 11.1389C17.7157 10.866 17.5499 10.6179 17.341 10.409C17.0481 10.1161 17.0481 9.64123 17.341 9.34833Z" fill="#09131A"/>
</svg>
