<svg width="24" height="24" viewBox="0 0 24 24" fill="none" xmlns="http://www.w3.org/2000/svg">
<g opacity="0.2">
<path d="M7.5 15.75H3C2.80109 15.75 2.61032 15.671 2.46967 15.5303C2.32902 15.3897 2.25 15.1989 2.25 15V9C2.25 8.80109 2.32902 8.61032 2.46967 8.46967C2.61032 8.32902 2.80109 8.25 3 8.25H7.5V15.75Z" fill="#0B1918"/>
<path d="M7.5 15.75H3C2.80109 15.75 2.61032 15.671 2.46967 15.5303C2.32902 15.3897 2.25 15.1989 2.25 15V9C2.25 8.80109 2.32902 8.61032 2.46967 8.46967C2.61032 8.32902 2.80109 8.25 3 8.25H7.5V15.75Z" fill="#09131A"/>
</g>
<path fill-rule="evenodd" clip-rule="evenodd" d="M19.9904 6.6977C20.2833 6.4048 20.7582 6.4048 21.0511 6.6977C22.4576 8.10422 23.2478 10.0119 23.2478 12.001C23.2478 13.9901 22.4576 15.8978 21.0511 17.3043C20.7582 17.5972 20.2833 17.5972 19.9904 17.3043C19.6975 17.0114 19.6975 16.5365 19.9904 16.2436C21.1156 15.1184 21.7478 13.5923 21.7478 12.001C21.7478 10.4097 21.1156 8.88358 19.9904 7.75836C19.6975 7.46546 19.6975 6.99059 19.9904 6.6977Z" fill="#0B1918"/>
<path fill-rule="evenodd" clip-rule="evenodd" d="M19.9904 6.6977C20.2833 6.4048 20.7582 6.4048 21.0511 6.6977C22.4576 8.10422 23.2478 10.0119 23.2478 12.001C23.2478 13.9901 22.4576 15.8978 21.0511 17.3043C20.7582 17.5972 20.2833 17.5972 19.9904 17.3043C19.6975 17.0114 19.6975 16.5365 19.9904 16.2436C21.1156 15.1184 21.7478 13.5923 21.7478 12.001C21.7478 10.4097 21.1156 8.88358 19.9904 7.75836C19.6975 7.46546 19.6975 6.99059 19.9904 6.6977Z" fill="#09131A"/>
<path fill-rule="evenodd" clip-rule="evenodd" d="M7.49951 7.50098C7.91373 7.50098 8.24951 7.83676 8.24951 8.25098V15.751C8.24951 16.1652 7.91373 16.501 7.49951 16.501C7.0853 16.501 6.74951 16.1652 6.74951 15.751V8.25098C6.74951 7.83676 7.0853 7.50098 7.49951 7.50098Z" fill="#0B1918"/>
<path fill-rule="evenodd" clip-rule="evenodd" d="M7.49951 7.50098C7.91373 7.50098 8.24951 7.83676 8.24951 8.25098V15.751C8.24951 16.1652 7.91373 16.501 7.49951 16.501C7.0853 16.501 6.74951 16.1652 6.74951 15.751V8.25098C6.74951 7.83676 7.0853 7.50098 7.49951 7.50098Z" fill="#09131A"/>
<path fill-rule="evenodd" clip-rule="evenodd" d="M17.3388 9.34955C17.6317 9.05666 18.1066 9.05666 18.3995 9.34955C19.1027 10.0528 19.4978 11.0066 19.4978 12.0012C19.4978 12.9958 19.1027 13.9496 18.3995 14.6529C18.1066 14.9458 17.6317 14.9458 17.3388 14.6529C17.0459 14.36 17.0459 13.8851 17.3388 13.5922C17.7608 13.1702 17.9978 12.5979 17.9978 12.0012C17.9978 11.4045 17.7608 10.8322 17.3388 10.4102C17.0459 10.1173 17.0459 9.64245 17.3388 9.34955Z" fill="#0B1918"/>
<path fill-rule="evenodd" clip-rule="evenodd" d="M17.3388 9.34955C17.6317 9.05666 18.1066 9.05666 18.3995 9.34955C19.1027 10.0528 19.4978 11.0066 19.4978 12.0012C19.4978 12.9958 19.1027 13.9496 18.3995 14.6529C18.1066 14.9458 17.6317 14.9458 17.3388 14.6529C17.0459 14.36 17.0459 13.8851 17.3388 13.5922C17.7608 13.1702 17.9978 12.5979 17.9978 12.0012C17.9978 11.4045 17.7608 10.8322 17.3388 10.4102C17.0459 10.1173 17.0459 9.64245 17.3388 9.34955Z" fill="#09131A"/>
<path fill-rule="evenodd" clip-rule="evenodd" d="M3.9955 3.19505C4.30199 2.91642 4.77633 2.93901 5.05496 3.2455L20.055 19.7455C20.3336 20.052 20.311 20.5263 20.0045 20.805C19.698 21.0836 19.2237 21.061 18.9451 20.7545L3.94505 4.25451C3.66642 3.94802 3.68901 3.47368 3.9955 3.19505Z" fill="#0B1918"/>
<path fill-rule="evenodd" clip-rule="evenodd" d="M3.9955 3.19505C4.30199 2.91642 4.77633 2.93901 5.05496 3.2455L20.055 19.7455C20.3336 20.052 20.311 20.5263 20.0045 20.805C19.698 21.0836 19.2237 21.061 18.9451 20.7545L3.94505 4.25451C3.66642 3.94802 3.68901 3.47368 3.9955 3.19505Z" fill="#09131A"/>
<path fill-rule="evenodd" clip-rule="evenodd" d="M8.73164 7.29299C8.98595 7.61995 8.92705 8.09116 8.60009 8.34547L7.96046 8.84296C7.82881 8.94536 7.66678 9.00095 7.5 9.00095L3 9.00095V15.001H7.5C7.66678 15.001 7.82881 15.0565 7.96046 15.1589L13.5 19.4675V14.4749C13.5 14.0606 13.8358 13.7249 14.25 13.7249C14.6642 13.7249 15 14.0606 15 14.4749V21.001C15 21.2874 14.8368 21.5488 14.5795 21.6747C14.3222 21.8005 14.0157 21.7688 13.7895 21.593L7.24267 16.501H3C2.60217 16.501 2.22064 16.3429 1.93934 16.0616C1.65804 15.7803 1.5 15.3988 1.5 15.001V9.00095C1.5 8.60312 1.65804 8.22159 1.93934 7.94029C2.22064 7.65898 2.60217 7.50095 3 7.50095H7.24267L7.67917 7.16144C8.00613 6.90714 8.47734 6.96604 8.73164 7.29299Z" fill="#0B1918"/>
<path fill-rule="evenodd" clip-rule="evenodd" d="M8.73164 7.29299C8.98595 7.61995 8.92705 8.09116 8.60009 8.34547L7.96046 8.84296C7.82881 8.94536 7.66678 9.00095 7.5 9.00095L3 9.00095V15.001H7.5C7.66678 15.001 7.82881 15.0565 7.96046 15.1589L13.5 19.4675V14.4749C13.5 14.0606 13.8358 13.7249 14.25 13.7249C14.6642 13.7249 15 14.0606 15 14.4749V21.001C15 21.2874 14.8368 21.5488 14.5795 21.6747C14.3222 21.8005 14.0157 21.7688 13.7895 21.593L7.24267 16.501H3C2.60217 16.501 2.22064 16.3429 1.93934 16.0616C1.65804 15.7803 1.5 15.3988 1.5 15.001V9.00095C1.5 8.60312 1.65804 8.22159 1.93934 7.94029C2.22064 7.65898 2.60217 7.50095 3 7.50095H7.24267L7.67917 7.16144C8.00613 6.90714 8.47734 6.96604 8.73164 7.29299Z" fill="#09131A"/>
<path fill-rule="evenodd" clip-rule="evenodd" d="M14.5796 2.32725C14.8369 2.4531 15.0001 2.71453 15.0001 3.00098V10.0151C15.0001 10.4293 14.6643 10.7651 14.2501 10.7651C13.8358 10.7651 13.5001 10.4293 13.5001 10.0151V4.53444L10.9751 6.49822C10.6482 6.75252 10.177 6.69361 9.92266 6.36665C9.66836 6.03969 9.72727 5.56848 10.0542 5.31418L13.7896 2.40896C14.0157 2.2331 14.3223 2.20139 14.5796 2.32725Z" fill="#0B1918"/>
<path fill-rule="evenodd" clip-rule="evenodd" d="M14.5796 2.32725C14.8369 2.4531 15.0001 2.71453 15.0001 3.00098V10.0151C15.0001 10.4293 14.6643 10.7651 14.2501 10.7651C13.8358 10.7651 13.5001 10.4293 13.5001 10.0151V4.53444L10.9751 6.49822C10.6482 6.75252 10.177 6.69361 9.92266 6.36665C9.66836 6.03969 9.72727 5.56848 10.0542 5.31418L13.7896 2.40896C14.0157 2.2331 14.3223 2.20139 14.5796 2.32725Z" fill="#09131A"/>
</svg>
