<svg width="24" height="24" viewBox="0 0 24 24" fill="none" xmlns="http://www.w3.org/2000/svg">
<g opacity="0.2">
<path d="M20.2507 4.5H6.75073C6.65224 4.5 6.55471 4.5194 6.46372 4.55709C6.37272 4.59478 6.29004 4.65002 6.2204 4.71967C6.15076 4.78931 6.09551 4.87199 6.05782 4.96299C6.02013 5.05398 6.00073 5.15151 6.00073 5.25V7.5H17.2507C17.3492 7.5 17.4468 7.5194 17.5377 7.55709C17.6287 7.59478 17.7114 7.65002 17.7811 7.71967C17.8507 7.78931 17.906 7.87199 17.9436 7.96299C17.9813 8.05398 18.0007 8.15151 18.0007 8.25V16.5H20.2507C20.3492 16.5 20.4468 16.4806 20.5377 16.4429C20.6287 16.4052 20.7114 16.35 20.7811 16.2803C20.8507 16.2107 20.906 16.128 20.9436 16.037C20.9813 15.946 21.0007 15.8485 21.0007 15.75V5.25C21.0007 5.15151 20.9813 5.05398 20.9436 4.96299C20.906 4.87199 20.8507 4.78931 20.7811 4.71967C20.7114 4.65002 20.6287 4.59478 20.5377 4.55709C20.4468 4.5194 20.3492 4.5 20.2507 4.5V4.5Z" fill="#0B1918"/>
<path d="M20.2507 4.5H6.75073C6.65224 4.5 6.55471 4.5194 6.46372 4.55709C6.37272 4.59478 6.29004 4.65002 6.2204 4.71967C6.15076 4.78931 6.09551 4.87199 6.05782 4.96299C6.02013 5.05398 6.00073 5.15151 6.00073 5.25V7.5H17.2507C17.3492 7.5 17.4468 7.5194 17.5377 7.55709C17.6287 7.59478 17.7114 7.65002 17.7811 7.71967C17.8507 7.78931 17.906 7.87199 17.9436 7.96299C17.9813 8.05398 18.0007 8.15151 18.0007 8.25V16.5H20.2507C20.3492 16.5 20.4468 16.4806 20.5377 16.4429C20.6287 16.4052 20.7114 16.35 20.7811 16.2803C20.8507 16.2107 20.906 16.128 20.9436 16.037C20.9813 15.946 21.0007 15.8485 21.0007 15.75V5.25C21.0007 5.15151 20.9813 5.05398 20.9436 4.96299C20.906 4.87199 20.8507 4.78931 20.7811 4.71967C20.7114 4.65002 20.6287 4.59478 20.5377 4.55709C20.4468 4.5194 20.3492 4.5 20.2507 4.5V4.5Z" fill="#09131A"/>
</g>
<path fill-rule="evenodd" clip-rule="evenodd" d="M2.25073 8.25C2.25073 7.42157 2.92231 6.75 3.75073 6.75H17.2507C18.0792 6.75 18.7507 7.42157 18.7507 8.25V18.75C18.7507 19.5784 18.0792 20.25 17.2507 20.25H3.75073C2.92231 20.25 2.25073 19.5784 2.25073 18.75V8.25ZM17.2507 8.25H3.75073V18.75H17.2507V8.25Z" fill="#0B1918"/>
<path fill-rule="evenodd" clip-rule="evenodd" d="M2.25073 8.25C2.25073 7.42157 2.92231 6.75 3.75073 6.75H17.2507C18.0792 6.75 18.7507 7.42157 18.7507 8.25V18.75C18.7507 19.5784 18.0792 20.25 17.2507 20.25H3.75073C2.92231 20.25 2.25073 19.5784 2.25073 18.75V8.25ZM17.2507 8.25H3.75073V18.75H17.2507V8.25Z" fill="#09131A"/>
<path fill-rule="evenodd" clip-rule="evenodd" d="M5.69007 4.18934C5.97138 3.90804 6.35291 3.75 6.75073 3.75H20.2507C20.6486 3.75 21.0301 3.90804 21.3114 4.18934C21.5927 4.47064 21.7507 4.85217 21.7507 5.25V15.75C21.7507 16.1478 21.5927 16.5293 21.3114 16.8107C21.0301 17.092 20.6486 17.25 20.2507 17.25H18.0007C17.5865 17.25 17.2507 16.9142 17.2507 16.5C17.2507 16.0858 17.5865 15.75 18.0007 15.75H20.2507V5.25L6.75073 5.25L6.75073 7.5C6.75073 7.91421 6.41495 8.25 6.00073 8.25C5.58652 8.25 5.25073 7.91421 5.25073 7.5V5.25C5.25073 4.85218 5.40877 4.47065 5.69007 4.18934Z" fill="#0B1918"/>
<path fill-rule="evenodd" clip-rule="evenodd" d="M5.69007 4.18934C5.97138 3.90804 6.35291 3.75 6.75073 3.75H20.2507C20.6486 3.75 21.0301 3.90804 21.3114 4.18934C21.5927 4.47064 21.7507 4.85217 21.7507 5.25V15.75C21.7507 16.1478 21.5927 16.5293 21.3114 16.8107C21.0301 17.092 20.6486 17.25 20.2507 17.25H18.0007C17.5865 17.25 17.2507 16.9142 17.2507 16.5C17.2507 16.0858 17.5865 15.75 18.0007 15.75H20.2507V5.25L6.75073 5.25L6.75073 7.5C6.75073 7.91421 6.41495 8.25 6.00073 8.25C5.58652 8.25 5.25073 7.91421 5.25073 7.5V5.25C5.25073 4.85218 5.40877 4.47065 5.69007 4.18934Z" fill="#09131A"/>
<path fill-rule="evenodd" clip-rule="evenodd" d="M2.25 10.5C2.25 10.0858 2.58579 9.75 3 9.75H18C18.4142 9.75 18.75 10.0858 18.75 10.5C18.75 10.9142 18.4142 11.25 18 11.25H3C2.58579 11.25 2.25 10.9142 2.25 10.5Z" fill="#0B1918"/>
<path fill-rule="evenodd" clip-rule="evenodd" d="M2.25 10.5C2.25 10.0858 2.58579 9.75 3 9.75H18C18.4142 9.75 18.75 10.0858 18.75 10.5C18.75 10.9142 18.4142 11.25 18 11.25H3C2.58579 11.25 2.25 10.9142 2.25 10.5Z" fill="#09131A"/>
</svg>
