<svg width="24" height="24" viewBox="0 0 24 24" xmlns="http://www.w3.org/2000/svg">
<path fill-rule="evenodd" clip-rule="evenodd" d="M20.0711 11.997C20.0703 11.7421 19.9727 11.4874 19.7782 11.2929L12.7071 4.22182C12.3166 3.83129 11.6834 3.83129 11.2929 4.22182C10.9024 4.61234 10.9024 5.24551 11.2929 5.63603L16.6568 11L4.92892 11C4.37664 11 3.92892 11.4477 3.92892 12C3.92892 12.5523 4.37664 13 4.92892 13L16.6568 13L11.2929 18.364C10.9024 18.7545 10.9024 19.3876 11.2929 19.7782C11.6834 20.1687 12.3166 20.1687 12.7071 19.7782L19.7777 12.7076L19.7803 12.705C19.9713 12.5128 20.0719 12.268 20.0711 11.997Z" fill="currentColor"/>
</svg>
