<svg width="24" height="24" viewBox="0 0 24 24" fill="none" xmlns="http://www.w3.org/2000/svg">
<path fill-rule="evenodd" clip-rule="evenodd" d="M11.997 3.92893C11.7421 3.92969 11.4874 4.02732 11.2929 4.22182L4.22182 11.2929C3.83129 11.6834 3.83129 12.3166 4.22182 12.7071C4.61234 13.0976 5.24551 13.0976 5.63603 12.7071L11 7.34314V19.0711C11 19.6233 11.4477 20.0711 12 20.0711C12.5523 20.0711 13 19.6233 13 19.0711V7.34314L18.364 12.7071C18.7545 13.0976 19.3876 13.0976 19.7782 12.7071C20.1687 12.3166 20.1687 11.6834 19.7782 11.2929L12.7076 4.22231L12.705 4.2197C12.5128 4.02864 12.268 3.92811 11.997 3.92893Z" fill="currentColor"/>
</svg>
