<svg width="24" height="24" viewBox="0 0 24 24" xmlns="http://www.w3.org/2000/svg">
<path fill-rule="evenodd" clip-rule="evenodd" d="M17.705 6.29078C17.5242 6.11106 17.2751 6 17 6H7C6.44772 6 6 6.44772 6 7C6 7.55228 6.44772 8 7 8H14.5858L6.29289 16.2929C5.90237 16.6834 5.90237 17.3166 6.29289 17.7071C6.68342 18.0976 7.31658 18.0976 7.70711 17.7071L16 9.41421V17C16 17.5523 16.4477 18 17 18C17.5523 18 18 17.5523 18 17V7.00069L18 6.997C17.9992 6.72601 17.8972 6.48183 17.705 6.29078Z" fill="currentColor"/>
</svg>
