<svg width="24" height="24" viewBox="0 0 24 24" fill="none" xmlns="http://www.w3.org/2000/svg">
<path fill-rule="evenodd" clip-rule="evenodd" d="M12 3.5C7.30375 3.5 3.5 7.39996 3.5 12.215C3.5 16.0714 5.93312 19.3286 9.31187 20.4834C9.73687 20.5596 9.89625 20.2982 9.89625 20.0694C9.89625 19.8624 9.88563 19.1761 9.88563 18.4462C7.75 18.8493 7.1975 17.9124 7.0275 17.4222C6.93187 17.1717 6.5175 16.3982 6.15625 16.1912C5.85875 16.0278 5.43375 15.6247 6.14563 15.6138C6.815 15.603 7.29313 16.2457 7.4525 16.5071C8.2175 17.8253 9.43938 17.4549 9.92813 17.2261C10.0025 16.6596 10.2256 16.2784 10.47 16.0605C8.57875 15.8426 6.6025 15.0909 6.6025 11.7575C6.6025 10.8097 6.93188 10.0254 7.47375 9.4153C7.38875 9.19743 7.09125 8.30414 7.55875 7.10583C7.55875 7.10583 8.27063 6.87706 9.89625 7.99912C10.5762 7.80303 11.2988 7.70499 12.0213 7.70499C12.7438 7.70499 13.4663 7.80303 14.1463 7.99912C15.7719 6.86617 16.4838 7.10583 16.4838 7.10583C16.9513 8.30414 16.6538 9.19743 16.5688 9.4153C17.1106 10.0254 17.44 10.7988 17.44 11.7575C17.44 15.1018 15.4531 15.8426 13.5619 16.0605C13.87 16.3328 14.1356 16.8557 14.1356 17.6728C14.1356 18.8384 14.125 19.7753 14.125 20.0694C14.125 20.2982 14.2844 20.5705 14.7094 20.4834C16.3968 19.8993 17.8631 18.7874 18.9018 17.3041C19.9406 15.8209 20.4995 14.041 20.5 12.215C20.5 7.39996 16.6963 3.5 12 3.5Z" fill="currentColor"/>
</svg>
