<svg width="32" height="32" viewBox="0 0 32 32" fill="none" xmlns="http://www.w3.org/2000/svg">
<path fill-rule="evenodd" clip-rule="evenodd" d="M16 32C24.8366 32 32 24.8366 32 16C32 7.16344 24.8366 0 16 0C7.16344 0 0 7.16344 0 16C0 24.8366 7.16344 32 16 32ZM9.75752 8.24599C9.89337 7.71071 9.56959 7.16663 9.03431 7.03074C8.49901 6.89484 7.95489 7.21863 7.81899 7.75393C7.75334 8.01253 7.64722 8.72147 7.53847 9.55485C7.42518 10.4229 7.29859 11.5113 7.19674 12.5867C7.09535 13.6572 7.01648 14.7354 7.0023 15.5748C6.9953 15.9892 7.00324 16.3806 7.04037 16.6951C7.05843 16.8481 7.0883 17.0284 7.14643 17.1992C7.18214 17.3042 7.3216 17.709 7.74902 17.9172L8.04125 18.0595L8.36132 18.0028C8.50756 17.9769 8.62107 17.9241 8.66023 17.9056C8.71672 17.8791 8.76862 17.8503 8.81047 17.8258C8.89501 17.7765 8.98769 17.7161 9.07959 17.6537C9.26582 17.5273 9.49977 17.3577 9.75677 17.1669C10.1982 16.8393 10.7389 16.4256 11.2793 16.0123L11.2799 16.0118L11.5512 15.8043C11.8381 15.5849 12.1199 15.37 12.384 15.1704C12.3428 16.1396 12.2782 17.2734 12.2111 18.3428C12.1513 19.2949 12.0904 20.1816 12.0445 20.8305C12.0215 21.1549 12.0023 21.4197 11.9888 21.6032L11.9677 21.8884C11.9332 22.345 12.2133 22.7667 12.6475 22.912C13.0818 23.0572 13.5596 22.8884 13.8069 22.503L13.8392 22.4528L13.9357 22.3037C14.0199 22.1739 14.1424 21.9857 14.2952 21.7532C14.6008 21.288 15.0267 20.6466 15.5079 19.9416C15.6506 19.7325 15.7974 19.5188 15.9469 19.3033C16.0654 20.3438 16.3778 21.3779 16.887 22.2754C17.7524 23.8002 19.2413 25 21.3262 25C22.4855 25 23.4043 24.6688 24.0251 23.9968C24.6273 23.3449 24.8035 22.5276 24.8266 21.8524C24.8413 21.4211 24.7958 21.002 24.7299 20.6364H27C27.5523 20.6364 28 20.1886 28 19.6364C28 19.0841 27.5523 18.6364 27 18.6364H21.9249L22.4907 20.0142L22.4912 20.0156L22.4919 20.0173L22.5012 20.0414C22.5102 20.0648 22.5241 20.1022 22.5412 20.1517C22.5758 20.2512 22.6226 20.3966 22.6686 20.5719C22.7632 20.9327 22.8418 21.3735 22.8278 21.784C22.8135 22.1996 22.7097 22.4733 22.5561 22.6396C22.421 22.7858 22.108 23 21.3262 23C20.1263 23 19.2263 22.3452 18.6265 21.2883C18.012 20.2053 17.772 18.7764 17.9491 17.5216C18.1299 16.2407 18.6925 15.402 19.4032 15.1041C20.0938 14.8146 21.3689 14.8524 23.4195 16.3678C23.8636 16.6961 24.4898 16.6021 24.818 16.158C25.1463 15.7138 25.0523 15.0877 24.6081 14.7594C22.3287 13.0748 20.2817 12.5672 18.63 13.2596C17.9193 13.5575 17.3664 14.0426 16.9496 14.6298C16.1312 15.5814 15.1041 17.0048 14.2185 18.2862C14.3338 16.4294 14.4449 14.3162 14.4275 13.2485C14.4245 13.0624 14.3656 12.7822 14.1315 12.5478C13.9086 12.3246 13.6502 12.2677 13.5044 12.2544C13.2619 12.2322 13.0699 12.3044 13.026 12.3209L13.0225 12.3222C12.8917 12.371 12.7703 12.4422 12.6976 12.4864C12.5271 12.5898 12.308 12.7417 12.0741 12.9102C11.5978 13.2534 10.9659 13.7343 10.3365 14.2154L10.0627 14.4248C9.6975 14.7042 9.33893 14.9785 9.01265 15.2251C9.03891 14.521 9.10394 13.661 9.18783 12.7752C9.2872 11.7261 9.41103 10.6613 9.52165 9.81366C9.57697 9.38977 9.62857 9.02336 9.67171 8.74249C9.69331 8.60185 9.71232 8.48577 9.7282 8.3963C9.73613 8.3516 9.74288 8.31584 9.74841 8.28841C9.75114 8.27481 9.75337 8.26432 9.75508 8.25661C9.75663 8.24961 9.75744 8.2463 9.75751 8.24601C9.75751 8.24603 9.7575 8.24604 9.7575 8.24606L9.75752 8.24599Z" fill="white"/>
</svg>
