<svg width="24" height="24" viewBox="0 0 24 24" fill="none" xmlns="http://www.w3.org/2000/svg">
<path fill-rule="evenodd" clip-rule="evenodd" d="M12 24C18.6274 24 24 18.6274 24 12C24 5.37258 18.6274 0 12 0C5.37258 0 0 5.37258 0 12C0 18.6274 5.37258 24 12 24ZM7.31814 6.18449C7.42003 5.78303 7.17719 5.37497 6.77573 5.27306C6.37425 5.17113 5.96617 5.41397 5.86424 5.81545C5.81501 6.0094 5.73542 6.5411 5.65385 7.16613C5.56889 7.81718 5.47394 8.63346 5.39756 9.44C5.32151 10.2429 5.26236 11.0515 5.25173 11.6811C5.24648 11.9919 5.25243 12.2854 5.28028 12.5213C5.29382 12.6361 5.31622 12.7713 5.35982 12.8994C5.3866 12.9782 5.4912 13.2818 5.81176 13.4379L6.03094 13.5447L6.27099 13.5021C6.38067 13.4827 6.4658 13.4431 6.49518 13.4292C6.53754 13.4093 6.57646 13.3877 6.60785 13.3694C6.67126 13.3324 6.74077 13.2871 6.8097 13.2403C6.94937 13.1454 7.12483 13.0183 7.31758 12.8752C7.64864 12.6295 8.05419 12.3192 8.45947 12.0092L8.6634 11.8532C8.87861 11.6887 9.08993 11.5275 9.28803 11.3778C9.25709 12.1047 9.20868 12.9551 9.15832 13.7571C9.11348 14.4711 9.06782 15.1362 9.03336 15.6229C9.01613 15.8662 9.00172 16.0647 8.99161 16.2024L8.97575 16.4163C8.94991 16.7587 9.15997 17.075 9.48566 17.184C9.81134 17.2929 10.1697 17.1663 10.3552 16.8773L10.3794 16.8396L10.4518 16.7278C10.5149 16.6304 10.6068 16.4893 10.7214 16.3149C10.9506 15.966 11.27 15.485 11.6309 14.9562C11.7379 14.7994 11.8481 14.6391 11.9602 14.4775C12.0491 15.2579 12.2833 16.0334 12.6653 16.7065C13.3143 17.8502 14.431 18.75 15.9947 18.75C16.8641 18.75 17.5532 18.5016 18.0188 17.9976C18.4705 17.5087 18.6026 16.8957 18.6199 16.3893C18.631 16.0658 18.5969 15.7515 18.5475 15.4773H20.25C20.6642 15.4773 21 15.1415 21 14.7273C21 14.3131 20.6642 13.9773 20.25 13.9773H16.4437L16.868 15.0107L16.8684 15.0117L16.8689 15.0129L16.8759 15.031C16.8826 15.0486 16.8931 15.0767 16.9059 15.1138C16.9318 15.1884 16.967 15.2975 17.0014 15.4289C17.0724 15.6995 17.1313 16.0301 17.1208 16.338C17.1101 16.6497 17.0323 16.855 16.917 16.9797C16.8157 17.0893 16.581 17.25 15.9947 17.25C15.0947 17.25 14.4197 16.7589 13.9699 15.9662C13.509 15.154 13.329 14.0823 13.4618 13.1412C13.5974 12.1806 14.0193 11.5515 14.5524 11.3281C15.0703 11.1109 16.0267 11.1393 17.5646 12.2759C17.8977 12.5221 18.3673 12.4516 18.6135 12.1185C18.8597 11.7854 18.7892 11.3157 18.4561 11.0696C16.7465 9.80613 15.2113 9.42542 13.9725 9.94467C13.4394 10.1681 13.0248 10.5319 12.7122 10.9724C12.0984 11.6861 11.3281 12.7536 10.6639 13.7146C10.7504 12.322 10.8337 10.7372 10.8206 9.93634C10.8184 9.79683 10.7742 9.58668 10.5986 9.41086C10.4314 9.24345 10.2377 9.20078 10.1283 9.19077C9.94645 9.17412 9.80243 9.22828 9.76953 9.24065L9.76687 9.24165C9.66874 9.27826 9.57776 9.33166 9.52317 9.36478C9.39535 9.44232 9.23099 9.55625 9.05558 9.68264C8.69836 9.94002 8.22441 10.3007 7.7524 10.6615L7.547 10.8186C7.27313 11.0281 7.0042 11.2339 6.75949 11.4188C6.77918 10.8908 6.82796 10.2457 6.89087 9.58143C6.9654 8.79457 7.05827 7.99597 7.14124 7.36024C7.18273 7.04233 7.22143 6.76752 7.25378 6.55687C7.26999 6.45139 7.28424 6.36433 7.29615 6.29722C7.3021 6.2637 7.30716 6.23688 7.3113 6.21631C7.31336 6.20611 7.31503 6.19824 7.31631 6.19246C7.31747 6.1872 7.31808 6.18471 7.31814 6.18449C7.31814 6.18448 7.31814 6.1845 7.31814 6.18449Z" fill="currentColor"/>
</svg>
