<svg width="24" height="24" viewBox="0 0 24 24" fill="none" xmlns="http://www.w3.org/2000/svg">
<path fill-rule="evenodd" clip-rule="evenodd" d="M12.1667 2.83335C10.2218 2.83335 8.35652 3.60597 6.98125 4.98125C5.60597 6.35652 4.83335 8.2218 4.83335 10.1667C4.83335 13.0066 6.68112 15.7623 8.70717 17.9009C9.70144 18.9505 10.6988 19.8097 11.4487 20.4068C11.7278 20.629 11.9715 20.8141 12.1667 20.9584C12.362 20.8141 12.6057 20.629 12.8848 20.4068C13.6346 19.8097 14.632 18.9505 15.6263 17.9009C17.6524 15.7623 19.5001 13.0066 19.5001 10.1667C19.5001 8.2218 18.7275 6.35652 17.3522 4.98125C15.9769 3.60597 14.1117 2.83335 12.1667 2.83335ZM12.1667 22.0835C11.6583 22.8462 11.6578 22.8459 11.6578 22.8459L11.6551 22.8441L11.649 22.84L11.628 22.8258C11.6102 22.8137 11.5847 22.7963 11.5522 22.7737C11.487 22.7286 11.3935 22.6629 11.2755 22.5778C11.0397 22.4075 10.7059 22.1589 10.3066 21.8409C9.5096 21.2063 8.44448 20.2894 7.37624 19.1618C5.27726 16.9462 3 13.7435 3 10.1667C3 7.73557 3.96578 5.40397 5.68487 3.68487C7.40397 1.96578 9.73557 1 12.1667 1C14.5979 1 16.9295 1.96578 18.6486 3.68487C20.3677 5.40397 21.3335 7.73557 21.3335 10.1667C21.3335 13.7435 19.0562 16.9462 16.9572 19.1618C15.889 20.2894 14.8239 21.2063 14.0268 21.8409C13.6276 22.1589 13.2937 22.4075 13.0579 22.5778C12.94 22.6629 12.8464 22.7286 12.7813 22.7737C12.7488 22.7963 12.7233 22.8137 12.7054 22.8258L12.6844 22.84L12.6783 22.8441L12.6764 22.8454C12.6764 22.8454 12.6752 22.8462 12.1667 22.0835ZM12.1667 22.0835L12.6752 22.8462C12.3673 23.0515 11.9657 23.0512 11.6578 22.8459L12.1667 22.0835Z" fill="currentColor"/>
<path fill-rule="evenodd" clip-rule="evenodd" d="M12.1667 8.33339C11.1542 8.33339 10.3334 9.15421 10.3334 10.1667C10.3334 11.1793 11.1542 12.0001 12.1667 12.0001C13.1793 12.0001 14.0001 11.1793 14.0001 10.1667C14.0001 9.15421 13.1793 8.33339 12.1667 8.33339ZM8.50004 10.1667C8.50004 8.14168 10.1417 6.50004 12.1667 6.50004C14.1918 6.50004 15.8334 8.14168 15.8334 10.1667C15.8334 12.1918 14.1918 13.8334 12.1667 13.8334C10.1417 13.8334 8.50004 12.1918 8.50004 10.1667Z" fill="currentColor"/>
</svg>
