<svg width="24" height="24" viewBox="0 0 24 24" fill="none" xmlns="http://www.w3.org/2000/svg">
<path d="M21.6866 5.89444C20.9626 6.21524 20.1849 6.43199 19.3673 6.52997C20.2014 6.03056 20.8412 5.23811 21.143 4.29479C20.3626 4.75778 19.4982 5.09418 18.5783 5.27452C17.8413 4.49073 16.7922 4 15.6304 4C13.4005 4 11.5918 5.80861 11.5918 8.04032C11.5918 8.35591 11.6283 8.66284 11.6959 8.95936C8.33792 8.79029 5.36317 7.18197 3.37076 4.7387C3.02395 5.33695 2.82454 6.03056 2.82454 6.76926C2.82454 8.17037 3.53809 9.40761 4.621 10.1316C3.9586 10.1099 3.33608 9.92869 2.79159 9.6261V9.67812C2.79159 11.635 4.18316 13.2676 6.03165 13.6387C5.69177 13.7306 5.33543 13.7791 4.96781 13.7791C4.70771 13.7791 4.45367 13.7549 4.20743 13.708C4.72158 15.312 6.21285 16.4808 7.98071 16.512C6.59781 17.5958 4.85597 18.2417 2.96413 18.2417C2.63813 18.2417 2.31646 18.2226 2 18.1853C3.7878 19.3324 5.91026 20 8.19053 20C15.6209 20 19.6829 13.8459 19.6829 8.50851C19.6829 8.3351 19.6786 8.15997 19.6707 7.98656C20.4597 7.41606 21.1447 6.70597 21.6848 5.89704L21.6866 5.89444Z" fill="currentColor"/>
</svg>
